<?xml version="1.0" encoding="UTF-8" standalone="no"?>
<!-- Created with Inkscape (http://www.inkscape.org/) -->

<svg
   xmlns:dc="http://purl.org/dc/elements/1.1/"
   xmlns:cc="http://creativecommons.org/ns#"
   xmlns:rdf="http://www.w3.org/1999/02/22-rdf-syntax-ns#"
   xmlns:svg="http://www.w3.org/2000/svg"
   xmlns="http://www.w3.org/2000/svg"
   version="1.1"
   width="1024"
   height="2048"
   id="svg3355">
  <defs
     id="defs3357" />
  <metadata
     id="metadata3360">
    <rdf:RDF>
      <cc:Work
         rdf:about="">
        <dc:format>image/svg+xml</dc:format>
        <dc:type
           rdf:resource="http://purl.org/dc/dcmitype/StillImage" />
        <dc:title></dc:title>
      </cc:Work>
    </rdf:RDF>
  </metadata>
  <path
     d="m 0,384 0,512 128,0 0,-224 224,224 85,-85 -99,-98 686,0 0,-146 -686,0 99,-98 -85,-85 -224,224 0,-224 -128,0 z m 672,512 -85,85 99,98 -686,0 0,146 686,0 -99,98 85,85 224,-224 0,224 128,0 0,-512 -128,0 0,224 -224,-224 z"
     id="path3705-44-9-5-7-2-9-5-17-5"
     style="fill:#000000;fill-opacity:1;stroke:none;display:inline" />
</svg>
