<?xml version="1.0" encoding="UTF-8" standalone="no"?>
<svg
   xmlns:dc="http://purl.org/dc/elements/1.1/"
   xmlns:cc="http://creativecommons.org/ns#"
   xmlns:rdf="http://www.w3.org/1999/02/22-rdf-syntax-ns#"
   xmlns:svg="http://www.w3.org/2000/svg"
   xmlns="http://www.w3.org/2000/svg"
   version="1.1"
   width="1024"
   height="2048"
   id="svg3355">
  <defs
     id="defs3357" />
  <metadata
     id="metadata3360">
    <rdf:RDF>
      <cc:Work
         rdf:about="">
        <dc:format>image/svg+xml</dc:format>
        <dc:type
           rdf:resource="http://purl.org/dc/dcmitype/StillImage" />
        <dc:title></dc:title>
      </cc:Work>
    </rdf:RDF>
  </metadata>
  <g
     transform="translate(0,995.63782)"
     id="layer1" />
  <g
     transform="translate(336.09854,1016.6882)"
     id="layer1-30"
     style="display:inline">
    <path
       id="path5114-5"
       style="display:inline;fill:#000000;fill-opacity:1;stroke:none;stroke-width:1.20752"
       d="M 448,256 V 544 H 576 V 256 Z m -309,176 -91,91 170,169 90,-90 z m 746,0 -169,170 90,90 170,-169 z M 512,640 c -141.28637,0 -256,114.70847 -256,256 0,141.2915 114.71476,256 256,256 141.28524,0 256,-114.7145 256,-256 C 768,754.71452 653.28637,640 512,640 Z M 0,832 V 960 H 160 V 832 Z m 864,0 v 128 h 160 V 832 Z m -646,268 -170,169 91,91 169,-170 z m 588,0 -90,90 169,170 91,-91 z m -358,148 v 288 h 128 v -288 z"
       transform="translate(-336.09854,-1016.6882)" />
  </g>
  <g
     transform="translate(256,1251.6378)"
     id="layer1-30-6"
     style="display:inline" />
  <g
     transform="matrix(1.2348491,0,0,1,701.17503,1479.4864)"
     id="layer1-30-9"
     style="display:inline" />
  <g
     transform="matrix(0.49231993,-1.4231309,0.94504814,0.32693126,976.40231,689.43432)"
     id="layer1-30-0"
     style="display:inline" />
</svg>
