<?xml version="1.0" encoding="UTF-8" standalone="no"?>
<svg
   xmlns:dc="http://purl.org/dc/elements/1.1/"
   xmlns:cc="http://creativecommons.org/ns#"
   xmlns:rdf="http://www.w3.org/1999/02/22-rdf-syntax-ns#"
   xmlns:svg="http://www.w3.org/2000/svg"
   xmlns="http://www.w3.org/2000/svg"
   version="1.1"
   width="1024"
   height="2048"
   id="svg3355">
  <defs
     id="defs3357" />
  <metadata
     id="metadata3360">
    <rdf:RDF>
      <cc:Work
         rdf:about="">
        <dc:format>image/svg+xml</dc:format>
        <dc:type
           rdf:resource="http://purl.org/dc/dcmitype/StillImage" />
        <dc:title></dc:title>
      </cc:Work>
    </rdf:RDF>
  </metadata>
  <g
     transform="translate(0,995.63782)"
     id="layer1" />
  <g
     transform="translate(336.09854,1016.6882)"
     id="layer1-30"
     style="display:inline">
    <path
       id="path5114-5"
       style="display:inline;fill:#000000;fill-opacity:1;stroke:none"
       d="m 284,256 v 889 c -17.83886,-3.0539 -36.86816,-5 -57,-5 -140.000054,0 -227,75.9975 -227,198 0,122.0025 87.002145,198 227,198 139.99786,0 227,-76 227,-198 V 727 h 400 v 418 c -17.83886,-3.0539 -36.86816,-5 -57,-5 -140.00006,0 -227,75.9976 -227,198 0,122.0025 87.00214,198 227,198 139.99786,0 227,-75.9999 227,-198 V 256 Z M 454,413 H 854 V 570 H 454 Z"
       transform="translate(-336.09854,-1016.6882)" />
  </g>
  <g
     transform="translate(256,1251.6378)"
     id="layer1-30-6"
     style="display:inline" />
  <g
     transform="matrix(1.2348491,0,0,1,701.17503,1479.4864)"
     id="layer1-30-9"
     style="display:inline" />
  <g
     transform="matrix(0.49231993,-1.4231309,0.94504814,0.32693126,976.40231,689.43432)"
     id="layer1-30-0"
     style="display:inline" />
</svg>
