<?xml version="1.0" encoding="UTF-8" standalone="no"?>
<svg
   xmlns:dc="http://purl.org/dc/elements/1.1/"
   xmlns:cc="http://creativecommons.org/ns#"
   xmlns:rdf="http://www.w3.org/1999/02/22-rdf-syntax-ns#"
   xmlns:svg="http://www.w3.org/2000/svg"
   xmlns="http://www.w3.org/2000/svg"
   version="1.1"
   width="1024"
   height="2048"
   id="svg3355">
  <defs
     id="defs3357" />
  <metadata
     id="metadata3360">
    <rdf:RDF>
      <cc:Work
         rdf:about="">
        <dc:format>image/svg+xml</dc:format>
        <dc:type
           rdf:resource="http://purl.org/dc/dcmitype/StillImage" />
        <dc:title></dc:title>
      </cc:Work>
    </rdf:RDF>
  </metadata>
  <path
     id="path3157-2-7-0-6"
     style="display:inline;fill:#000000;fill-opacity:1;stroke:none"
     d="M 0,384 V 1408 H 1024 V 384 Z m 128,128 h 768 v 768 H 128 Z m 208,128 c -44.1827,0 -80,35.81669 -80,80 0,44.18331 35.8179,80 80,80 44.1822,0 80,-35.81683 80,-80 0,-44.18318 -35.8172,-80 -80,-80 z m 352,0 c -44.1827,0 -80,35.81669 -80,80 0,44.18331 35.8179,80 80,80 44.1822,0 80,-35.81683 80,-80 0,-44.18318 -35.8172,-80 -80,-80 z M 336,992 c -44.1827,0 -80,35.8167 -80,80 0,44.1833 35.8179,80 80,80 44.1822,0 80,-35.8169 80,-80 0,-44.1832 -35.8172,-80 -80,-80 z m 352,0 c -44.1827,0 -80,35.8167 -80,80 0,44.1833 35.8179,80 80,80 44.1822,0 80,-35.8168 80,-80 0,-44.1832 -35.8172,-80 -80,-80 z" />
</svg>
