<?xml version="1.0" encoding="UTF-8" standalone="no"?>
<svg
   xmlns:dc="http://purl.org/dc/elements/1.1/"
   xmlns:cc="http://creativecommons.org/ns#"
   xmlns:rdf="http://www.w3.org/1999/02/22-rdf-syntax-ns#"
   xmlns:svg="http://www.w3.org/2000/svg"
   xmlns="http://www.w3.org/2000/svg"
   version="1.1"
   width="1024"
   height="2048"
   id="svg3355">
  <defs
     id="defs3357" />
  <metadata
     id="metadata3360">
    <rdf:RDF>
      <cc:Work
         rdf:about="">
        <dc:format>image/svg+xml</dc:format>
        <dc:type
           rdf:resource="http://purl.org/dc/dcmitype/StillImage" />
        <dc:title></dc:title>
      </cc:Work>
    </rdf:RDF>
  </metadata>
  <path
     id="path3157-2-7-0-6"
     style="display:inline;fill:#000000;fill-opacity:1;stroke:none"
     d="M 0 384 L 0 1408 L 1024 1408 L 1024 384 L 0 384 z M 128 512 L 896 512 L 896 1280 L 128 1280 L 128 512 z M 320 584 C 275.8173 584 240 619.81669 240 664 C 240 708.18331 275.8179 744 320 744 C 364.1822 744 400 708.18317 400 664 C 400 619.81682 364.1828 584 320 584 z M 704 584 C 659.8173 584 624 619.81669 624 664 C 624 708.18331 659.8179 744 704 744 C 748.1822 744 784 708.18317 784 664 C 784 619.81682 748.1828 584 704 584 z M 320 816 C 275.8173 816 240 851.81669 240 896 C 240 940.18331 275.8179 976 320 976 C 364.1822 976 400 940.18317 400 896 C 400 851.81682 364.1828 816 320 816 z M 704 816 C 659.8173 816 624 851.81669 624 896 C 624 940.1833 659.8179 976 704 976 C 748.1822 976 784 940.1832 784 896 C 784 851.81682 748.1828 816 704 816 z M 320 1048 C 275.8173 1048 240 1083.8167 240 1128 C 240 1172.1833 275.8179 1208 320 1208 C 364.1822 1208 400 1172.1831 400 1128 C 400 1083.8168 364.1828 1048 320 1048 z M 704 1048 C 659.8173 1048 624 1083.8167 624 1128 C 624 1172.1833 659.8179 1208 704 1208 C 748.1822 1208 784 1172.1832 784 1128 C 784 1083.8168 748.1828 1048 704 1048 z " />
</svg>
