<?xml version="1.0" encoding="UTF-8" standalone="no"?>
<!-- Created with Inkscape (http://www.inkscape.org/) -->

<svg
   xmlns:dc="http://purl.org/dc/elements/1.1/"
   xmlns:cc="http://creativecommons.org/ns#"
   xmlns:rdf="http://www.w3.org/1999/02/22-rdf-syntax-ns#"
   xmlns:svg="http://www.w3.org/2000/svg"
   xmlns="http://www.w3.org/2000/svg"
   version="1.1"
   width="1024"
   height="2048"
   id="svg3355">
  <defs
     id="defs3357" />
  <metadata
     id="metadata3360">
    <rdf:RDF>
      <cc:Work
         rdf:about="">
        <dc:format>image/svg+xml</dc:format>
        <dc:type
           rdf:resource="http://purl.org/dc/dcmitype/StillImage" />
        <dc:title></dc:title>
      </cc:Work>
    </rdf:RDF>
  </metadata>
  <path
     d="M 512,368 C 225.0034,368 48,501.99788 48,902 c 0,283.0013 260,477 260,477 l -276,0 0,157 378,0 0,-256 c 0,0 -192,-95.0024 -192,-378 0,-282.99762 111.99779,-377 294,-377 182.00221,0 294,93.99842 294,377 0,283.0016 -192,378 -192,378 l 0,256 378,0 0,-157 -276,0 c 0,0 260,-193.9989 260,-477 C 976,502.00188 798.9966,368 512,368 z"
     id="path4946"
     style="fill:#000000;fill-opacity:1;stroke:none;display:inline" />
</svg>
