<?xml version="1.0" encoding="UTF-8" standalone="no"?>
<svg
   xmlns:dc="http://purl.org/dc/elements/1.1/"
   xmlns:cc="http://creativecommons.org/ns#"
   xmlns:rdf="http://www.w3.org/1999/02/22-rdf-syntax-ns#"
   xmlns:svg="http://www.w3.org/2000/svg"
   xmlns="http://www.w3.org/2000/svg"
   version="1.1"
   width="1024"
   height="2048"
   id="svg3355">
  <defs
     id="defs3357" />
  <metadata
     id="metadata3360">
    <rdf:RDF>
      <cc:Work
         rdf:about="">
        <dc:format>image/svg+xml</dc:format>
        <dc:type
           rdf:resource="http://purl.org/dc/dcmitype/StillImage" />
        <dc:title></dc:title>
      </cc:Work>
    </rdf:RDF>
  </metadata>
  <path
     id="path3671-6-1-9-6-7-3-5-9-1-9"
     style="display:inline;fill:#000000;fill-opacity:1;stroke:none;stroke-width:0.564452"
     d="m 341,308 c -56.2928,0 -102,45.7082 -102,102 0,56.2918 45.7049,102 102,102 56.2951,0 102,-45.7004 102,-102 0,-56.2996 -45.7072,-102 -102,-102 z m 342,0 c -56.2928,0 -102,45.7082 -102,102 0,56.2918 45.7049,102 102,102 56.2951,0 102,-45.7004 102,-102 0,-56.2996 -45.7072,-102 -102,-102 z m -342,819 c -56.2928,0 -102,45.7082 -102,102 0,56.2918 45.7049,102 102,102 56.2951,0 102,-45.7004 102,-102 0,-56.2996 -45.7072,-102 -102,-102 z" />
</svg>
