<?xml version="1.0" encoding="UTF-8" standalone="no"?>
<svg
   xmlns:dc="http://purl.org/dc/elements/1.1/"
   xmlns:cc="http://creativecommons.org/ns#"
   xmlns:rdf="http://www.w3.org/1999/02/22-rdf-syntax-ns#"
   xmlns:svg="http://www.w3.org/2000/svg"
   xmlns="http://www.w3.org/2000/svg"
   version="1.1"
   width="1024"
   height="2048"
   id="svg3355">
  <defs
     id="defs3357" />
  <metadata
     id="metadata3360">
    <rdf:RDF>
      <cc:Work
         rdf:about="">
        <dc:format>image/svg+xml</dc:format>
        <dc:type
           rdf:resource="http://purl.org/dc/dcmitype/StillImage" />
        <dc:title></dc:title>
      </cc:Work>
    </rdf:RDF>
  </metadata>
  <path
     id="path3671-6-1-9-6-7-3-5-9-1-9"
     style="display:inline;fill:#000000;fill-opacity:1;stroke:none;stroke-width:0.564452"
     d="M 341 308 C 284.7072 308 239 353.7082 239 410 C 239 466.2918 284.7049 512 341 512 C 397.2951 512 443 466.2996 443 410 C 443 353.7004 397.2928 308 341 308 z M 683 308 C 626.7072 308 581 353.7082 581 410 C 581 466.2918 626.7049 512 683 512 C 739.2951 512 785 466.2996 785 410 C 785 353.7004 739.2928 308 683 308 z M 341 717 C 284.7072 717 239 762.7082 239 819 C 239 875.2918 284.7049 921 341 921 C 397.2951 921 443 875.2996 443 819 C 443 762.7004 397.2928 717 341 717 z M 683 717 C 626.7072 717 581 762.7082 581 819 C 581 875.2918 626.7049 921 683 921 C 739.2951 921 785 875.2996 785 819 C 785 762.7004 739.2928 717 683 717 z M 341 1127 C 284.7072 1127 239 1172.7082 239 1229 C 239 1285.2918 284.7049 1331 341 1331 C 397.2951 1331 443 1285.2996 443 1229 C 443 1172.7004 397.2928 1127 341 1127 z M 683 1127 C 626.7072 1127 581 1172.7082 581 1229 C 581 1285.2918 626.7049 1331 683 1331 C 739.2951 1331 785 1285.2996 785 1229 C 785 1172.7004 739.2928 1127 683 1127 z " />
</svg>
