<?xml version="1.0" encoding="UTF-8" standalone="no"?>
<svg
   xmlns:dc="http://purl.org/dc/elements/1.1/"
   xmlns:cc="http://creativecommons.org/ns#"
   xmlns:rdf="http://www.w3.org/1999/02/22-rdf-syntax-ns#"
   xmlns:svg="http://www.w3.org/2000/svg"
   xmlns="http://www.w3.org/2000/svg"
   version="1.1"
   width="1024"
   height="2048"
   id="svg3355">
  <defs
     id="defs3357" />
  <metadata
     id="metadata3360">
    <rdf:RDF>
      <cc:Work
         rdf:about="">
        <dc:format>image/svg+xml</dc:format>
        <dc:type
           rdf:resource="http://purl.org/dc/dcmitype/StillImage" />
        <dc:title></dc:title>
      </cc:Work>
    </rdf:RDF>
  </metadata>
  <path
     id="path5291-1-6-8-4"
     style="display:inline;fill:#000000;fill-opacity:1;stroke:none"
     d="M 422,95 C 274.00324,95 183,254.00135 183,512 v 74 C 65.946699,651.78603 0,758.53312 0,896 c 0,137.4663 65.94744,244.2139 183,310 v 74 c 0,171.0012 -36.00053,277 -93,277 H 32 v 132 c 0,0 22.00068,8 58,8 147.99609,0 239,-159.0014 239,-417 v -19 c 34.38177,7.7926 71.10816,12.9829 110,16 v 3 c 0,171.0012 -36.00053,277 -93,277 h -58 v 132 c 0,0 22.00068,8 58,8 147.99609,0 239,-159.0014 239,-417 v -3 c 38.89184,-3.017 75.61823,-8.2075 110,-16 v 19 c 0,171.0012 -36.00053,277 -93,277 h -58 v 132 c 0,0 22.00068,8 58,8 147.99609,0 239,-159.0014 239,-417 v -74 c 117.05256,-65.7856 183,-172.5321 183,-310 0,-137.46848 -65.9467,-244.21447 -183,-310 v -74 c 0,-170.99554 35.99603,-277 93,-277 h 58 V 103 c 0,0 -22.001,-8 -58,-8 -147.99676,0 -239,159.00135 -239,417 v 19 c -34.38233,-7.79253 -71.10737,-12.98302 -110,-16 v -3 c 0,-170.99554 35.99603,-277 93,-277 h 58 V 103 c 0,0 -22.00102,-8 -58,-8 -147.99676,0 -239,159.00135 -239,417 v 3 c -38.89263,3.01703 -75.61767,8.20737 -110,16 v -19 c 0,-170.99554 35.99603,-277 93,-277 h 58 V 103 c 0,0 -22.00102,-8 -58,-8 z m 17,548 v 506 c -40.06281,-3.7954 -76.84357,-11.044 -110,-21 V 664 c 33.15673,-9.95644 69.93717,-17.20441 110,-21 z m 146,0 c 40.09276,3.8038 76.86666,11.01507 110,21 v 464 c -33.18054,9.9286 -69.96575,17.2125 -110,21 z M 183,750 v 292 c -35.76417,-39.6507 -55,-88.85246 -55,-146 0,-57.14741 19.23528,-106.34937 55,-146 z m 658,0 c 35.44216,39.56058 54.61497,89.10584 55,146 0.38843,57.39693 -18.91099,107.2603 -55,147 z" />
</svg>
