<?xml version="1.0" encoding="UTF-8" standalone="no"?>
<svg
   xmlns:dc="http://purl.org/dc/elements/1.1/"
   xmlns:cc="http://creativecommons.org/ns#"
   xmlns:rdf="http://www.w3.org/1999/02/22-rdf-syntax-ns#"
   xmlns:svg="http://www.w3.org/2000/svg"
   xmlns="http://www.w3.org/2000/svg"
   version="1.1"
   width="1024"
   height="2048"
   id="svg3355">
  <defs
     id="defs3357" />
  <metadata
     id="metadata3360">
    <rdf:RDF>
      <cc:Work
         rdf:about="">
        <dc:format>image/svg+xml</dc:format>
        <dc:type
           rdf:resource="http://purl.org/dc/dcmitype/StillImage" />
        <dc:title></dc:title>
      </cc:Work>
    </rdf:RDF>
  </metadata>
  <path
     id="path3157-2-7-7-2-6-3"
     style="display:inline;fill:#000000;fill-opacity:1;stroke:none"
     d="M 621,337 570,500 C 508.08495,488.57878 438.67177,483 363,483 H 128 v 157 h 235 c 58.73169,0 111.36722,3.92459 158,13 l -157,499 c -0.47805,6e-4 -0.5212,0 -1,0 H 128 v 157 h 187 l -34,108 122,38 47,-149 C 737.69684,1288.6679 912,1178.6084 912,896 912,705.41584 832.92679,593.27355 693,535 l 50,-160 z m 21,360 c 64.6012,40.05625 100,103.69865 100,199 0,150.5902 -89.61999,222.0128 -241,246 z" />
</svg>
