<?xml version="1.0" encoding="UTF-8" standalone="no"?>
<svg
   xmlns:dc="http://purl.org/dc/elements/1.1/"
   xmlns:cc="http://creativecommons.org/ns#"
   xmlns:rdf="http://www.w3.org/1999/02/22-rdf-syntax-ns#"
   xmlns:svg="http://www.w3.org/2000/svg"
   xmlns="http://www.w3.org/2000/svg"
   version="1.1"
   width="1024"
   height="2048"
   id="svg3355">
  <defs
     id="defs3357" />
  <metadata
     id="metadata3360">
    <rdf:RDF>
      <cc:Work
         rdf:about="">
        <dc:format>image/svg+xml</dc:format>
        <dc:type
           rdf:resource="http://purl.org/dc/dcmitype/StillImage" />
        <dc:title></dc:title>
      </cc:Work>
    </rdf:RDF>
  </metadata>
  <path
     id="path3157-2-7-7-2-6-3"
     style="display:inline;fill:#000000;fill-opacity:1;stroke:none"
     d="M 679,153 615,356 C 288.04564,364.84469 88,471.62347 88,768 c 0,211.05282 101.48515,326.0215 278,378 l -77,244 H 96 v 146 h 147 l -20,64 122,39 32,-103 H 928 V 1390 H 423 l 69,-218 c 52.0376,6.4873 108.71805,9 169,9 H 928 V 1024 H 661 c -43.03357,0 -82.94625,-1.8465 -120,-6 L 700,512 H 928 V 355 H 750 L 801,192 Z M 565,516 415,990 C 314.68377,953.46967 258,884.56123 258,768 258,602.15794 373.22664,532.08836 565,516 Z" />
</svg>
