<?xml version="1.0" encoding="UTF-8" standalone="no"?>
<svg
   xmlns:dc="http://purl.org/dc/elements/1.1/"
   xmlns:cc="http://creativecommons.org/ns#"
   xmlns:rdf="http://www.w3.org/1999/02/22-rdf-syntax-ns#"
   xmlns:svg="http://www.w3.org/2000/svg"
   xmlns="http://www.w3.org/2000/svg"
   version="1.1"
   width="1024"
   height="2048"
   id="svg3355">
  <defs
     id="defs3357" />
  <metadata
     id="metadata3360">
    <rdf:RDF>
      <cc:Work
         rdf:about="">
        <dc:format>image/svg+xml</dc:format>
        <dc:type
           rdf:resource="http://purl.org/dc/dcmitype/StillImage" />
        <dc:title></dc:title>
      </cc:Work>
    </rdf:RDF>
  </metadata>
  <path
     id="path3671-6-1-9-6-7-3"
     style="display:inline;fill:#000000;fill-opacity:1;stroke:none;stroke-width:1"
     d="M 208,512 C 93.00419,512 0,604.99651 0,720 0,835.00349 98.00466,928 256,928 h 32 v 192 h -32 c -157.99534,0 -256,92.9965 -256,208 0,115.0035 93.00419,208 208,208 114.99581,0 208,-98.0007 208,-256 v -32 h 192 v 32 c 0,157.9992 93.00419,256 208,256 114.99581,0 208,-92.9965 208,-208 0,-115.0035 -98.00466,-208 -256,-208 H 736 V 928 h 32 c 157.99534,0 256,-92.99651 256,-208 0,-115.00349 -93.00419,-208 -208,-208 -114.99581,0 -208,98.00074 -208,256 v 32 H 416 V 768 C 416,610.00074 322.99581,512 208,512 Z m 0,128 c 44.00061,0 80,49.00091 80,128 v 32 h -32 c -79.00258,0 -128,-35.99745 -128,-80 0,-44.00255 35.99939,-80 80,-80 z m 608,0 c 44.00061,0 80,35.99745 80,80 0,44.00255 -48.99742,80 -128,80 h -32 v -32 c 0,-78.99909 35.99939,-128 80,-128 z M 416,928 h 192 v 192 H 416 Z m -160,320 h 32 v 32 c 0,78.9991 -35.99939,128 -80,128 -44.00061,0 -80,-35.9975 -80,-80 0,-44.0026 48.99742,-80 128,-80 z m 480,0 h 32 c 79.00258,0 128,35.9974 128,80 0,44.0025 -35.99939,80 -80,80 -44.00061,0 -80,-49.0009 -80,-128 z" />
</svg>
