<?xml version="1.0" encoding="UTF-8" standalone="no"?>
<!-- Created with Inkscape (http://www.inkscape.org/) -->

<svg
   xmlns:dc="http://purl.org/dc/elements/1.1/"
   xmlns:cc="http://creativecommons.org/ns#"
   xmlns:rdf="http://www.w3.org/1999/02/22-rdf-syntax-ns#"
   xmlns:svg="http://www.w3.org/2000/svg"
   xmlns="http://www.w3.org/2000/svg"
   version="1.1"
   width="1024"
   height="2048"
   id="svg3355">
  <defs
     id="defs3357" />
  <metadata
     id="metadata3360">
    <rdf:RDF>
      <cc:Work
         rdf:about="">
        <dc:format>image/svg+xml</dc:format>
        <dc:type
           rdf:resource="http://purl.org/dc/dcmitype/StillImage" />
        <dc:title></dc:title>
      </cc:Work>
    </rdf:RDF>
  </metadata>
  <g
     transform="translate(0,995.63782)"
     id="layer1">
    <path
       d="m 370,-747.63779 c -130.00155,0 -210,16 -210,16 l 0,148.99997 210,-10e-6 c 210.00068,-10e-6 340,43.99811 340,177.00001 0,110.00166 -100.00221,178 -261,178 l -161,0 0,157 173,0 c 174.0025,0 281,87.0013 281,227 0,170.002 -145.0021,227 -379,227 l -235,0 0,149 c 0,0 89.99824,16 235,16 339.00066,0 549,-98.0025 549,-392 0,-259.00277 -202,-324 -202,-324 0,0 170,-48.00194 170,-238 0,-257.00191 -195.00319,-341.99997 -510,-341.99997 z"
       id="path3157-2-7-2-4"
       style="fill:#000000;fill-opacity:1;stroke:none;display:inline" />
  </g>
</svg>
