<?xml version="1.0" encoding="UTF-8" standalone="no"?>
<!-- Created with Inkscape (http://www.inkscape.org/) -->

<svg
   xmlns:dc="http://purl.org/dc/elements/1.1/"
   xmlns:cc="http://creativecommons.org/ns#"
   xmlns:rdf="http://www.w3.org/1999/02/22-rdf-syntax-ns#"
   xmlns:svg="http://www.w3.org/2000/svg"
   xmlns="http://www.w3.org/2000/svg"
   version="1.1"
   width="1024"
   height="2048"
   id="svg3355">
  <defs
     id="defs3357" />
  <metadata
     id="metadata3360">
    <rdf:RDF>
      <cc:Work
         rdf:about="">
        <dc:format>image/svg+xml</dc:format>
        <dc:type
           rdf:resource="http://purl.org/dc/dcmitype/StillImage" />
        <dc:title></dc:title>
      </cc:Work>
    </rdf:RDF>
  </metadata>
  <g
     transform="translate(0,995.63782)"
     id="layer1" />
  <path
     d="m 416,504.00004 c -118.9986,0 -192,16 -192,16 l 0,149 192,0 c 232.99575,0 310,43.00483 310,171 l 0,105 -274,0 c -210.00138,0 -340,100.00056 -340,262.99996 0,202.9998 169.99622,328 444,328 l 340,0 0,-695.99996 c 0,-252.00175 -119.99888,-336 -480,-336 z M 452,1103 l 274,0 0,276 -170,0 c -169.00278,0 -274,-65.0013 -274,-171 0,-64.9981 65.00205,-105 170,-105 z"
     id="path3157-2-7-7-2-8-2-3-1-1-3-3"
     style="fill:#000000;fill-opacity:1;stroke:none;display:inline" />
</svg>
