<?xml version="1.0" encoding="UTF-8" standalone="no"?>
<!-- Created with Inkscape (http://www.inkscape.org/) -->

<svg
   xmlns:dc="http://purl.org/dc/elements/1.1/"
   xmlns:cc="http://creativecommons.org/ns#"
   xmlns:rdf="http://www.w3.org/1999/02/22-rdf-syntax-ns#"
   xmlns:svg="http://www.w3.org/2000/svg"
   xmlns="http://www.w3.org/2000/svg"
   version="1.1"
   width="1024"
   height="2048"
   id="svg3355">
  <defs
     id="defs3357" />
  <metadata
     id="metadata3360">
    <rdf:RDF>
      <cc:Work
         rdf:about="">
        <dc:format>image/svg+xml</dc:format>
        <dc:type
           rdf:resource="http://purl.org/dc/dcmitype/StillImage" />
        <dc:title></dc:title>
      </cc:Work>
    </rdf:RDF>
  </metadata>
  <g
     transform="translate(0,995.63782)"
     id="layer1" />
  <path
     d="M 128,256.00004 128,1536 l 256,0 c 345.9985,0 559.99996,-95.9979 559.99996,-384 C 943.99996,893.00194 678,828.00001 678,828.00001 c 0,0 169.99996,-48.00304 169.99996,-238 C 847.99996,347.00464 670.9966,256.00004 384,256.00004 z m 170,157 86,0 c 182.0009,0 294,68.00426 294,176.99997 0,108.99571 -111.9962,178 -294,178 l -86,0 z m 0,511.99997 86,0 c 240.9962,0 389.99996,41.00139 389.99996,226.99999 0,185.9986 -149.00196,227 -389.99996,227 l -86,0 z"
     id="path3157-2-7-3-2"
     style="fill:#000000;fill-opacity:1;stroke:none;display:inline" />
</svg>
