<?xml version="1.0" encoding="UTF-8" standalone="no"?>
<!-- Created with Inkscape (http://www.inkscape.org/) -->

<svg
   xmlns:dc="http://purl.org/dc/elements/1.1/"
   xmlns:cc="http://creativecommons.org/ns#"
   xmlns:rdf="http://www.w3.org/1999/02/22-rdf-syntax-ns#"
   xmlns:svg="http://www.w3.org/2000/svg"
   xmlns="http://www.w3.org/2000/svg"
   version="1.1"
   width="1024"
   height="2048"
   id="svg3355">
  <defs
     id="defs3357" />
  <metadata
     id="metadata3360">
    <rdf:RDF>
      <cc:Work
         rdf:about="">
        <dc:format>image/svg+xml</dc:format>
        <dc:type
           rdf:resource="http://purl.org/dc/dcmitype/StillImage" />
        <dc:title></dc:title>
      </cc:Work>
    </rdf:RDF>
  </metadata>
  <g
     transform="matrix(-0.85882353,0,0,-1,978.53437,808.70946)"
     id="layer1-4" />
  <path
     d="m 512,239.99997 c -348.00336,0 -464,156.0011 -464,599 0,404.76323 96.8354,566.57983 379,591.50003 l 0,262.5 170,0 0,-262.5 c 282.1646,-24.9197 378.99997,-186.7335 378.99997,-591.50003 0,-443.00259 -115.99661,-599 -463.99997,-599 z m 0,157 c 221.00169,0 294,109.99733 294,442 0,297.59893 -58.67289,410.38193 -230,430.56253 l 0,-430.56253 -128,0 0,430.53123 C 276.99196,1249.3337 219.59423,1136.5665 218,838.99997 c -1.77871,-331.9999 72.99831,-442 294,-442 z"
     id="path3127-7-70"
     style="fill:#000000;fill-opacity:1;stroke:none;display:inline" />
</svg>
