<?xml version="1.0" encoding="UTF-8" standalone="no"?>
<!-- Created with Inkscape (http://www.inkscape.org/) -->

<svg
   xmlns:dc="http://purl.org/dc/elements/1.1/"
   xmlns:cc="http://creativecommons.org/ns#"
   xmlns:rdf="http://www.w3.org/1999/02/22-rdf-syntax-ns#"
   xmlns:svg="http://www.w3.org/2000/svg"
   xmlns="http://www.w3.org/2000/svg"
   version="1.1"
   width="1024"
   height="2048"
   id="svg3355">
  <defs
     id="defs3357" />
  <metadata
     id="metadata3360">
    <rdf:RDF>
      <cc:Work
         rdf:about="">
        <dc:format>image/svg+xml</dc:format>
        <dc:type
           rdf:resource="http://purl.org/dc/dcmitype/StillImage" />
        <dc:title></dc:title>
      </cc:Work>
    </rdf:RDF>
  </metadata>
  <path
     d="m 427,99.00002 0,263 c -198.95344,32.09511 -315,119.66607 -315,297 0,190.6189 171.81914,247.0913 336,291 L 448,1280 l -320,0 0,149 c 0,0 90.00453,16 235,16 40.0044,0 64,-1 64,-1 l 0,249 170,0 0,-265 C 795.89049,1394.4366 912,1306.9854 912,1133 912,942.38052 740.1809,885.90852 576,842.00002 l 0,-330 288,0 0,-149 c 0,0 -85.00261,-16 -222,-16 -26.9991,0 -45,1 -45,1 l 0,-249 z m 21,427 0,281 c -94.66066,-29.78258 -166,-68.25071 -166,-148 0,-72.8693 60.57699,-113.73553 166,-133 z m 128,459 c 94.6607,29.78268 166,68.25088 166,147.99998 0,70.9595 -60.35821,111.1325 -166,131 z"
     id="path3157-2-7-7-2-8-2-3-1-8-0-7-4"
     style="fill:#000000;fill-opacity:1;stroke:none;display:inline" />
</svg>
