<?xml version="1.0" encoding="UTF-8" standalone="no"?>
<!-- Created with Inkscape (http://www.inkscape.org/) -->

<svg
   xmlns:dc="http://purl.org/dc/elements/1.1/"
   xmlns:cc="http://creativecommons.org/ns#"
   xmlns:rdf="http://www.w3.org/1999/02/22-rdf-syntax-ns#"
   xmlns:svg="http://www.w3.org/2000/svg"
   xmlns="http://www.w3.org/2000/svg"
   version="1.1"
   width="1024"
   height="2048"
   id="svg3355">
  <defs
     id="defs3357" />
  <metadata
     id="metadata3360">
    <rdf:RDF>
      <cc:Work
         rdf:about="">
        <dc:format>image/svg+xml</dc:format>
        <dc:type
           rdf:resource="http://purl.org/dc/dcmitype/StillImage" />
        <dc:title></dc:title>
      </cc:Work>
    </rdf:RDF>
  </metadata>
  <g
     transform="translate(0,995.63782)"
     id="layer1">
    <path
       d="m 244,-739.63777 0,328.99995 -180,3e-5 0,145.99996 180,4e-5 0,329.999982 -180,0 0,145.999998 180,0 0,328.99999 146,0 0,-328.99999 244,0 0,328.99999 146,0 0,-328.99999 180,0 0,-145.999998 -180,0 0,-330.000012 180,-2e-5 0,-145.99995 -180,-4e-5 0,-329.00004 -146,0 0,329.00004 -244,0 0,-329.00004 z m 390,474.99997 0,329.999992 -244,0 0,-330.000012 z"
       id="path5114-5-2-4"
       style="fill:#000000;fill-opacity:1;stroke:none;display:inline" />
  </g>
</svg>
