<?xml version="1.0" encoding="UTF-8" standalone="no"?>
<svg
   xmlns:dc="http://purl.org/dc/elements/1.1/"
   xmlns:cc="http://creativecommons.org/ns#"
   xmlns:rdf="http://www.w3.org/1999/02/22-rdf-syntax-ns#"
   xmlns:svg="http://www.w3.org/2000/svg"
   xmlns="http://www.w3.org/2000/svg"
   id="svg3355"
   height="2048"
   width="1024"
   version="1.1">
  <defs
     id="defs3357" />
  <metadata
     id="metadata3360">
    <rdf:RDF>
      <cc:Work
         rdf:about="">
        <dc:format>image/svg+xml</dc:format>
        <dc:type
           rdf:resource="http://purl.org/dc/dcmitype/StillImage" />
        <dc:title></dc:title>
      </cc:Work>
    </rdf:RDF>
  </metadata>
  <path
     style="display:inline;fill:#000000;fill-opacity:1;stroke:none"
     id="path7165-4-7"
     d="m 960.00001,654.99999 -111,-111 c 0,0 -65.0029,161.9009 -171,161.9009 -105.9971,0 -212.9993,-161.9009 -366.00001,-161.9009 -153.0007,0 -248.000005,209 -248.000005,209 L 175,864.00001 c 0,0 64.9968,-160.00002 171,-160.00002 106.00331,0 213.00441,160.00002 366.00001,160.00002 152.9956,0 248,-209.00002 248,-209.00002 z" />
  <path
     d="M 960,1039 849,927.99999 c 0,0 -65.0029,161.90091 -171,161.90091 -105.99709,0 -212.99929,-161.90091 -366,-161.90091 C 158.99931,927.99999 63.999995,1137 63.999995,1137 L 175,1248 c 0,0 64.9968,-160 171,-160 106.00331,0 213.00441,160 366,160 152.9956,0 248,-209 248,-209 z"
     id="path7165-4-7-5"
     style="display:inline;fill:#000000;fill-opacity:1;stroke:none" />
</svg>
