<?xml version="1.0" encoding="UTF-8" standalone="no"?>
<svg
   xmlns:dc="http://purl.org/dc/elements/1.1/"
   xmlns:cc="http://creativecommons.org/ns#"
   xmlns:rdf="http://www.w3.org/1999/02/22-rdf-syntax-ns#"
   xmlns:svg="http://www.w3.org/2000/svg"
   xmlns="http://www.w3.org/2000/svg"
   version="1.1"
   width="1024"
   height="2048"
   id="svg3355">
  <defs
     id="defs3357" />
  <metadata
     id="metadata3360">
    <rdf:RDF>
      <cc:Work
         rdf:about="">
        <dc:format>image/svg+xml</dc:format>
        <dc:type
           rdf:resource="http://purl.org/dc/dcmitype/StillImage" />
        <dc:title></dc:title>
      </cc:Work>
    </rdf:RDF>
  </metadata>
  <path
     d="m 408,891.99995 c -94.00152,0 -152,8 -152,8 V 1028 h 152 c 185.00111,0 246,27.9968 246,114 v 70 H 469 c -156.00192,0 -253,78.0006 -253,205 0,153 96.99764,247 253,247 h 185 c 89.99779,0 146,-51.9986 146,-136 V 1142 C 800,953.99668 702.0013,891.99995 408,891.99995 Z M 469,1348 h 185 v 180 H 469 c -66.00028,0 -107,-41.9985 -107,-111 0,-43.0004 41.00242,-69 107,-69 z"
     id="path3127-7-9-4-5-2"
     style="display:inline;fill:#000000;fill-opacity:1;stroke:none" />
</svg>
