<?xml version="1.0" encoding="UTF-8" standalone="no"?>
<svg
   xmlns:dc="http://purl.org/dc/elements/1.1/"
   xmlns:cc="http://creativecommons.org/ns#"
   xmlns:rdf="http://www.w3.org/1999/02/22-rdf-syntax-ns#"
   xmlns:svg="http://www.w3.org/2000/svg"
   xmlns="http://www.w3.org/2000/svg"
   version="1.1"
   width="1024"
   height="2048"
   id="svg3355">
  <defs
     id="defs3357" />
  <metadata
     id="metadata3360">
    <rdf:RDF>
      <cc:Work
         rdf:about="">
        <dc:format>image/svg+xml</dc:format>
        <dc:type
           rdf:resource="http://purl.org/dc/dcmitype/StillImage" />
        <dc:title></dc:title>
      </cc:Work>
    </rdf:RDF>
  </metadata>
  <g
     transform="translate(0,995.63782)"
     id="layer1" />
  <path
     id="path3157-2-7-7-2-8-2-3-1-8-2"
     style="display:inline;fill:#000000;fill-opacity:1;stroke:none"
     d="m 508,128 -18,145 c -237.69636,71.72594 -378,296.47222 -378,623 0,306.5652 84.16759,484.613 232,574 l -24,194 h 129 l 18,-143 c 39.65889,10.6035 81.75522,16.6542 127,20 l -15,123 h 129 l 15,-121 c 108.51528,-3.3593 173,-15 173,-15 V 1379 H 743 L 861,413 h 35 V 264 c 0,0 -5.31106,-1.47509 -16,-3 L 896,128 H 767 l -15,122 c -26.05052,-1.23623 -55.11513,-2 -87,-2 -14.5242,0 -28.95445,0.11276 -43,1 l 15,-121 z m 157,285 h 67 l -118,964 c -46.46148,-4.0226 -88.49116,-14.0391 -126,-31 L 602,418 c 20.33255,-3.24323 41.02455,-5 63,-5 z m -199,58 -95,777 c -52.3523,-76.2244 -81,-190.138 -81,-352 0,-200.14737 64.0446,-348.60742 176,-425 z" />
</svg>
