<?xml version="1.0" encoding="UTF-8" standalone="no"?>
<svg
   xmlns:dc="http://purl.org/dc/elements/1.1/"
   xmlns:cc="http://creativecommons.org/ns#"
   xmlns:rdf="http://www.w3.org/1999/02/22-rdf-syntax-ns#"
   xmlns:svg="http://www.w3.org/2000/svg"
   xmlns="http://www.w3.org/2000/svg"
   version="1.1"
   width="1024"
   height="2048"
   id="svg3355">
  <defs
     id="defs3357" />
  <metadata
     id="metadata3360">
    <rdf:RDF>
      <cc:Work
         rdf:about="">
        <dc:format>image/svg+xml</dc:format>
        <dc:type
           rdf:resource="http://purl.org/dc/dcmitype/StillImage" />
        <dc:title></dc:title>
      </cc:Work>
    </rdf:RDF>
  </metadata>
  <path
     id="path3157-2-7-7-2-8-2-3-1-1-3-33-4-3-7-8"
     style="display:inline;fill:#000000;fill-opacity:1;stroke:none"
     d="M 32,256 V 1536 H 202 V 925 h 78 l 123,611 h 270 c 201.99514,0 327,-65.9992 327,-292 0,-347.99797 -222,-219.997 -222,-439 0,-101.9988 50.00035,-136 132,-136 h 82 V 520 c 0,0 -31.00288,-16 -82,-16 -186.99698,0 -302,74.99964 -302,301 0,346.9969 222,219.0001 222,439 0,101.9953 -59.9981,135 -157,135 H 544 L 446,887 C 529.07051,839.6834 576,745.61748 576,590 576,339.00198 480.99887,256 328,256 Z m 170,157 h 126 c 48.00355,0 78,43.99854 78,177 0,133.00146 -48.00382,178 -126,178 h -78 z" />
  <g
     transform="translate(827.18605,995.63782)"
     id="layer1" />
</svg>
