<?xml version="1.0" encoding="UTF-8" standalone="no"?>
<svg
   xmlns:dc="http://purl.org/dc/elements/1.1/"
   xmlns:cc="http://creativecommons.org/ns#"
   xmlns:rdf="http://www.w3.org/1999/02/22-rdf-syntax-ns#"
   xmlns:svg="http://www.w3.org/2000/svg"
   xmlns="http://www.w3.org/2000/svg"
   version="1.1"
   width="1024"
   height="2048"
   id="svg3355">
  <defs
     id="defs3357" />
  <metadata
     id="metadata3360">
    <rdf:RDF>
      <cc:Work
         rdf:about="">
        <dc:format>image/svg+xml</dc:format>
        <dc:type
           rdf:resource="http://purl.org/dc/dcmitype/StillImage" />
        <dc:title></dc:title>
      </cc:Work>
    </rdf:RDF>
  </metadata>
  <g
     transform="translate(0,995.63782)"
     id="layer1" />
  <path
     id="path3157-2-7-7-2-8-2-3-1-8-2"
     style="display:inline;fill:#000000;fill-opacity:1;stroke:none"
     d="M 665,248 C 396.54587,248 208.32963,400.81693 140,660 H 32 v 157 h 83 c -1.90378,25.62125 -3,51.95992 -3,79 0,27.35335 0.67747,53.67047 2,79 H 32 v 157 h 101 c 61.07238,304.0341 252.82109,412 532,412 143.0026,0 231,-16 231,-16 V 1379 H 665 c -171.54991,0 -294.60739,-66.168 -347,-247 H 768 V 975 H 292 c -1.65415,-24.95705 -2,-51.26822 -2,-79 0,-27.31209 1.65475,-53.65957 4,-79 H 768 V 660 H 327 C 383.63269,503.23591 502.53968,413 665,413 H 896 V 264 c 0,0 -88.0029,-16 -231,-16 z" />
</svg>
