<?xml version="1.0" encoding="UTF-8" standalone="no"?>
<svg
   xmlns:dc="http://purl.org/dc/elements/1.1/"
   xmlns:cc="http://creativecommons.org/ns#"
   xmlns:rdf="http://www.w3.org/1999/02/22-rdf-syntax-ns#"
   xmlns:svg="http://www.w3.org/2000/svg"
   xmlns="http://www.w3.org/2000/svg"
   version="1.1"
   width="1024"
   height="2048"
   id="svg3355">
  <defs
     id="defs3357" />
  <metadata
     id="metadata3360">
    <rdf:RDF>
      <cc:Work
         rdf:about="">
        <dc:format>image/svg+xml</dc:format>
        <dc:type
           rdf:resource="http://purl.org/dc/dcmitype/StillImage" />
        <dc:title></dc:title>
      </cc:Work>
    </rdf:RDF>
  </metadata>
  <path
     id="path3157-2-7-7-2-8-2-3-1-1-3-33-4-3-6-5"
     style="display:inline;fill:#000000;fill-opacity:1;stroke:none"
     d="M 160,256 V 531 H 32 V 659 H 160 V 778 H 32 v 128 h 128 v 630 h 170 v -355 h 170 c 207.50212,0 355.45415,-101.5106 415,-275 h 77 V 778 h -51 c 1.73484,-19.42041 3,-39.42612 3,-60 0,-20.2319 -0.7166,-39.89244 -2,-59 h 50 V 531 H 922 C 876.59036,357.26919 763.29269,256 604,256 Z m 170,157 h 274 c 63.56031,0 112.2993,42.52084 141,118 H 330 Z m 0,246 h 442 c 1.50463,18.7678 2,38.45094 2,59 0,20.90257 -1.48695,40.91972 -4,60 H 330 Z m 0,247 h 397 c -46.35755,75.35877 -124.99164,118 -227,118 H 330 Z" />
</svg>
