<?xml version="1.0" encoding="UTF-8" standalone="no"?>
<svg
   xmlns:dc="http://purl.org/dc/elements/1.1/"
   xmlns:cc="http://creativecommons.org/ns#"
   xmlns:rdf="http://www.w3.org/1999/02/22-rdf-syntax-ns#"
   xmlns:svg="http://www.w3.org/2000/svg"
   xmlns="http://www.w3.org/2000/svg"
   version="1.1"
   width="1024"
   height="2048"
   id="svg3355">
  <defs
     id="defs3357" />
  <metadata
     id="metadata3360">
    <rdf:RDF>
      <cc:Work
         rdf:about="">
        <dc:format>image/svg+xml</dc:format>
        <dc:type
           rdf:resource="http://purl.org/dc/dcmitype/StillImage" />
        <dc:title></dc:title>
      </cc:Work>
    </rdf:RDF>
  </metadata>
  <path
     id="path3157-2-7-7-2-8-2-3-1-8-2-6-4-3"
     style="display:inline;fill:#000000;fill-opacity:1;stroke:none"
     d="M 427,128 V 282 C 199.20172,362.5228 80,582.46393 80,896 c 0,405.3619 129.40285,585.4414 347,634 v 134 h 170 v -120 c 205.30753,-5.8826 331,-75.0431 331,-264 V 768 H 597 V 415 c 13.90318,-1.2113 28.23237,-2 43,-2 H 896 V 264 c 0,0 -104.99788,-16 -256,-16 -14.60905,0 -28.94044,0.21586 -43,1 V 128 Z m 0,344 v 885 C 320.05437,1301.2904 258,1162.863 258,896 258,696.77594 313.94116,548.70304 427,472 Z m 170,453 h 161 v 355 c 10e-6,72.9771 -60.76367,101.4925 -161,106 z" />
</svg>
