<?xml version="1.0" encoding="UTF-8" standalone="no"?>
<svg
   xmlns:dc="http://purl.org/dc/elements/1.1/"
   xmlns:cc="http://creativecommons.org/ns#"
   xmlns:rdf="http://www.w3.org/1999/02/22-rdf-syntax-ns#"
   xmlns:svg="http://www.w3.org/2000/svg"
   xmlns="http://www.w3.org/2000/svg"
   version="1.1"
   width="1024"
   height="2048"
   id="svg3355">
  <defs
     id="defs3357" />
  <metadata
     id="metadata3360">
    <rdf:RDF>
      <cc:Work
         rdf:about="">
        <dc:format>image/svg+xml</dc:format>
        <dc:type
           rdf:resource="http://purl.org/dc/dcmitype/StillImage" />
        <dc:title></dc:title>
      </cc:Work>
    </rdf:RDF>
  </metadata>
  <g
     transform="translate(0,995.63782)"
     id="layer1" />
  <path
     id="path3157-2-7-7-2-8-2-3-1-8-2"
     style="display:inline;fill:#000000;fill-opacity:1;stroke:none"
     d="M 665,248 C 284.00489,248 48,496.00356 48,896 c 0,486.0034 235.99622,648 617,648 143.0026,0 231,-16 231,-16 V 1379 H 665 c -81.09149,0 -153.8855,-9.2284 -217,-29 V 451 c 63.11424,-25.1967 135.90839,-38 217,-38 H 896 V 264 c 0,0 -88.0029,-16 -231,-16 z M 320,530 v 754 C 227.46707,1209.4188 176,1085.9054 176,896 176,739.14376 227.46685,613.59667 320,530 Z" />
</svg>
