<?xml version="1.0" encoding="UTF-8" standalone="no"?>
<!-- Created with Inkscape (http://www.inkscape.org/) -->

<svg
   xmlns:dc="http://purl.org/dc/elements/1.1/"
   xmlns:cc="http://creativecommons.org/ns#"
   xmlns:rdf="http://www.w3.org/1999/02/22-rdf-syntax-ns#"
   xmlns:svg="http://www.w3.org/2000/svg"
   xmlns="http://www.w3.org/2000/svg"
   version="1.1"
   width="1024"
   height="2048"
   id="svg3355">
  <defs
     id="defs3357" />
  <metadata
     id="metadata3360">
    <rdf:RDF>
      <cc:Work
         rdf:about="">
        <dc:format>image/svg+xml</dc:format>
        <dc:type
           rdf:resource="http://purl.org/dc/dcmitype/StillImage" />
        <dc:title></dc:title>
      </cc:Work>
    </rdf:RDF>
  </metadata>
  <g
     transform="translate(0,995.63782)"
     id="layer1" />
  <g
     transform="matrix(0.48794232,0,0,1,32.578769,995.6378)"
     id="layer1-77-9"
     style="display:inline" />
  <path
     d="M 512,240 C 214.99925,240 32,463.00139 32,824 c 0,360.9986 183.00039,584 480,584 296.99959,0 479.99995,-223.0015 479.99995,-584 C 991.99995,463.00155 809.00076,240 512,240 z m 0,128 c 212.99509,0 344,174.00085 344,456 0,281.9991 -131.00047,456 -344,456 C 299.00047,1280 168,1105.9971 168,824 168,542.00294 299.0049,368 512,368 z M 288,510.99999 288,1137 l 136,0 0,-250 73,0 c 157.99752,0 255.00004,-71.9954 255.00004,-188 0,-116.00459 -80.0005,-188.00001 -209.00004,-188.00001 z m 136,119.99997 119,0 c 45.00415,0 73,26.00094 73,68.00004 0,41.9991 -44.99519,67.99996 -119,67.99996 l -73,0 z"
     id="path3157-2-7-7-2-8-2-3-1-1-3-33-4-3-7-5"
     style="fill:#000000;fill-opacity:1;stroke:none;display:inline" />
</svg>
