<?xml version="1.0" encoding="UTF-8" standalone="no"?>
<!-- Created with Inkscape (http://www.inkscape.org/) -->

<svg
   xmlns:dc="http://purl.org/dc/elements/1.1/"
   xmlns:cc="http://creativecommons.org/ns#"
   xmlns:rdf="http://www.w3.org/1999/02/22-rdf-syntax-ns#"
   xmlns:svg="http://www.w3.org/2000/svg"
   xmlns="http://www.w3.org/2000/svg"
   version="1.1"
   width="1024"
   height="2048"
   id="svg3355">
  <defs
     id="defs3357" />
  <metadata
     id="metadata3360">
    <rdf:RDF>
      <cc:Work
         rdf:about="">
        <dc:format>image/svg+xml</dc:format>
        <dc:type
           rdf:resource="http://purl.org/dc/dcmitype/StillImage" />
        <dc:title></dc:title>
      </cc:Work>
    </rdf:RDF>
  </metadata>
  <path
     d="M 222,256 0,640 l 0,128 244,0 0,128 128,0 0,-128 76,0 0,-128 -76,0 0,-384 z m 581,0 -739,1280 157,0 739,-1280 z m -559,183 0,201 -116,0 z m 364,457 0,384 189,0 c 61.00137,0 99,24.0041 99,64 0,48.004 -75.99504,64 -198,64 l -122,0 0,124 c 0,0 46.99794,8 122,8 200.99639,0 326,-49.0028 326,-196 0,-118.9965 -87.00219,-192 -227,-192 l -61,0 0,-128 256,0 0,-128 z"
     id="path3918-2"
     style="fill:#000000;fill-opacity:1;stroke:none;display:inline" />
</svg>
