<?xml version="1.0" encoding="UTF-8" standalone="no"?>
<!-- Created with Inkscape (http://www.inkscape.org/) -->

<svg
   xmlns:dc="http://purl.org/dc/elements/1.1/"
   xmlns:cc="http://creativecommons.org/ns#"
   xmlns:rdf="http://www.w3.org/1999/02/22-rdf-syntax-ns#"
   xmlns:svg="http://www.w3.org/2000/svg"
   xmlns="http://www.w3.org/2000/svg"
   version="1.1"
   width="1024"
   height="2048"
   id="svg3355">
  <defs
     id="defs3357" />
  <metadata
     id="metadata3360">
    <rdf:RDF>
      <cc:Work
         rdf:about="">
        <dc:format>image/svg+xml</dc:format>
        <dc:type
           rdf:resource="http://purl.org/dc/dcmitype/StillImage" />
        <dc:title></dc:title>
      </cc:Work>
    </rdf:RDF>
  </metadata>
  <path
     d="m 153,252 c -54.99795,0 -89,8 -89,8 l 0,116 89,0 c 88.00486,0 143,16.9987 143,68 0,51.0012 -40.00442,68 -104,68 l -64,0 0,120 70,0 c 70.0024,0 114,18.00325 114,72 0,53.99675 -66.00186,72 -173,72 l -107,0 0,116 c 0,0 41.00197,8 107,8 191.00113,0 309,-51.9986 309,-196 C 448,594.00358 312,558 312,558 312,558 432,530.0029 432,444 432,303.0013 324.99683,252 153,252 z m 650,4 -739,1280 157,0 739,-1280 -157,0 z m -195,640 0,384 189,0 c 61.0014,0 99,24.0041 99,64 0,48.004 -75.995,64 -198,64 l -122,0 0,124 c 0,0 46.9979,8 122,8 200.9964,0 326,-49.0028 326,-196 0,-118.9965 -87.0022,-192 -227,-192 l -61,0 0,-128 256,0 0,-128 -384,0 z"
     id="path3665"
     style="fill:#000000;fill-opacity:1;stroke:none;display:inline" />
</svg>
