<?xml version="1.0" encoding="UTF-8" standalone="no"?>
<!-- Created with Inkscape (http://www.inkscape.org/) -->

<svg
   xmlns:dc="http://purl.org/dc/elements/1.1/"
   xmlns:cc="http://creativecommons.org/ns#"
   xmlns:rdf="http://www.w3.org/1999/02/22-rdf-syntax-ns#"
   xmlns:svg="http://www.w3.org/2000/svg"
   xmlns="http://www.w3.org/2000/svg"
   version="1.1"
   width="1024"
   height="2048"
   id="svg3355">
  <defs
     id="defs3357" />
  <metadata
     id="metadata3360">
    <rdf:RDF>
      <cc:Work
         rdf:about="">
        <dc:format>image/svg+xml</dc:format>
        <dc:type
           rdf:resource="http://purl.org/dc/dcmitype/StillImage" />
        <dc:title></dc:title>
      </cc:Work>
    </rdf:RDF>
  </metadata>
  <g
     transform="translate(0,995.63782)"
     id="layer1" />
  <path
     d="M 128,511.99999 128,1024 c 0,273.0001 -32.0043,363 -128,363 l 0,157 c 224.0041,0 298,-129.9967 298,-520 l 0,-355.00001 129,0 0,867.00001 170,0 c 234.0031,0 379.00003,-73.9994 379.00003,-295 C 976.00003,1019.9994 831.0026,945.99999 597,945.99999 l 0,-434 z M 806,1241 c 0,104.0021 -80.0026,138 -209,138 l 0,-276 c 128.9981,0 209,33.9979 209,138 z"
     id="path3157-2-7-7-21-4-8-3-0-7"
     style="fill:#000000;fill-opacity:1;stroke:none;display:inline" />
</svg>
