<?xml version="1.0" encoding="UTF-8" standalone="no"?>
<svg
   xmlns:dc="http://purl.org/dc/elements/1.1/"
   xmlns:cc="http://creativecommons.org/ns#"
   xmlns:rdf="http://www.w3.org/1999/02/22-rdf-syntax-ns#"
   xmlns:svg="http://www.w3.org/2000/svg"
   xmlns="http://www.w3.org/2000/svg"
   id="svg3355"
   height="2048"
   width="1024"
   version="1.1">
  <defs
     id="defs3357" />
  <metadata
     id="metadata3360">
    <rdf:RDF>
      <cc:Work
         rdf:about="">
        <dc:format>image/svg+xml</dc:format>
        <dc:type
           rdf:resource="http://purl.org/dc/dcmitype/StillImage" />
        <dc:title></dc:title>
      </cc:Work>
    </rdf:RDF>
  </metadata>
  <g
     id="layer1"
     transform="translate(0,995.63782)" />
  <path
     style="display:inline;fill:#000000;fill-opacity:1;stroke:none"
     id="path3157-2-7-7-2-8-2-6-1-8-2-0"
     d="M 428,0 C 302.00402,0 224,55.997415 224,224 h 120 c 0,-68.99677 2e-5,-112 84,-112 141.99791,0 142.0026,112 372,112 V 112 C 613.9985,112 569.99621,0 428,0 Z M 400,240 V 342 H 522 V 496 H 624 V 240 Z m -59,7.99997 C 120.99873,247.99997 48,415.9961 48,896 c 0,480.0039 73.0022,656 293,656 136.99732,0 171,-97 171,-97 0,0 33.99789,97 171,97 220.00182,0 292.99996,-176.004 292.99996,-656 0,-479.99604 -73.0021,-648.00003 -292.99996,-648.00003 v 157 c 90.99903,0 121,128.99905 121,491.00003 0,362.0009 -30.00284,499 -121,499 -65.00102,0 -86,-43.9952 -86,-115 H 427 c 0,70.9965 -20.99817,115 -86,115 -91.0032,0 -121,-137.0013 -121,-499 0,-361.9987 29.99841,-491.00003 121,-491.00003 z" />
</svg>
