<?xml version="1.0" encoding="UTF-8" standalone="no"?>
<svg
   xmlns:dc="http://purl.org/dc/elements/1.1/"
   xmlns:cc="http://creativecommons.org/ns#"
   xmlns:rdf="http://www.w3.org/1999/02/22-rdf-syntax-ns#"
   xmlns:svg="http://www.w3.org/2000/svg"
   xmlns="http://www.w3.org/2000/svg"
   id="svg3355"
   height="2048"
   width="1024"
   version="1.1">
  <defs
     id="defs3357" />
  <metadata
     id="metadata3360">
    <rdf:RDF>
      <cc:Work
         rdf:about="">
        <dc:format>image/svg+xml</dc:format>
        <dc:type
           rdf:resource="http://purl.org/dc/dcmitype/StillImage" />
        <dc:title></dc:title>
      </cc:Work>
    </rdf:RDF>
  </metadata>
  <g
     id="layer1"
     transform="translate(0,995.63782)" />
  <path
     style="display:inline;fill:#000000;fill-opacity:1;stroke:none"
     id="path5163"
     d="m 128,0 90,256 h 32 l 48,-136 h 150 l 48,136 h 32 l 48,-136 h 150 l 48,136 h 32 L 896,0 Z m 256,247.99996 c -252.00118,0 -336,167.99613 -336,648 C 48,1376.0039 120.9956,1552 341,1552 c 170.99898,0 171,-272 171,-272 0,0 -0.002,272 171,272 220.0006,0 293,-176.004 293,-656.00004 0,-479.99601 -84.0029,-648 -336,-648 v 157 c 122.9997,0 164,128.99905 164,491 C 804,1258.0009 774.0033,1395 683,1395 c -64.99763,0 -86,-127.9995 -86,-334 V 895.99996 H 427 V 1061 c 0,206.0023 -20.99528,334 -86,334 -90.99789,0 -121,-137.0013 -121,-499.00004 0,-361.99867 41.00022,-491 164,-491 z" />
</svg>
