<?xml version="1.0" encoding="UTF-8" standalone="no"?>
<!-- Created with Inkscape (http://www.inkscape.org/) -->

<svg
   xmlns:dc="http://purl.org/dc/elements/1.1/"
   xmlns:cc="http://creativecommons.org/ns#"
   xmlns:rdf="http://www.w3.org/1999/02/22-rdf-syntax-ns#"
   xmlns:svg="http://www.w3.org/2000/svg"
   xmlns="http://www.w3.org/2000/svg"
   version="1.1"
   width="1024"
   height="2048"
   id="svg3355">
  <defs
     id="defs3357" />
  <metadata
     id="metadata3360">
    <rdf:RDF>
      <cc:Work
         rdf:about="">
        <dc:format>image/svg+xml</dc:format>
        <dc:type
           rdf:resource="http://purl.org/dc/dcmitype/StillImage" />
        <dc:title></dc:title>
      </cc:Work>
    </rdf:RDF>
  </metadata>
  <g
     transform="translate(0,995.63782)"
     id="layer1" />
  <path
     d="m 160,256 0,1280 170,0 0,-512 170,0 c 71.06582,0 135.07762,-10.2167 191,-29 l 95.99998,151 108,-68 -90,-141 c 89.1482,-66.50708 139,-168.71759 139,-297 0,-236.99824 -130.0016,-384 -339.99998,-384 z m 170,157 274,0 c 105.0016,0 169.99998,87.00215 169.99998,227 0,62.97868 -21.23506,115.56655 -59.99998,154 l -94,-148 -108,68 90,141 c -30.5034,8.02963 -64.89085,12 -102,12 l -170,0 z"
     id="path3157-2-7-7-2-8-2-3-1-1-3-33-4-3-6-5-7-8"
     style="fill:#000000;fill-opacity:1;stroke:none;display:inline" />
</svg>
