<?xml version="1.0" encoding="UTF-8" standalone="no"?>
<svg
   xmlns:dc="http://purl.org/dc/elements/1.1/"
   xmlns:cc="http://creativecommons.org/ns#"
   xmlns:rdf="http://www.w3.org/1999/02/22-rdf-syntax-ns#"
   xmlns:svg="http://www.w3.org/2000/svg"
   xmlns="http://www.w3.org/2000/svg"
   version="1.1"
   width="1024"
   height="2048"
   id="svg3355">
  <defs
     id="defs3357" />
  <metadata
     id="metadata3360">
    <rdf:RDF>
      <cc:Work
         rdf:about="">
        <dc:format>image/svg+xml</dc:format>
        <dc:type
           rdf:resource="http://purl.org/dc/dcmitype/StillImage" />
        <dc:title></dc:title>
      </cc:Work>
    </rdf:RDF>
  </metadata>
  <g
     transform="translate(0,995.63782)"
     id="layer1" />
  <path
     id="path3157-2-7-7-2-8-2-3-1-1-3-33-4-3-6-5-7-6"
     style="display:inline;fill:#000000;fill-opacity:1;stroke:none"
     d="m 384,512 c -192.0002,0 -256,64.00041 -256,256 v 1024 h 170 v -512 h 170 c 82.18967,0 155.30646,-13.7244 217,-39 l 102,161 108,-68 -101,-159 C 870.23393,1107.6512 912,1010.0706 912,890 912,655.9985 758.99849,512 512,512 Z m 0,157 h 128 c 141.99939,0 230,84.00214 230,221 0,54.10061 -14.53061,100.22811 -42,137 l -80,-125 -108,68 84,132 c -36.84516,13.6998 -79.78468,21 -128,21 H 298 V 768 c 0,-61.00034 33.0019,-99 86,-99 z" />
</svg>
