<?xml version="1.0" encoding="UTF-8" standalone="no"?>
<!-- Created with Inkscape (http://www.inkscape.org/) -->

<svg
   xmlns:dc="http://purl.org/dc/elements/1.1/"
   xmlns:cc="http://creativecommons.org/ns#"
   xmlns:rdf="http://www.w3.org/1999/02/22-rdf-syntax-ns#"
   xmlns:svg="http://www.w3.org/2000/svg"
   xmlns="http://www.w3.org/2000/svg"
   version="1.1"
   width="1024"
   height="2048"
   id="svg3355">
  <defs
     id="defs3357" />
  <metadata
     id="metadata3360">
    <rdf:RDF>
      <cc:Work
         rdf:about="">
        <dc:format>image/svg+xml</dc:format>
        <dc:type
           rdf:resource="http://purl.org/dc/dcmitype/StillImage" />
        <dc:title></dc:title>
      </cc:Work>
    </rdf:RDF>
  </metadata>
  <g
     transform="translate(0,995.63782)"
     id="layer1" />
  <path
     d="M 128,255.99997 128,1437 l 170,0 0,-512.00003 214,0 c 161.99838,0 262,103.99923 262,271.00003 0,271.0013 -91.9974,439 -241,439 l -149,0 0,149 c 0,0 57.00186,16 149,16 254.00489,0 411,-230.9958 411,-604 0,-268.99566 -164.99598,-436.00003 -432,-436.00003 -132.99683,0 -214,16 -214,16 l 0,-363 534,0 0,-157 z"
     id="path3157-2-7-7-2-8-2-2-3-9"
     style="fill:#000000;fill-opacity:1;stroke:none;display:inline" />
</svg>
