<?xml version="1.0" encoding="UTF-8" standalone="no"?>
<svg
   xmlns:dc="http://purl.org/dc/elements/1.1/"
   xmlns:cc="http://creativecommons.org/ns#"
   xmlns:rdf="http://www.w3.org/1999/02/22-rdf-syntax-ns#"
   xmlns:svg="http://www.w3.org/2000/svg"
   xmlns="http://www.w3.org/2000/svg"
   version="1.1"
   width="1024"
   height="2048"
   id="svg3355">
  <defs
     id="defs3357" />
  <metadata
     id="metadata3360">
    <rdf:RDF>
      <cc:Work
         rdf:about="">
        <dc:format>image/svg+xml</dc:format>
        <dc:type
           rdf:resource="http://purl.org/dc/dcmitype/StillImage" />
        <dc:title></dc:title>
      </cc:Work>
    </rdf:RDF>
  </metadata>
  <g
     transform="translate(0,995.63782)"
     id="layer1" />
  <path
     d="m 600,239.99996 c -221.39527,0 -362.54877,218.55903 -375,627 h -33 c -47.99543,0 -48,-87.00327 -48,-227 H 16 c 0,0 -8,55.99603 -8,147 C 8,934.00368 77.99788,1024 192,1024 h 36 c 26.82812,337.9605 197.12794,520 460,520 109.00459,0 176,-16 176,-16 V 1379 H 688 c -286.00366,0 -286,-355 -286,-355 h 388 c 127.98884,0 170,-39.00045 170,-157 V 756 C 960,436.99704 821.99764,239.99996 600,239.99996 Z m 0,157 C 716.99827,397.24976 790,533.99867 790,756 V 866.99996 H 402 c 0,0 0.005,-470.42274 198,-470 z"
     id="path3157-2-7-7-2-8-2-3-1-1-3-3-6-9-6"
     style="display:inline;fill:#000000;fill-opacity:1;stroke:none" />
</svg>
