<?xml version="1.0" encoding="UTF-8" standalone="no"?>
<svg
   xmlns:dc="http://purl.org/dc/elements/1.1/"
   xmlns:cc="http://creativecommons.org/ns#"
   xmlns:rdf="http://www.w3.org/1999/02/22-rdf-syntax-ns#"
   xmlns:svg="http://www.w3.org/2000/svg"
   xmlns="http://www.w3.org/2000/svg"
   version="1.1"
   width="1024"
   height="2048"
   id="svg3355">
  <defs
     id="defs3357" />
  <metadata
     id="metadata3360">
    <rdf:RDF>
      <cc:Work
         rdf:about="">
        <dc:format>image/svg+xml</dc:format>
        <dc:type
           rdf:resource="http://purl.org/dc/dcmitype/StillImage" />
        <dc:title></dc:title>
      </cc:Work>
    </rdf:RDF>
  </metadata>
  <g
     transform="translate(0,995.63782)"
     id="layer1" />
  <path
     d="M 600,496 C 387.36776,496 248.67797,665.69157 227,945 h -35 c -47.99543,0 -48,-68.00206 -48,-177 H 16 c 0,0 -8,48.99975 -8,128 0,128.003 69.99788,207 184,207 h 36 c 21.16053,205.4033 125.90597,350.081 284,410 v 279 h 170 v -248 h 6 c 108.99778,0 176,-16 176,-16 V 1379 H 688 c -285.99615,0 -286,-276 -286,-276 h 388 c 127.99869,0 170,-38.9958 170,-158 V 876 C 960,640.99857 822.00487,496 600,496 Z m 0,157 c 117.00051,0 190,85.00162 190,223 v 69 H 402 c 0,0 9.8e-4,-292 198,-292 z"
     id="path3157-2-7-7-2-8-2-3-1-1-3-3-6-9-6-8-7-9"
     style="display:inline;fill:#000000;fill-opacity:1;stroke:none" />
</svg>
