<?xml version="1.0" encoding="UTF-8" standalone="no"?>
<!-- Created with Inkscape (http://www.inkscape.org/) -->

<svg
   xmlns:dc="http://purl.org/dc/elements/1.1/"
   xmlns:cc="http://creativecommons.org/ns#"
   xmlns:rdf="http://www.w3.org/1999/02/22-rdf-syntax-ns#"
   xmlns:svg="http://www.w3.org/2000/svg"
   xmlns="http://www.w3.org/2000/svg"
   version="1.1"
   width="1024"
   height="2048"
   id="svg3355">
  <defs
     id="defs3357" />
  <metadata
     id="metadata3360">
    <rdf:RDF>
      <cc:Work
         rdf:about="">
        <dc:format>image/svg+xml</dc:format>
        <dc:type
           rdf:resource="http://purl.org/dc/dcmitype/StillImage" />
        <dc:title></dc:title>
      </cc:Work>
    </rdf:RDF>
  </metadata>
  <g
     transform="translate(0,995.63782)"
     id="layer1" />
  <path
     d="m 128,520 c 0,0 92.99747,-16 243,-16 254.99521,0 413,75.99656 413,303 0,157.99899 -154,198 -154,198 0,0 186,46.9971 186,236 l 0,138 144,0 0,413 -170,0 0,-256 -144,0 0,-295 c 0,-103.999 -81.0026,-138 -211,-138 l -211,0 0,-158 211,0 C 545.9981,945 614,910.99982 614,807 614,703.00018 521.0023,669 371,669 l -243,0 z"
     id="path3157-2-7-7-2-8-2-6-1-8-0-0"
     style="fill:#000000;fill-opacity:1;stroke:none;display:inline" />
</svg>
