<?xml version="1.0" encoding="UTF-8" standalone="no"?>
<!-- Created with Inkscape (http://www.inkscape.org/) -->

<svg
   xmlns:dc="http://purl.org/dc/elements/1.1/"
   xmlns:cc="http://creativecommons.org/ns#"
   xmlns:rdf="http://www.w3.org/1999/02/22-rdf-syntax-ns#"
   xmlns:svg="http://www.w3.org/2000/svg"
   xmlns="http://www.w3.org/2000/svg"
   version="1.1"
   width="1024"
   height="2048"
   id="svg3355">
  <defs
     id="defs3357" />
  <metadata
     id="metadata3360">
    <rdf:RDF>
      <cc:Work
         rdf:about="">
        <dc:format>image/svg+xml</dc:format>
        <dc:type
           rdf:resource="http://purl.org/dc/dcmitype/StillImage" />
        <dc:title></dc:title>
      </cc:Work>
    </rdf:RDF>
  </metadata>
  <g
     transform="translate(0,995.63782)"
     id="layer1" />
  <path
     d="M 128,256.00003 128,1024 c 0,273.0001 -32.0044,363 -128,363 l 0,157 c 224.004,0 298,-129.9966 298,-520 l 0,-610.99997 171.99996,0 0,737.99997 c 0,295.0014 94.00125,393 245,393 150.99875,0 245,-97.9972 245,-393 l 0,-382.99997 -170,0 0,382.99997 c 0,177.0027 -29.001,236 -75,236 -45.999,0 -75,-59.0028 -75,-236 l 0,-894.99997 z"
     id="path3157-2-7-7-21-4-8-3-17"
     style="fill:#000000;fill-opacity:1;stroke:none;display:inline" />
</svg>
