<?xml version="1.0" encoding="UTF-8" standalone="no"?>
<!-- Created with Inkscape (http://www.inkscape.org/) -->

<svg
   xmlns:dc="http://purl.org/dc/elements/1.1/"
   xmlns:cc="http://creativecommons.org/ns#"
   xmlns:rdf="http://www.w3.org/1999/02/22-rdf-syntax-ns#"
   xmlns:svg="http://www.w3.org/2000/svg"
   xmlns="http://www.w3.org/2000/svg"
   version="1.1"
   width="1024"
   height="2048"
   id="svg3355">
  <defs
     id="defs3357" />
  <metadata
     id="metadata3360">
    <rdf:RDF>
      <cc:Work
         rdf:about="">
        <dc:format>image/svg+xml</dc:format>
        <dc:type
           rdf:resource="http://purl.org/dc/dcmitype/StillImage" />
        <dc:title></dc:title>
      </cc:Work>
    </rdf:RDF>
  </metadata>
  <g
     transform="translate(0,995.63782)"
     id="layer1" />
  <path
     d="M 810,248 C 578.18592,248 426.95693,369.50661 401,768 l -167,0 0,-512 -170,0 0,1280 170,0 0,-611 163,0 c 5.59124,477.6773 162.98998,619 413,619 93.00346,0 150,-16 150,-16 l 0,-149 -150,0 C 663.9547,1379 571.75241,1275.6262 567,925 l 393,0 0,-157 -389,0 C 590.83367,496.48957 678.72807,413 810,413 l 150,0 0,-149 c 0,0 -56.99552,-16 -150,-16 z"
     id="path5788-5"
     style="fill:#000000;fill-opacity:1;stroke:none;display:inline" />
</svg>
