<?xml version="1.0" encoding="UTF-8" standalone="no"?>
<!-- Created with Inkscape (http://www.inkscape.org/) -->

<svg
   xmlns:dc="http://purl.org/dc/elements/1.1/"
   xmlns:cc="http://creativecommons.org/ns#"
   xmlns:rdf="http://www.w3.org/1999/02/22-rdf-syntax-ns#"
   xmlns:svg="http://www.w3.org/2000/svg"
   xmlns="http://www.w3.org/2000/svg"
   version="1.1"
   width="1024"
   height="2048"
   id="svg3355">
  <defs
     id="defs3357" />
  <metadata
     id="metadata3360">
    <rdf:RDF>
      <cc:Work
         rdf:about="">
        <dc:format>image/svg+xml</dc:format>
        <dc:type
           rdf:resource="http://purl.org/dc/dcmitype/StillImage" />
        <dc:title></dc:title>
      </cc:Work>
    </rdf:RDF>
  </metadata>
  <g
     transform="translate(0,995.63782)"
     id="layer1" />
  <path
     d="m 474,504 c -263.002,0 -426,130.00124 -426,520 0,389.9988 177.0022,520 464,520 22.21141,0 44.1373,-1.23 65,-3 96.80972,97.5447 238.59212,152 415,152 l 0,-157 c -83.41748,0 -156.28652,-16.9073 -216,-48 127.33349,-64.3273 200,-181.1875 200,-336 0,-293.99906 -102.99998,-392 -271,-392 -168.00002,0 -272,97.99529 -272,392 0,86.9194 14.47802,165.6928 42,234 -160.06487,-12.896 -257,-114.5297 -257,-362 0,-265.99649 98.00188,-355 256,-355 l 159,0 0,-149 c 0,0 -61.00205,-16 -159,-16 z m 231,413 c 69.99917,0 114,59.00061 114,235 0,105.6476 -66.5881,182.2849 -173,216 -35.94656,-58.8905 -55,-131.8911 -55,-216 0,-175.99802 44.00083,-235 114,-235 z"
     id="path3157-2-7-7-2-8-2-3-1-8-2-12-0"
     style="fill:#000000;fill-opacity:1;stroke:none;display:inline" />
</svg>
