<?xml version="1.0" encoding="UTF-8" standalone="no"?>
<!-- Created with Inkscape (http://www.inkscape.org/) -->

<svg
   xmlns:dc="http://purl.org/dc/elements/1.1/"
   xmlns:cc="http://creativecommons.org/ns#"
   xmlns:rdf="http://www.w3.org/1999/02/22-rdf-syntax-ns#"
   xmlns:svg="http://www.w3.org/2000/svg"
   xmlns="http://www.w3.org/2000/svg"
   version="1.1"
   width="1024"
   height="2048"
   id="svg3355">
  <defs
     id="defs3357" />
  <metadata
     id="metadata3360">
    <rdf:RDF>
      <cc:Work
         rdf:about="">
        <dc:format>image/svg+xml</dc:format>
        <dc:type
           rdf:resource="http://purl.org/dc/dcmitype/StillImage" />
        <dc:title></dc:title>
      </cc:Work>
    </rdf:RDF>
  </metadata>
  <g
     transform="translate(0,995.63782)"
     id="layer1" />
  <path
     d="m 256,128.00005 c 0,157.99878 97.99634,256 256,256 158.00366,0 255.99996,-97.99942 255.99996,-256 l -101.99996,0 c 0,94.9981 -58.99737,154 -154,154 -95.00263,0 -154,-58.9967 -154,-154 z m -128,384 0,1023.99995 170,0 427.99996,-734 0,734 103,0 -61,256 157,0 99.00004,-413 -129.00004,0 0,-866.99995 -169,0 L 298,1246 298,512.00005 z"
     id="path3157-2-7-83-8-4-0-7-4"
     style="fill:#000000;fill-opacity:1;stroke:none;display:inline" />
</svg>
