<?xml version="1.0" encoding="UTF-8" standalone="no"?>
<!-- Created with Inkscape (http://www.inkscape.org/) -->

<svg
   xmlns:dc="http://purl.org/dc/elements/1.1/"
   xmlns:cc="http://creativecommons.org/ns#"
   xmlns:rdf="http://www.w3.org/1999/02/22-rdf-syntax-ns#"
   xmlns:svg="http://www.w3.org/2000/svg"
   xmlns="http://www.w3.org/2000/svg"
   version="1.1"
   width="1024"
   height="2048"
   id="svg3355">
  <defs
     id="defs3357" />
  <metadata
     id="metadata3360">
    <rdf:RDF>
      <cc:Work
         rdf:about="">
        <dc:format>image/svg+xml</dc:format>
        <dc:type
           rdf:resource="http://purl.org/dc/dcmitype/StillImage" />
        <dc:title></dc:title>
      </cc:Work>
    </rdf:RDF>
  </metadata>
  <g
     transform="translate(0,995.63782)"
     id="layer1" />
  <path
     d="m 226,256.00001 143,249 c -130.40474,2.7619 -209,15 -209,15 l 0,149 259,0 c 160.0049,0 259,25.00456 259,99 0,73.99544 -98.9966,99 -259,99 l -195,0 0,156.99999 195,0 c 200.0043,0 323,31.9977 323,128 0,96.0023 -87.9961,128 -230,128 -247.0037,0 -400,97.9958 -400,256 0,191.9991 98.0032,256 392,256 l 360,0 0,-157 -360,0 c -167.0015,0 -222,-25.0042 -222,-99 0,-61.0044 88.0041,-99 230,-99 246.9992,0 400,-71.0017 400,-285 0,-166.00321 -234,-206.99999 -234,-206.99999 0,0 170,-34.99688 170,-177 0,-134.06527 -75.17895,-207.4805 -206,-241 l 156,-271 -138,0 -148,256 -148,-256 z"
     id="path3157-2-7-7-2-8-2-3-1-8-9-93-1-9-0-2-8"
     style="fill:#000000;fill-opacity:1;stroke:none;display:inline" />
</svg>
