<?xml version="1.0" encoding="UTF-8" standalone="no"?>
<!-- Created with Inkscape (http://www.inkscape.org/) -->

<svg
   xmlns:dc="http://purl.org/dc/elements/1.1/"
   xmlns:cc="http://creativecommons.org/ns#"
   xmlns:rdf="http://www.w3.org/1999/02/22-rdf-syntax-ns#"
   xmlns:svg="http://www.w3.org/2000/svg"
   xmlns="http://www.w3.org/2000/svg"
   version="1.1"
   width="1024"
   height="2048"
   id="svg3355">
  <defs
     id="defs3357" />
  <metadata
     id="metadata3360">
    <rdf:RDF>
      <cc:Work
         rdf:about="">
        <dc:format>image/svg+xml</dc:format>
        <dc:type
           rdf:resource="http://purl.org/dc/dcmitype/StillImage" />
        <dc:title></dc:title>
      </cc:Work>
    </rdf:RDF>
  </metadata>
  <g
     transform="translate(0,995.63782)"
     id="layer1" />
  <path
     d="m 128,127.99998 90,256 32,0 48,-136 150,0 48,136 32,0 48,-136 150,0 48,136 32,0 90,-256 -768,0 z m -96,384 L 216,1536 l 204,0 92,-512 92,512 186,0 c 0,0 194,-475.0039 194,-768.00002 0,-157.99772 -31,-256 -31,-256 l -157,0 c 0,0 31,97.99704 31,256 C 827,1044.0035 713,1320 713,1320 l -145,-808.00002 -148,0 31,173 L 337,1320 192,511.99998 l -160,0 z"
     id="path3157-2-7-7-2-8-2-3-1-1-3-33-4-3-4-9-8-2-6-0-8-3-0"
     style="fill:#000000;fill-opacity:1;stroke:none;display:inline" />
</svg>
