<?xml version="1.0" encoding="UTF-8" standalone="no"?>
<!-- Created with Inkscape (http://www.inkscape.org/) -->

<svg
   xmlns:dc="http://purl.org/dc/elements/1.1/"
   xmlns:cc="http://creativecommons.org/ns#"
   xmlns:rdf="http://www.w3.org/1999/02/22-rdf-syntax-ns#"
   xmlns:svg="http://www.w3.org/2000/svg"
   xmlns="http://www.w3.org/2000/svg"
   version="1.1"
   width="1024"
   height="2048"
   id="svg3355">
  <defs
     id="defs3357" />
  <metadata
     id="metadata3360">
    <rdf:RDF>
      <cc:Work
         rdf:about="">
        <dc:format>image/svg+xml</dc:format>
        <dc:type
           rdf:resource="http://purl.org/dc/dcmitype/StillImage" />
        <dc:title></dc:title>
      </cc:Work>
    </rdf:RDF>
  </metadata>
  <path
     d="M 651.99997,248 C 297.99771,248 80,496.00316 80,896 c 0,405.0027 185.9962,656 487,656 271.0027,0 361.00001,-95.9955 361,-386 L 927.99999,945 512,945 l 0,158 245.99997,0 3e-5,63 c 8e-5,171.9998 -48.0021,229 -191,229 -191.0016,0 -309,-191.0023 -309,-499 0,-299.00215 150.00267,-483 393.99997,-483 l 244.00002,0 0,-149 c 0,0 -92.9979,-16 -244.00002,-16 z"
     id="path3157-2-7-7-2-8-2-3-1-8-2-6-4"
     style="fill:#000000;fill-opacity:1;stroke:none;display:inline" />
</svg>
