<?xml version="1.0" encoding="UTF-8" standalone="no"?>
<!-- Created with Inkscape (http://www.inkscape.org/) -->

<svg
   xmlns:dc="http://purl.org/dc/elements/1.1/"
   xmlns:cc="http://creativecommons.org/ns#"
   xmlns:rdf="http://www.w3.org/1999/02/22-rdf-syntax-ns#"
   xmlns:svg="http://www.w3.org/2000/svg"
   xmlns="http://www.w3.org/2000/svg"
   version="1.1"
   width="1024"
   height="2048"
   id="svg3355">
  <defs
     id="defs3357" />
  <metadata
     id="metadata3360">
    <rdf:RDF>
      <cc:Work
         rdf:about="">
        <dc:format>image/svg+xml</dc:format>
        <dc:type
           rdf:resource="http://purl.org/dc/dcmitype/StillImage" />
        <dc:title></dc:title>
      </cc:Work>
    </rdf:RDF>
  </metadata>
  <g
     transform="translate(0,995.63782)"
     id="layer1" />
  <g
     transform="matrix(0.48794232,0,0,1,32.578769,995.6378)"
     id="layer1-77-9"
     style="display:inline" />
  <path
     d="M 284,248 C 55.99893,248 56,404.00171 56,896 c 0,491.9983 10e-4,648 228,648 227.99848,0 228,-156.0019 228,-648 0,-491.99809 9.8e-4,-648 -228,-648 z m 0,128 c 91.99519,0 92,146.00169 92,520 0,373.9983 0.005,520 -92,520 -92.00491,0 -92,-146.0028 -92,-520 0,-373.99715 0.005,-520 92,-520 z m 228,136 174,768 -58,256 c -28.9998,127.9991 -28.99823,128 -116,128 l 0,120 c 0,0 34.99652,16 92,16 95.38304,0 115.76896,-89.7278 149,-236 L 992,512 861,512 774,896 752,1024 730,896 643,512 512,512 z"
     id="path3157-2-7-7-2-8-2-40-6-4-6-4-3-0-5"
     style="fill:#000000;fill-opacity:1;stroke:none;display:inline" />
</svg>
