<?xml version="1.0" encoding="UTF-8" standalone="no"?>
<!-- Created with Inkscape (http://www.inkscape.org/) -->

<svg
   xmlns:dc="http://purl.org/dc/elements/1.1/"
   xmlns:cc="http://creativecommons.org/ns#"
   xmlns:rdf="http://www.w3.org/1999/02/22-rdf-syntax-ns#"
   xmlns:svg="http://www.w3.org/2000/svg"
   xmlns="http://www.w3.org/2000/svg"
   version="1.1"
   width="1024"
   height="2048"
   id="svg3355">
  <defs
     id="defs3357" />
  <metadata
     id="metadata3360">
    <rdf:RDF>
      <cc:Work
         rdf:about="">
        <dc:format>image/svg+xml</dc:format>
        <dc:type
           rdf:resource="http://purl.org/dc/dcmitype/StillImage" />
        <dc:title></dc:title>
      </cc:Work>
    </rdf:RDF>
  </metadata>
  <g
     transform="translate(0,995.63782)"
     id="layer1" />
  <path
     d="m 698,248.00001 c -205.1033,0 -285.8215,128.5046 -299,519.99999 l -165,0 0,-511.99999 -170,0 L 64,1536 l 170,0 0,-611 163,0 c 2.9627,469.1122 79.5081,619 301,619 226.001,0 302,-156.0019 302,-648 0,-491.99809 -75.9955,-647.99999 -302,-647.99999 z m 0,157 c 99.0017,0 132,117.0017 132,490.99999 0,373.9983 -32.9973,491 -132,491 -99.0028,0 -131,-117.0028 -131,-491 0,-373.99719 31.9983,-490.99999 131,-490.99999 z"
     id="path5788"
     style="fill:#000000;fill-opacity:1;stroke:none;display:inline" />
</svg>
