<?xml version="1.0" encoding="UTF-8" standalone="no"?>
<!-- Created with Inkscape (http://www.inkscape.org/) -->

<svg
   xmlns:dc="http://purl.org/dc/elements/1.1/"
   xmlns:cc="http://creativecommons.org/ns#"
   xmlns:rdf="http://www.w3.org/1999/02/22-rdf-syntax-ns#"
   xmlns:svg="http://www.w3.org/2000/svg"
   xmlns="http://www.w3.org/2000/svg"
   version="1.1"
   width="1024"
   height="2048"
   id="svg3355">
  <defs
     id="defs3357" />
  <metadata
     id="metadata3360">
    <rdf:RDF>
      <cc:Work
         rdf:about="">
        <dc:format>image/svg+xml</dc:format>
        <dc:type
           rdf:resource="http://purl.org/dc/dcmitype/StillImage" />
        <dc:title></dc:title>
      </cc:Work>
    </rdf:RDF>
  </metadata>
  <g
     transform="translate(0,995.63782)"
     id="layer1" />
  <path
     d="M 64,255.99996 64,1536 l 170,0 0,-611.00004 159,0 c 0,0 -73,89.00014 -73,233.00004 l 0,378 146,0 0,-378 c 0,-111.0776 43.43922,-188.97895 117,-219.00004 L 583,1536 l 146,0 0,-597.00004 C 802.56078,969.02089 846,1046.9219 846,1158 l 0,378 146,0 0,-378 C 992,971.66658 915.8533,839.99455 785,789.99996 l 207,-534 -672,0 198.46875,512 -284.46875,0 0,-512 z m 446,136 292,0 -146,376 z"
     id="path3157-22-2-6-3-5"
     style="fill:#000000;fill-opacity:1;stroke:none;display:inline" />
</svg>
