<?xml version="1.0" encoding="UTF-8" standalone="no"?>
<svg
   xmlns:dc="http://purl.org/dc/elements/1.1/"
   xmlns:cc="http://creativecommons.org/ns#"
   xmlns:rdf="http://www.w3.org/1999/02/22-rdf-syntax-ns#"
   xmlns:svg="http://www.w3.org/2000/svg"
   xmlns="http://www.w3.org/2000/svg"
   version="1.1"
   width="1024"
   height="2048"
   id="svg3355">
  <defs
     id="defs3357" />
  <metadata
     id="metadata3360">
    <rdf:RDF>
      <cc:Work
         rdf:about="">
        <dc:format>image/svg+xml</dc:format>
        <dc:type
           rdf:resource="http://purl.org/dc/dcmitype/StillImage" />
        <dc:title></dc:title>
      </cc:Work>
    </rdf:RDF>
  </metadata>
  <path
     d="M -64 320 L -64 1472 L 1088 1472 L 1088 320 L -64 320 z M 64 448 L 960 448 L 960 1344 L 64 1344 L 64 448 z M 288 576 C 234.9807 576 192 618.98004 192 672 C 192 725.01997 234.98145 768 288 768 C 341.01855 768 384 725.01981 384 672 C 384 618.98019 341.0193 576 288 576 z M 736 576 C 682.9807 576 640 618.98003 640 672 C 640 725.01997 682.98145 768 736 768 C 789.01855 768 832 725.01981 832 672 C 832 618.98019 789.0193 576 736 576 z M 512 800 C 458.9807 800 416 842.98004 416 896 C 416 949.01997 458.98145 992 512 992 C 565.01855 992 608 949.01981 608 896 C 608 842.98019 565.0193 800 512 800 z M 288 1024 C 234.9807 1024 192 1066.98 192 1120 C 192 1173.02 234.98145 1216 288 1216 C 341.01855 1216 384 1173.0198 384 1120 C 384 1066.9802 341.0193 1024 288 1024 z M 736 1024 C 682.9807 1024 640 1066.98 640 1120 C 640 1173.02 682.98145 1216 736 1216 C 789.01855 1216 832 1173.0198 832 1120 C 832 1066.9802 789.0193 1024 736 1024 z "
     style="display:inline;fill:#000000;fill-opacity:1;stroke:none"
     id="path3157-2-7-0" />
</svg>
