<?xml version="1.0" encoding="UTF-8" standalone="no"?>
<svg
   xmlns:dc="http://purl.org/dc/elements/1.1/"
   xmlns:cc="http://creativecommons.org/ns#"
   xmlns:rdf="http://www.w3.org/1999/02/22-rdf-syntax-ns#"
   xmlns:svg="http://www.w3.org/2000/svg"
   xmlns="http://www.w3.org/2000/svg"
   id="svg3355"
   height="2048"
   width="1024"
   version="1.1">
  <defs
     id="defs3357" />
  <metadata
     id="metadata3360">
    <rdf:RDF>
      <cc:Work
         rdf:about="">
        <dc:format>image/svg+xml</dc:format>
        <dc:type
           rdf:resource="http://purl.org/dc/dcmitype/StillImage" />
        <dc:title></dc:title>
      </cc:Work>
    </rdf:RDF>
  </metadata>
  <path
     id="path3705-44-9-5-7-2-9"
     style="display:inline;fill:#000000;fill-opacity:1;stroke:none"
     d="M 960,342 720,480 C 691.23938,430.43912 658.01242,384.47358 620,342 l -134,77 c 39.90699,40.52761 74.61466,86.49978 103,137 L 0,896 589,1236 c -28.38653,50.5032 -63.0904,96.4707 -103,137 l 134,77 c 38.01484,-42.4754 71.23787,-88.4365 100,-138 l 240,138 V 1269 L 786,1168 c 29.83274,-85.4983 46,-176.71443 46,-272 0,-95.285 -16.16764,-186.50199 -46,-272 L 960,523 Z M 649,703 c 16.93892,60.54688 26,124.89473 26,193 0,68.10523 -9.06156,132.4531 -26,193 L 314,896 Z" />
</svg>
