<?xml version="1.0" encoding="UTF-8" standalone="no"?>
<!-- Created with Inkscape (http://www.inkscape.org/) -->

<svg
   xmlns:dc="http://purl.org/dc/elements/1.1/"
   xmlns:cc="http://creativecommons.org/ns#"
   xmlns:rdf="http://www.w3.org/1999/02/22-rdf-syntax-ns#"
   xmlns:svg="http://www.w3.org/2000/svg"
   xmlns="http://www.w3.org/2000/svg"
   version="1.1"
   width="1024"
   height="2048"
   id="svg3355">
  <defs
     id="defs3357" />
  <metadata
     id="metadata3360">
    <rdf:RDF>
      <cc:Work
         rdf:about="">
        <dc:format>image/svg+xml</dc:format>
        <dc:type
           rdf:resource="http://purl.org/dc/dcmitype/StillImage" />
        <dc:title></dc:title>
      </cc:Work>
    </rdf:RDF>
  </metadata>
  <path
     d="M 383,95 C 211.99693,95 107,254.00135 107,512 l 0,768 c 0,158.0042 -39.99628,256 -106,256 l -65,0 0,153 c 0,0 24.999581,8 65,8 171.00307,0 276,-159.0014 276,-417 l 0,-768 c 0,-158.0042 39.99628,-256 106,-256 l 65,0 0,-153 c 0,0 -24.99958,-8 -65,-8 z m 320,0 C 531.99693,95 427,254.00135 427,512 l 0,768 c 0,158.0042 -39.99628,256 -106,256 l -65,0 0,153 c 0,0 24.99958,8 65,8 171.00307,0 276,-159.0014 276,-417 l 0,-768 c 0,-158.0042 39.99628,-256 106,-256 l 65,0 0,-153 c 0,0 -24.99958,-8 -65,-8 z m 320,0 C 851.99693,95 747,254.00135 747,512 l 0,768 c 0,158.0042 -39.99628,256 -106,256 l -65,0 0,153 c 0,0 24.99958,8 65,8 171.00307,0 276,-159.0014 276,-417 l 0,-768 c 0,-158.0042 39.9963,-256 106,-256 l 65,0 0,-153 c 0,0 -24.9996,-8 -65,-8 z"
     id="path8349"
     style="fill:#000000;fill-opacity:1;stroke:none;display:inline" />
</svg>
