<?xml version="1.0" encoding="UTF-8" standalone="no"?>
<svg
   xmlns:dc="http://purl.org/dc/elements/1.1/"
   xmlns:cc="http://creativecommons.org/ns#"
   xmlns:rdf="http://www.w3.org/1999/02/22-rdf-syntax-ns#"
   xmlns:svg="http://www.w3.org/2000/svg"
   xmlns="http://www.w3.org/2000/svg"
   id="svg3355"
   height="2048"
   width="1024"
   version="1.1">
  <defs
     id="defs3357" />
  <metadata
     id="metadata3360">
    <rdf:RDF>
      <cc:Work
         rdf:about="">
        <dc:format>image/svg+xml</dc:format>
        <dc:type
           rdf:resource="http://purl.org/dc/dcmitype/StillImage" />
        <dc:title></dc:title>
      </cc:Work>
    </rdf:RDF>
  </metadata>
  <path
     id="path7165-4-7"
     style="display:inline;fill:#000000;fill-opacity:1;stroke:none"
     d="M 762,384 580,670 C 502.89316,622.31912 418.51134,544 312,544 158.9993,544 64,753 64,753 l 111,111 c 0,0 64.9968,-160 171,-160 52.14994,0 105.00929,38.65294 163,78 L 404,947 C 375.22512,935.49736 344.49318,928 312,928 158.99931,928 64,1137 64,1137 l 111,111 c 0,0 50.62136,-124.326 135,-154 l -156,245 108,69 181,-285 c 77.29355,47.0792 162.17847,125 269,125 152.9956,0 248,-209 248,-209 L 849,928 c 0,0 -65.0029,162 -171,162 -52.27789,0 -104.83528,-39.0826 -163,-79 L 620,845 c 28.80813,11.39379 59.46464,19 92,19 152.9956,0 248,-209 248,-209 L 849,544 c 0,0 -50.72586,126.93452 -136,156 L 870,453 Z" />
</svg>
