<?xml version="1.0" encoding="UTF-8" standalone="no"?>
<!-- Created with Inkscape (http://www.inkscape.org/) -->

<svg
   xmlns:dc="http://purl.org/dc/elements/1.1/"
   xmlns:cc="http://creativecommons.org/ns#"
   xmlns:rdf="http://www.w3.org/1999/02/22-rdf-syntax-ns#"
   xmlns:svg="http://www.w3.org/2000/svg"
   xmlns="http://www.w3.org/2000/svg"
   version="1.1"
   width="1024"
   height="2048"
   id="svg3355">
  <defs
     id="defs3357" />
  <metadata
     id="metadata3360">
    <rdf:RDF>
      <cc:Work
         rdf:about="">
        <dc:format>image/svg+xml</dc:format>
        <dc:type
           rdf:resource="http://purl.org/dc/dcmitype/StillImage" />
        <dc:title></dc:title>
      </cc:Work>
    </rdf:RDF>
  </metadata>
  <path
     d="m 512,240.00005 c -220.91123,0 -413,179.0922 -413,400 0,194.04897 149.00002,356.0007 334,392.31245 l 0,90.6875 -241,0 0,157 241,0 0,256 158,0 0,-256 241,0 0,-156.9999 -241,0 0,-90.6875 c 184.99608,-36.3155 334,-198.26225 334,-392.31255 0,-220.90931 -192.08877,-400 -413,-400 z m 0,157 c 134.20599,0 243,108.79167 243,243 0,134.20833 -108.78833,243 -243,243 -134.21167,0 -243,-108.78927 -243,-243 0,-134.21073 108.79401,-243 243,-243 z"
     id="path3127-0"
     style="fill:#000000;fill-opacity:1;stroke:none;display:inline" />
</svg>
