<?xml version="1.0" encoding="UTF-8" standalone="no"?>
<svg
   xmlns:dc="http://purl.org/dc/elements/1.1/"
   xmlns:cc="http://creativecommons.org/ns#"
   xmlns:rdf="http://www.w3.org/1999/02/22-rdf-syntax-ns#"
   xmlns:svg="http://www.w3.org/2000/svg"
   xmlns="http://www.w3.org/2000/svg"
   version="1.1"
   width="1024"
   height="2048"
   id="svg3355">
  <defs
     id="defs3357" />
  <metadata
     id="metadata3360">
    <rdf:RDF>
      <cc:Work
         rdf:about="">
        <dc:format>image/svg+xml</dc:format>
        <dc:type
           rdf:resource="http://purl.org/dc/dcmitype/StillImage" />
        <dc:title></dc:title>
      </cc:Work>
    </rdf:RDF>
  </metadata>
  <path
     id="path3157-2-7-7-2-8-2-3-1-1-3-33-62"
     style="display:inline;fill:#000000;fill-opacity:1;stroke:none"
     d="m 430,248 c -187.0031,0 -302,90.99607 -302,363 v 669 c 0,191.9987 63.99688,256 256,256 h 84 c 274.00229,0 444,-181.0016 444,-475 0,-278.0038 -152.99589,-450 -400,-450 -83.27599,0 -155.4201,19.85379 -214,45 v -45 c 0,-149.00324 49.9994,-198 132,-198 h 82 V 264 c 0,0 -31.0038,-16 -82,-16 z m 82,520 c 142.00216,0 230,113.00188 230,293 0,196.999 -105.00132,318 -274,318 h -84 c -53.01094,0 -86,-37.9984 -86,-99 V 821 c 58.57915,-29.79013 130.72333,-53 214,-53 z" />
</svg>
