<?xml version="1.0" encoding="UTF-8" standalone="no"?>
<svg
   xmlns:dc="http://purl.org/dc/elements/1.1/"
   xmlns:cc="http://creativecommons.org/ns#"
   xmlns:rdf="http://www.w3.org/1999/02/22-rdf-syntax-ns#"
   xmlns:svg="http://www.w3.org/2000/svg"
   xmlns="http://www.w3.org/2000/svg"
   id="svg3355"
   height="2048"
   width="1024"
   version="1.1">
  <defs
     id="defs3357" />
  <metadata
     id="metadata3360">
    <rdf:RDF>
      <cc:Work
         rdf:about="">
        <dc:format>image/svg+xml</dc:format>
        <dc:type
           rdf:resource="http://purl.org/dc/dcmitype/StillImage" />
        <dc:title></dc:title>
      </cc:Work>
    </rdf:RDF>
  </metadata>
  <path
     id="path3157-2-7-7-2-8-2-3-1-9-4-8"
     style="display:inline;fill:#000000;fill-opacity:1;stroke:none"
     d="M 662,256 V 557 C 603.4201,531.85379 531.27599,512 448,512 200.99589,512 48,716.99634 48,1048 c 0,302.0032 169.99771,488 444,488 h 170 c 0,198.0041 109.998,264 289,264 42.9974,0 73,-16 73,-16 v -149 h -73 c -74.0032,0 -119,-24.996 -119,-99 V 256 Z M 448,669 c 83.27667,0 155.42085,23.20987 214,53 v 657 H 492 c -168.99868,0 -274,-126.003 -274,-331 0,-233.99643 87.99784,-379 230,-379 z" />
</svg>
