<?xml version="1.0" encoding="UTF-8" standalone="no"?>
<svg
   xmlns:dc="http://purl.org/dc/elements/1.1/"
   xmlns:cc="http://creativecommons.org/ns#"
   xmlns:rdf="http://www.w3.org/1999/02/22-rdf-syntax-ns#"
   xmlns:svg="http://www.w3.org/2000/svg"
   xmlns="http://www.w3.org/2000/svg"
   id="svg3355"
   height="2048"
   width="1024"
   version="1.1">
  <defs
     id="defs3357" />
  <metadata
     id="metadata3360">
    <rdf:RDF>
      <cc:Work
         rdf:about="">
        <dc:format>image/svg+xml</dc:format>
        <dc:type
           rdf:resource="http://purl.org/dc/dcmitype/StillImage" />
        <dc:title></dc:title>
      </cc:Work>
    </rdf:RDF>
  </metadata>
  <path
     id="path3157-2-7-7-2-8-2-3-1-9-4"
     style="display:inline;fill:#000000;fill-opacity:1;stroke:none"
     d="M 951,252 C 771.99804,252 662,351.00406 662,512 H 492 c -274.0044,0 -444,227.99878 -444,596 0,264.9967 129.99702,428 340,428 h 188 c 192.00308,0 256,-64.0013 256,-256 V 512 c 0,-60.99935 44.9968,-99 119,-99 h 73 V 260 c 0,0 -30.0026,-8 -73,-8 z M 492,669 h 170 v 611 c 0,61.0016 -32.9891,99 -86,99 H 388 C 282.99677,1379 218,1271.0035 218,1108 218,837.00083 322.99842,669 492,669 Z" />
</svg>
