<?xml version="1.0" encoding="UTF-8" standalone="no"?>
<svg
   xmlns:dc="http://purl.org/dc/elements/1.1/"
   xmlns:cc="http://creativecommons.org/ns#"
   xmlns:rdf="http://www.w3.org/1999/02/22-rdf-syntax-ns#"
   xmlns:svg="http://www.w3.org/2000/svg"
   xmlns="http://www.w3.org/2000/svg"
   version="1.1"
   width="1024"
   height="2048"
   id="svg3355">
  <defs
     id="defs3357" />
  <metadata
     id="metadata3360">
    <rdf:RDF>
      <cc:Work
         rdf:about="">
        <dc:format>image/svg+xml</dc:format>
        <dc:type
           rdf:resource="http://purl.org/dc/dcmitype/StillImage" />
        <dc:title></dc:title>
      </cc:Work>
    </rdf:RDF>
  </metadata>
  <g
     transform="translate(0,995.63782)"
     id="layer1" />
  <path
     d="m 463,1544 c -167.00331,0 -271,-16 -271,-16 v -149 h 271 c 271.00129,0 270.99999,-276 270.99999,-276 H 282 c -128.00077,0 -170,-39.0016 -170,-158 v -69 c 0,-235.00376 158.00072,-380 400,-380 241.99928,0 400,202.00482 400,528 0,320.9979 -172.0031,520 -449,520 z M 282,945 h 452.00001 c 0,0 -0.003,-292 -222.00001,-292 -141.99591,0 -230,84.99811 -230,223 z"
     id="path3157-2-7-7-2-8-2-3-1-1-3-3-6"
     style="display:inline;fill:#000000;fill-opacity:1;stroke:none" />
</svg>
