<?xml version="1.0" encoding="UTF-8" standalone="no"?>
<!-- Created with Inkscape (http://www.inkscape.org/) -->

<svg
   xmlns:dc="http://purl.org/dc/elements/1.1/"
   xmlns:cc="http://creativecommons.org/ns#"
   xmlns:rdf="http://www.w3.org/1999/02/22-rdf-syntax-ns#"
   xmlns:svg="http://www.w3.org/2000/svg"
   xmlns="http://www.w3.org/2000/svg"
   version="1.1"
   width="1024"
   height="2048"
   id="svg3355">
  <defs
     id="defs3357" />
  <metadata
     id="metadata3360">
    <rdf:RDF>
      <cc:Work
         rdf:about="">
        <dc:format>image/svg+xml</dc:format>
        <dc:type
           rdf:resource="http://purl.org/dc/dcmitype/StillImage" />
        <dc:title></dc:title>
      </cc:Work>
    </rdf:RDF>
  </metadata>
  <g
     transform="translate(0,995.63782)"
     id="layer1" />
  <g
     transform="matrix(-1,0,0,1,1024,995.63782)"
     id="layer1-15"
     style="display:inline">
    <path
       d="m 610,548.36218 c 137.00385,0 222,-16 222,-16 l 0,-149 -222,0 c -352.00329,0 -351.99999,-276 -351.99999,-276 l 662,0 c 0,0 15.99999,-103.00189 15.99999,-269 0,-209.00068 -157.00399,-338 -424,-338 -266.99601,0 -432,202.00482 -432,528 0,320.9979 201.99779,520 530,520 z m 156.00001,-599 -508.00002,0 c 0,0 0.003,-292 254.00001,-292 157.00102,0 253.99999,69.00387 254,181 z"
       id="path3157-2-7-7-2-8-2-3-1-1-3-3-6"
       style="fill:#000000;fill-opacity:1;stroke:none;display:inline" />
  </g>
</svg>
