<?xml version="1.0" encoding="UTF-8" standalone="no"?>
<svg
   xmlns:dc="http://purl.org/dc/elements/1.1/"
   xmlns:cc="http://creativecommons.org/ns#"
   xmlns:rdf="http://www.w3.org/1999/02/22-rdf-syntax-ns#"
   xmlns:svg="http://www.w3.org/2000/svg"
   xmlns="http://www.w3.org/2000/svg"
   version="1.1"
   width="1024"
   height="2048"
   id="svg3355">
  <defs
     id="defs3357" />
  <metadata
     id="metadata3360">
    <rdf:RDF>
      <cc:Work
         rdf:about="">
        <dc:format>image/svg+xml</dc:format>
        <dc:type
           rdf:resource="http://purl.org/dc/dcmitype/StillImage" />
        <dc:title></dc:title>
      </cc:Work>
    </rdf:RDF>
  </metadata>
  <g
     transform="matrix(-1,0,0,-1,1331.8693,1052.3622)"
     id="layer1-6" />
  <g
     transform="translate(307.86928,995.63782)"
     id="layer1-1" />
  <g
     transform="matrix(-1,0,0,1,2331.8693,995.63782)"
     id="layer1-5-2" />
  <g
     transform="translate(2025.2026,995.63782)"
     id="layer1-7" />
  <g
     transform="translate(130.35294,995.63782)"
     id="layer1-3" />
  <path
     d="m 275,496 c -91.00237,0 -147,16 -147,16 v 149 h 147 c 236.99937,0 237,276 237,276 H 234 C 106.00177,937 64,976.00353 64,1095 v 69 c 0,234.9989 112.00038,380 305,380 181.47032,0 299.4806,-169.7039 318,-449 h 73 c 0,116.9969 61.99931,189 163,189 61.99958,0 101,-8 101,-8 v -128 c -78.99872,0 -128,0 -128,-53 V 937 H 687 C 662.72156,662.67911 509.2825,496 275,496 Z m -41,599 h 278 c 0,0 -9.9e-4,292 -143,292 -87.99766,0 -135,-85.0015 -135,-223 z"
     id="path3157-2-7-7-2-8-2-3-1-1-3-3-6"
     style="display:inline;fill:#000000;fill-opacity:1;stroke:none" />
</svg>
