<?xml version="1.0" encoding="UTF-8" standalone="no"?>
<!-- Created with Inkscape (http://www.inkscape.org/) -->

<svg
   xmlns:dc="http://purl.org/dc/elements/1.1/"
   xmlns:cc="http://creativecommons.org/ns#"
   xmlns:rdf="http://www.w3.org/1999/02/22-rdf-syntax-ns#"
   xmlns:svg="http://www.w3.org/2000/svg"
   xmlns="http://www.w3.org/2000/svg"
   version="1.1"
   width="1024"
   height="2048"
   id="svg3355">
  <defs
     id="defs3357" />
  <metadata
     id="metadata3360">
    <rdf:RDF>
      <cc:Work
         rdf:about="">
        <dc:format>image/svg+xml</dc:format>
        <dc:type
           rdf:resource="http://purl.org/dc/dcmitype/StillImage" />
        <dc:title></dc:title>
      </cc:Work>
    </rdf:RDF>
  </metadata>
  <g
     transform="matrix(-1,0,0,-1,1331.8693,1052.3622)"
     id="layer1-6" />
  <g
     transform="translate(307.86928,995.63782)"
     id="layer1-1" />
  <g
     transform="matrix(-1,0,0,1,2331.8693,995.63782)"
     id="layer1-5-2" />
  <g
     transform="translate(2025.2026,995.63782)"
     id="layer1-7" />
  <g
     transform="translate(130.35294,995.63782)"
     id="layer1-3" />
  <path
     d="M 296,504 C 171.99766,504 96,520 96,520 l 0,149 200,0 c 124.00194,0 200,34.0002 200,138 0,103.99981 -66.99757,138 -176,138 l -160,0 0,158 160,0 c 129.00189,0 208,34.001 208,138 0,103.999 -89.00464,138 -232,138 l -232,0 0,149 c 0,0 88.99864,16 232,16 248.00422,0 402,-75.9955 402,-303 0,-65.8304 -26.89759,-112.906 -60,-146 l 122,0 c 0,116.9969 61.99941,189 163,189 61.9996,0 101,-8 101,-8 l 0,-128 c -78.99871,0 -128,0 -128,-53 l 0,-158 -267,0 C 650.5614,905.22807 666,862.87622 666,807 666,579.9965 524.99647,504 296,504 z"
     id="path3157-2-7-7-2-8-2-3-1-8-2-7"
     style="fill:#000000;fill-opacity:1;stroke:none;display:inline" />
</svg>
