<?xml version="1.0" encoding="UTF-8" standalone="no"?>
<svg
   xmlns:dc="http://purl.org/dc/elements/1.1/"
   xmlns:cc="http://creativecommons.org/ns#"
   xmlns:rdf="http://www.w3.org/1999/02/22-rdf-syntax-ns#"
   xmlns:svg="http://www.w3.org/2000/svg"
   xmlns="http://www.w3.org/2000/svg"
   id="svg3355"
   height="2048"
   width="1024"
   version="1.1">
  <defs
     id="defs3357" />
  <metadata
     id="metadata3360">
    <rdf:RDF>
      <cc:Work
         rdf:about="">
        <dc:format>image/svg+xml</dc:format>
        <dc:type
           rdf:resource="http://purl.org/dc/dcmitype/StillImage" />
        <dc:title></dc:title>
      </cc:Work>
    </rdf:RDF>
  </metadata>
  <g
     id="layer1-6"
     transform="matrix(-1,0,0,-1,1331.8693,1052.3622)" />
  <g
     id="layer1-1"
     transform="translate(307.86928,995.63782)" />
  <g
     id="layer1-5-2"
     transform="matrix(-1,0,0,1,2331.8693,995.63782)" />
  <g
     id="layer1-7"
     transform="translate(2025.2026,995.63782)" />
  <g
     id="layer1-3"
     transform="translate(130.35294,995.63782)" />
  <path
     d="M 774.05916,511.99875 569.80697,966.00147 512.54688,1123.4707 512,1122.5215 l -0.55078,0.957 L 454.18575,965.99797 249.93903,512.00576 64.004202,512.00347 410,1280 c 0,0 -154,209.4794 -154,310 0,135.0026 98.00382,218 256,218 157.99618,0 256,-82.9996 256,-218 0,-100.5215 -154,-310 -154,-310 L 959.99044,512.00362 Z M 512,1408 c 0,0 85,81.4833 85,182 0,38.0048 -32.00093,61 -85,61 -52.99907,0 -85,-22.9974 -85,-61 0,-100.5233 85,-182 85,-182 z"
     style="display:inline;fill:#000000;fill-opacity:1;stroke:none"
     id="path3157-2-7-7-21-4-8-3-1-2-7-2" />
</svg>
