<?xml version="1.0" encoding="UTF-8" standalone="no"?>
<svg
   xmlns:dc="http://purl.org/dc/elements/1.1/"
   xmlns:cc="http://creativecommons.org/ns#"
   xmlns:rdf="http://www.w3.org/1999/02/22-rdf-syntax-ns#"
   xmlns:svg="http://www.w3.org/2000/svg"
   xmlns="http://www.w3.org/2000/svg"
   version="1.1"
   width="1024"
   height="2048"
   id="svg3355">
  <defs
     id="defs3357" />
  <metadata
     id="metadata3360">
    <rdf:RDF>
      <cc:Work
         rdf:about="">
        <dc:format>image/svg+xml</dc:format>
        <dc:type
           rdf:resource="http://purl.org/dc/dcmitype/StillImage" />
        <dc:title></dc:title>
      </cc:Work>
    </rdf:RDF>
  </metadata>
  <path
     id="path3157-2-7-7-2-8-2-3-1-80-3-7"
     style="display:inline;fill:#000000;fill-opacity:1;stroke:none"
     d="m 430,248 c -187.0031,0 -302,90.99607 -302,363 v 925 H 298 V 821 c 58.57915,-29.79013 130.72333,-53 214,-53 131.99824,0 214,52.00399 214,209 v 402 c 0,192.0037 -49.9994,256 -132,256 h -82 v 149 c 0,0 31.0038,16 82,16 187.0032,0 302,-105.0046 302,-421 V 977 C 896,702.00163 749.00422,611 512,611 c -83.27599,0 -155.4201,19.85379 -214,45 v -45 c 0,-149.00324 49.9994,-198 132,-198 h 82 V 264 c 0,0 -31.0038,-16 -82,-16 z" />
</svg>
