<?xml version="1.0" encoding="UTF-8" standalone="no"?>
<svg
   xmlns:dc="http://purl.org/dc/elements/1.1/"
   xmlns:cc="http://creativecommons.org/ns#"
   xmlns:rdf="http://www.w3.org/1999/02/22-rdf-syntax-ns#"
   xmlns:svg="http://www.w3.org/2000/svg"
   xmlns="http://www.w3.org/2000/svg"
   version="1.1"
   width="1024"
   height="2048"
   id="svg3355">
  <defs
     id="defs3357" />
  <metadata
     id="metadata3360">
    <rdf:RDF>
      <cc:Work
         rdf:about="">
        <dc:format>image/svg+xml</dc:format>
        <dc:type
           rdf:resource="http://purl.org/dc/dcmitype/StillImage" />
        <dc:title></dc:title>
      </cc:Work>
    </rdf:RDF>
  </metadata>
  <path
     d="M 327,504 C 164.00276,504 64,600 64,600 v 936 H 221 V 690 c 0,0 39.99988,-48 106,-48 66.00012,0 106.60937,48.0004 106,126 v 669 H 591 V 690 c 0,0 39.99728,-48 106,-48 66.00272,0 106,48.0036 106,126 v 611 c 0,192.0037 -68.998,256 -180,256 H 512 v 149 c 0,0 41.9992,16 111,16 207.9966,0 337,-105.0046 337,-421 V 768 C 960,599.9979 859.99783,504 697,504 c -108.99616,0 -177,69 -177,69 0,0 -47.99753,-69 -193,-69 z"
     id="path3157-2-7-7-2-8-2-4-8-4"
     style="display:inline;fill:#000000;fill-opacity:1;stroke:none" />
</svg>
