<?xml version="1.0" encoding="UTF-8" standalone="no"?>
<!-- Created with Inkscape (http://www.inkscape.org/) -->

<svg
   xmlns:dc="http://purl.org/dc/elements/1.1/"
   xmlns:cc="http://creativecommons.org/ns#"
   xmlns:rdf="http://www.w3.org/1999/02/22-rdf-syntax-ns#"
   xmlns:svg="http://www.w3.org/2000/svg"
   xmlns="http://www.w3.org/2000/svg"
   version="1.1"
   width="1024"
   height="2048"
   id="svg3355">
  <defs
     id="defs3357" />
  <metadata
     id="metadata3360">
    <rdf:RDF>
      <cc:Work
         rdf:about="">
        <dc:format>image/svg+xml</dc:format>
        <dc:type
           rdf:resource="http://purl.org/dc/dcmitype/StillImage" />
        <dc:title></dc:title>
      </cc:Work>
    </rdf:RDF>
  </metadata>
  <path
     d="m 634,504 c -303.00358,0 -490,74.99964 -490,301 0,346.9969 566,219.0001 566,439 0,101.9953 -130.00029,135 -340,135 l -210,0 0,157 c 0,337.0045 74.00235,421 296,421 46.99517,0 76,-16 76,-16 l 0,-149 -76,0 c -92.75852,0 -125.15861,-61.8793 -126,-248 l 40,0 c 315.00112,0 510,-73.9992 510,-300 C 880,896.00203 314,1024.003 314,805 314,703.0012 436.00247,669 634,669 l 198,0 0,-149 c 0,0 -76.00316,-16 -198,-16 z"
     id="path3157-2-7-83-5-6-6"
     style="fill:#000000;fill-opacity:1;stroke:none;display:inline" />
</svg>
