<?xml version="1.0" encoding="UTF-8" standalone="no"?>
<!-- Created with Inkscape (http://www.inkscape.org/) -->

<svg
   xmlns:dc="http://purl.org/dc/elements/1.1/"
   xmlns:cc="http://creativecommons.org/ns#"
   xmlns:rdf="http://www.w3.org/1999/02/22-rdf-syntax-ns#"
   xmlns:svg="http://www.w3.org/2000/svg"
   xmlns="http://www.w3.org/2000/svg"
   version="1.1"
   width="1024"
   height="2048"
   id="svg3355">
  <defs
     id="defs3357" />
  <metadata
     id="metadata3360">
    <rdf:RDF>
      <cc:Work
         rdf:about="">
        <dc:format>image/svg+xml</dc:format>
        <dc:type
           rdf:resource="http://purl.org/dc/dcmitype/StillImage" />
        <dc:title></dc:title>
      </cc:Work>
    </rdf:RDF>
  </metadata>
  <g
     transform="matrix(-1,0,0,-1,1331.8693,1052.3622)"
     id="layer1-6" />
  <g
     transform="translate(307.86928,995.63782)"
     id="layer1-1" />
  <g
     transform="matrix(-1,0,0,1,2331.8693,995.63782)"
     id="layer1-5-2" />
  <g
     transform="translate(2025.2026,995.63782)"
     id="layer1-7" />
  <g
     transform="translate(130.35294,995.63782)"
     id="layer1-3" />
  <path
     d="m 160,512 0,157 535,0 -567,710 0,157 418,0 c 44.26421,76.5201 127.2457,128 222,128 141.38038,0 256,-114.6179 256,-256 0,-141.3821 -114.6167,-256 -256,-256 -131.57641,0 -239.59577,99.2739 -254,227 l -185,0 567,-710 0,-157 z m 608,776 c 66.2702,0 120,53.7308 120,120 0,66.2692 -53.73125,120 -120,120 -66.26875,0 -120,-53.7261 -120,-120 0,-66.2739 53.7298,-120 120,-120 z"
     id="path3157-2-7-7-2-8-2-3-7"
     style="fill:#000000;fill-opacity:1;stroke:none;display:inline" />
</svg>
