<?xml version="1.0" encoding="UTF-8" standalone="no"?>
<svg
   xmlns:dc="http://purl.org/dc/elements/1.1/"
   xmlns:cc="http://creativecommons.org/ns#"
   xmlns:rdf="http://www.w3.org/1999/02/22-rdf-syntax-ns#"
   xmlns:svg="http://www.w3.org/2000/svg"
   xmlns="http://www.w3.org/2000/svg"
   version="1.1"
   width="1024"
   height="2048"
   id="svg3355">
  <defs
     id="defs3357" />
  <metadata
     id="metadata3360">
    <rdf:RDF>
      <cc:Work
         rdf:about="">
        <dc:format>image/svg+xml</dc:format>
        <dc:type
           rdf:resource="http://purl.org/dc/dcmitype/StillImage" />
        <dc:title></dc:title>
      </cc:Work>
    </rdf:RDF>
  </metadata>
  <path
     d="m 433,256 v 256 c -252.99753,0 -409,205.00255 -409,536 0,302.0036 155.99727,488 409,488 119.00384,0 158,-38.9996 158,-157 V 669 h 240 l -224,355 48,157 h 113 c 56.0046,0 75,87.0001 75,227 0,139.9999 -63.00116,227 -165,227 H 512 v 149 c 0,0 -23.9994,16 166,16 199.00311,0 322,-150 322,-392 0,-237.0037 -57.99673,-384 -232,-384 L 992,669 V 512 H 591 V 256 Z m 0,413 v 710 c -155.99834,0 -252,-126.0026 -252,-331 0,-234.00066 95.99955,-379 252,-379 z"
     id="path3157-2-7-71-4-0-9"
     style="display:inline;fill:#000000;fill-opacity:1;stroke:none" />
</svg>
