<?xml version="1.0" encoding="UTF-8" standalone="no"?>
<svg
   xmlns:dc="http://purl.org/dc/elements/1.1/"
   xmlns:cc="http://creativecommons.org/ns#"
   xmlns:rdf="http://www.w3.org/1999/02/22-rdf-syntax-ns#"
   xmlns:svg="http://www.w3.org/2000/svg"
   xmlns="http://www.w3.org/2000/svg"
   version="1.1"
   width="1024"
   height="2048"
   id="svg3355">
  <defs
     id="defs3357" />
  <metadata
     id="metadata3360">
    <rdf:RDF>
      <cc:Work
         rdf:about="">
        <dc:format>image/svg+xml</dc:format>
        <dc:type
           rdf:resource="http://purl.org/dc/dcmitype/StillImage" />
        <dc:title></dc:title>
      </cc:Work>
    </rdf:RDF>
  </metadata>
  <g
     transform="matrix(-1,0,0,-1,1331.8693,1052.3622)"
     id="layer1-6" />
  <g
     transform="translate(307.86928,995.63782)"
     id="layer1-1" />
  <g
     transform="matrix(-1,0,0,1,2331.8693,995.63782)"
     id="layer1-5-2" />
  <g
     transform="translate(2025.2026,995.63782)"
     id="layer1-7" />
  <g
     transform="translate(130.35294,995.63782)"
     id="layer1-3" />
  <path
     id="path3157-2-7-7-2-8-2-3-1-1-3-33-4-3-4-9-8-2-6-0"
     style="display:inline;fill:#000000;fill-opacity:1;stroke:none;stroke-width:0.741635"
     d="M 32,256 154,817 H 358 L 512,543 666,817 H 870 L 992,256 H 831 L 736,696 581,421 H 443 L 288,696 193,256 Z" />
  <path
     id="path3157-2-7-7-2-8-2-3-1-1-3-33-4-3-4-9-8-2-6-0-0"
     style="display:inline;fill:#000000;fill-opacity:1;stroke:none;stroke-width:0.741635"
     d="m 32,975 122,561 h 204 l 154,-274 154,274 H 870 L 992,975 H 831 L 736,1415 581,1140 H 443 L 288,1415 193,975 Z" />
</svg>
