<?xml version="1.0" encoding="UTF-8" standalone="no"?>
<svg
   xmlns:dc="http://purl.org/dc/elements/1.1/"
   xmlns:cc="http://creativecommons.org/ns#"
   xmlns:rdf="http://www.w3.org/1999/02/22-rdf-syntax-ns#"
   xmlns:svg="http://www.w3.org/2000/svg"
   xmlns="http://www.w3.org/2000/svg"
   id="svg3355"
   height="2048"
   width="1024"
   version="1.1">
  <defs
     id="defs3357" />
  <metadata
     id="metadata3360">
    <rdf:RDF>
      <cc:Work
         rdf:about="">
        <dc:format>image/svg+xml</dc:format>
        <dc:type
           rdf:resource="http://purl.org/dc/dcmitype/StillImage" />
        <dc:title></dc:title>
      </cc:Work>
    </rdf:RDF>
  </metadata>
  <g
     transform="rotate(180,544,526.1811)"
     id="layer1-6">
    <path
       id="path3157-2-7-7-2-8-2-3-1-80"
       style="display:inline;fill:#000000;fill-opacity:1;stroke:none"
       d="M 73,248 C 28.002837,248 0,264 0,264 v 149 h 73 c 73.99613,0 119,63.9963 119,256 v 501 c 0,274.9983 146.9958,366 384,366 83.27599,0 155.4201,-19.8538 214,-45 v 301 H 960 V 512 H 790 v 814 c -58.5791,29.7901 -130.72333,53 -214,53 -131.99824,0 -214,-52.004 -214,-209 V 669 C 362,353.0046 251.99677,248 73,248 Z"
       transform="rotate(180,544,526.1811)" />
  </g>
  <g
     transform="rotate(40.979863,-2205.5033,565.5991)"
     id="layer1" />
</svg>
