<?xml version="1.0" encoding="UTF-8" standalone="no"?>
<svg
   xmlns:dc="http://purl.org/dc/elements/1.1/"
   xmlns:cc="http://creativecommons.org/ns#"
   xmlns:rdf="http://www.w3.org/1999/02/22-rdf-syntax-ns#"
   xmlns:svg="http://www.w3.org/2000/svg"
   xmlns="http://www.w3.org/2000/svg"
   id="svg3355"
   height="2048"
   width="1024"
   version="1.1">
  <defs
     id="defs3357" />
  <metadata
     id="metadata3360">
    <rdf:RDF>
      <cc:Work
         rdf:about="">
        <dc:format>image/svg+xml</dc:format>
        <dc:type
           rdf:resource="http://purl.org/dc/dcmitype/StillImage" />
        <dc:title></dc:title>
      </cc:Work>
    </rdf:RDF>
  </metadata>
  <path
     style="display:inline;fill:#000000;fill-opacity:1;stroke:none"
     id="path3157-2-7-7-2-8-2-3-1-80"
     d="M 73,248 C 28.002837,248 0,264 0,264 v 149 h 73 c 73.99612,0 119,63.9963 119,256 v 419 c 0,267.995 121.99805,357 320,357 92.99759,0 151,-16 151,-16 11.20957,277.3744 118.74275,371 288,371 42.9974,0 73,-16 73,-16 v -149 h -73 c -74.0032,0 -119,-64.0032 -119,-256 V 512 H 662 v 768 h -86 c -131.99868,0 -214,-48.0015 -214,-192 V 669 C 362,353.0046 251.99677,248 73,248 Z" />
</svg>
