<?xml version="1.0" encoding="UTF-8" standalone="no"?>
<svg
   xmlns:dc="http://purl.org/dc/elements/1.1/"
   xmlns:cc="http://creativecommons.org/ns#"
   xmlns:rdf="http://www.w3.org/1999/02/22-rdf-syntax-ns#"
   xmlns:svg="http://www.w3.org/2000/svg"
   xmlns="http://www.w3.org/2000/svg"
   id="svg3355"
   height="2048"
   width="1024"
   version="1.1">
  <defs
     id="defs3357" />
  <metadata
     id="metadata3360">
    <rdf:RDF>
      <cc:Work
         rdf:about="">
        <dc:format>image/svg+xml</dc:format>
        <dc:type
           rdf:resource="http://purl.org/dc/dcmitype/StillImage" />
        <dc:title></dc:title>
      </cc:Work>
    </rdf:RDF>
  </metadata>
  <path
     id="path3157-2-7-7-2-8-2-3-1-80"
     style="display:inline;fill:#000000;fill-opacity:1;stroke:none"
     d="M 73,248 C 28.002837,248 0,264 0,264 v 149 h 73 c 73.99612,0 119,63.9963 119,256 v 501 c 0,274.9984 121.99909,366 320,366 60.21367,0 113.13713,-8.5144 158,-21 28.6217,211.2677 130.55663,285 281,285 42.9974,0 73,-16 73,-16 v -149 h -73 c -74.0032,0 -119,-64.0032 -119,-256 V 512 H 662 v 845 c -43.08694,12.8255 -93.43558,22 -150,22 -92.9969,0 -150,-52.004 -150,-209 V 669 C 362,353.0046 251.99677,248 73,248 Z" />
  <g
     transform="rotate(180,-69.860204,526.18109)"
     id="layer1" />
</svg>
