<?xml version="1.0" encoding="UTF-8" standalone="no"?>
<!-- Created with Inkscape (http://www.inkscape.org/) -->

<svg
   xmlns:dc="http://purl.org/dc/elements/1.1/"
   xmlns:cc="http://creativecommons.org/ns#"
   xmlns:rdf="http://www.w3.org/1999/02/22-rdf-syntax-ns#"
   xmlns:svg="http://www.w3.org/2000/svg"
   xmlns="http://www.w3.org/2000/svg"
   version="1.1"
   width="1024"
   height="2048"
   id="svg3355">
  <defs
     id="defs3357" />
  <metadata
     id="metadata3360">
    <rdf:RDF>
      <cc:Work
         rdf:about="">
        <dc:format>image/svg+xml</dc:format>
        <dc:type
           rdf:resource="http://purl.org/dc/dcmitype/StillImage" />
        <dc:title></dc:title>
      </cc:Work>
    </rdf:RDF>
  </metadata>
  <path
     d="m 128,512 0,433 -128,0 0,158 128,0 0,433 256,0 c 345.9985,0 560,-74.0015 560,-295 0,-187.9979 -266,-235 -266,-235 0,0 202,-40.00033 202,-199 C 880,585.99697 690.9995,512 384,512 z m 170,157 86,0 c 201.0027,0 326,33.99795 326,138 0,104.00204 -125.01349,135.66295 -326,138 l -86,0 z m 0,434 86,0 c 240.9962,0 390,33.9988 390,138 0,104.0012 -149.0019,138 -390,138 l -86,0 z"
     id="path3157-2-7-3-2-2"
     style="fill:#000000;fill-opacity:1;stroke:none;display:inline" />
</svg>
