<?xml version="1.0" encoding="UTF-8" standalone="no"?>
<!-- Created with Inkscape (http://www.inkscape.org/) -->

<svg
   xmlns:dc="http://purl.org/dc/elements/1.1/"
   xmlns:cc="http://creativecommons.org/ns#"
   xmlns:rdf="http://www.w3.org/1999/02/22-rdf-syntax-ns#"
   xmlns:svg="http://www.w3.org/2000/svg"
   xmlns="http://www.w3.org/2000/svg"
   version="1.1"
   width="1024"
   height="2048"
   id="svg3355">
  <defs
     id="defs3357" />
  <metadata
     id="metadata3360">
    <rdf:RDF>
      <cc:Work
         rdf:about="">
        <dc:format>image/svg+xml</dc:format>
        <dc:type
           rdf:resource="http://purl.org/dc/dcmitype/StillImage" />
        <dc:title></dc:title>
      </cc:Work>
    </rdf:RDF>
  </metadata>
  <path
     d="m 1015,252 c -179.00196,0 -289,90.00112 -289,359 l -170,0 c -274.0044,0 -444,204.00004 -444,535 0,240.9979 129.99702,390 340,390 l 444,0 0,-925 c 0,-148.99887 44.9968,-198 119,-198 l 73,0 0,-153 c 0,0 -30.0026,-8 -73,-8 z m -459,516 170,0 0,611 -274,0 c -105.00323,0 -170,-89.0013 -170,-233 0,-233.9974 104.99842,-378 274,-378 z"
     id="path3157-2-7-7-2-8-2-3-1-9-4"
     style="fill:#000000;fill-opacity:1;stroke:none;display:inline" />
</svg>
