<?xml version="1.0" encoding="UTF-8" standalone="no"?>
<!-- Created with Inkscape (http://www.inkscape.org/) -->

<svg
   xmlns:dc="http://purl.org/dc/elements/1.1/"
   xmlns:cc="http://creativecommons.org/ns#"
   xmlns:rdf="http://www.w3.org/1999/02/22-rdf-syntax-ns#"
   xmlns:svg="http://www.w3.org/2000/svg"
   xmlns="http://www.w3.org/2000/svg"
   version="1.1"
   width="1024"
   height="2048"
   id="svg3355">
  <defs
     id="defs3357" />
  <metadata
     id="metadata3360">
    <rdf:RDF>
      <cc:Work
         rdf:about="">
        <dc:format>image/svg+xml</dc:format>
        <dc:type
           rdf:resource="http://purl.org/dc/dcmitype/StillImage" />
        <dc:title></dc:title>
      </cc:Work>
    </rdf:RDF>
  </metadata>
  <path
     d="m 430,248 c -187.0031,0 -302,90.99607 -302,363 l 0,826 170,0 0,-669 214,0 c 131.99868,0 214,48.00149 214,192 l 0,419 c 0,192.0037 -49.9994,256 -132,256 l -82,0 0,149 c 0,0 31.0038,16 82,16 187.0032,0 302,-105.0046 302,-421 l 0,-419 C 896,692.00495 749.00101,611 512,611 l -214,0 c 0,-149.00324 49.9994,-198 132,-198 l 82,0 0,-149 c 0,0 -31.0038,-16 -82,-16 z"
     id="path3157-2-7-7-2-8-2-3-1-80-3-7"
     style="fill:#000000;fill-opacity:1;stroke:none;display:inline" />
</svg>
