<?xml version="1.0" encoding="UTF-8" standalone="no"?>
<!-- Created with Inkscape (http://www.inkscape.org/) -->

<svg
   xmlns:dc="http://purl.org/dc/elements/1.1/"
   xmlns:cc="http://creativecommons.org/ns#"
   xmlns:rdf="http://www.w3.org/1999/02/22-rdf-syntax-ns#"
   xmlns:svg="http://www.w3.org/2000/svg"
   xmlns="http://www.w3.org/2000/svg"
   version="1.1"
   width="1024"
   height="2048"
   id="svg3355">
  <defs
     id="defs3357" />
  <metadata
     id="metadata3360">
    <rdf:RDF>
      <cc:Work
         rdf:about="">
        <dc:format>image/svg+xml</dc:format>
        <dc:type
           rdf:resource="http://purl.org/dc/dcmitype/StillImage" />
        <dc:title></dc:title>
      </cc:Work>
    </rdf:RDF>
  </metadata>
  <path
     d="m 64,512 0,768 c 0,168.0021 100.00217,264 263,264 108.99616,0 177,-69 177,-69 0,0 47.99753,69 193,69 39.14427,0 74.63453,-5.5547 106,-13.9688 l 0,261.9688 157,0 0,-1280 -157,0 0,846 c 0,0 -39.99988,48 -106,48 -66.00012,0 -106.60937,-48.0004 -106,-126 l 0,-768 -158,0 0,846 c 0,0 -39.99728,48 -106,48 -66.00272,0 -106,-48.0036 -106,-126 l 0,-768 z"
     id="path3157-2-7-7-2-8-2-4-8"
     style="fill:#000000;fill-opacity:1;stroke:none;display:inline" />
</svg>
