<?xml version="1.0" encoding="UTF-8" standalone="no"?>
<!-- Created with Inkscape (http://www.inkscape.org/) -->

<svg
   xmlns:dc="http://purl.org/dc/elements/1.1/"
   xmlns:cc="http://creativecommons.org/ns#"
   xmlns:rdf="http://www.w3.org/1999/02/22-rdf-syntax-ns#"
   xmlns:svg="http://www.w3.org/2000/svg"
   xmlns="http://www.w3.org/2000/svg"
   version="1.1"
   width="1024"
   height="2048"
   id="svg3355">
  <defs
     id="defs3357" />
  <metadata
     id="metadata3360">
    <rdf:RDF>
      <cc:Work
         rdf:about="">
        <dc:format>image/svg+xml</dc:format>
        <dc:type
           rdf:resource="http://purl.org/dc/dcmitype/StillImage" />
        <dc:title></dc:title>
      </cc:Work>
    </rdf:RDF>
  </metadata>
  <g
     transform="matrix(-1,0,0,-1,1331.8693,1052.3622)"
     id="layer1-6" />
  <g
     transform="translate(307.86928,995.63782)"
     id="layer1-1" />
  <g
     transform="matrix(-1,0,0,1,2331.8693,995.63782)"
     id="layer1-5-2" />
  <g
     transform="translate(2025.2026,995.63782)"
     id="layer1-7" />
  <g
     transform="translate(130.35294,995.63782)"
     id="layer1-3" />
  <path
     d="m 275,496 c -91.00237,0 -147,16 -147,16 l 0,149 147,0 c 236.99937,0 237,276 237,276 l -440,0 c 0,0 -16,103.0019 -16,269 0,209.0007 120.00038,338 313,338 181.47032,0 299.4806,-169.7039 318,-449 l 73,0 c 0,116.9969 61.99931,189 163,189 61.99958,0 101,-8 101,-8 l 0,-128 c -78.99872,0 -128,0 -128,-53 l 0,-158 -209,0 C 662.72156,662.67911 509.2825,496 275,496 z m -49,599 286,0 c 0,0 -9.9e-4,292 -143,292 -87.99766,0 -142.99999,-69.0039 -143,-181 z"
     id="path3157-2-7-7-2-8-2-3-1-1-3-3-6"
     style="fill:#000000;fill-opacity:1;stroke:none;display:inline" />
</svg>
