<?xml version="1.0" encoding="UTF-8" standalone="no"?>
<!-- Created with Inkscape (http://www.inkscape.org/) -->

<svg
   xmlns:dc="http://purl.org/dc/elements/1.1/"
   xmlns:cc="http://creativecommons.org/ns#"
   xmlns:rdf="http://www.w3.org/1999/02/22-rdf-syntax-ns#"
   xmlns:svg="http://www.w3.org/2000/svg"
   xmlns="http://www.w3.org/2000/svg"
   version="1.1"
   width="1024"
   height="2048"
   id="svg3355">
  <defs
     id="defs3357" />
  <metadata
     id="metadata3360">
    <rdf:RDF>
      <cc:Work
         rdf:about="">
        <dc:format>image/svg+xml</dc:format>
        <dc:type
           rdf:resource="http://purl.org/dc/dcmitype/StillImage" />
        <dc:title></dc:title>
      </cc:Work>
    </rdf:RDF>
  </metadata>
  <g
     transform="matrix(-1,0,0,-1,1331.8693,1052.3622)"
     id="layer1-6" />
  <g
     transform="translate(307.86928,995.63782)"
     id="layer1-1" />
  <g
     transform="matrix(-1,0,0,1,2331.8693,995.63782)"
     id="layer1-5-2" />
  <g
     transform="translate(2025.2026,995.63782)"
     id="layer1-7" />
  <g
     transform="translate(130.35294,995.63782)"
     id="layer1-3" />
  <path
     d="m 171,256 0,355 -171,0 0,157 171,0 0,454 c 0,236.0016 138.0035,314 362,314 l 299,0 c 106.04354,0 192,-85.9587 192,-192 0,-106.0412 -85.96096,-192 -192,-192 -58.30913,0 -110.78728,25.9704 -146,67 -13.22739,-50.4775 -20,-114.6405 -20,-195 0,-219.00078 77.00349,-355 201,-355 l 125,0 0,-149 c 0,0 -47.99751,-16 -125,-16 -99.7881,0 -182.80168,37.79546 -245,107 l -281,0 0,-355 z m 170,512 193,0 c -24.53567,72.71139 -38,158.7535 -38,256 0,160.1639 23.911,275.1227 68,355 l -31,0 c -119.0013,0 -192,-39.004 -192,-157 z m 491,512 c 35.3519,0 64,28.6498 64,64 0,35.3503 -28.6474,64 -64,64 -35.3527,0 -64,-28.649 -64,-64 0,-35.351 28.6481,-64 64,-64 z"
     id="path3157-2-7-7-2-8-2-3-7-2-0"
     style="fill:#000000;fill-opacity:1;stroke:none;display:inline" />
</svg>
