<?xml version="1.0" encoding="UTF-8" standalone="no"?>
<!-- Created with Inkscape (http://www.inkscape.org/) -->

<svg
   xmlns:dc="http://purl.org/dc/elements/1.1/"
   xmlns:cc="http://creativecommons.org/ns#"
   xmlns:rdf="http://www.w3.org/1999/02/22-rdf-syntax-ns#"
   xmlns:svg="http://www.w3.org/2000/svg"
   xmlns="http://www.w3.org/2000/svg"
   version="1.1"
   width="1024"
   height="2048"
   id="svg3355">
  <defs
     id="defs3357" />
  <metadata
     id="metadata3360">
    <rdf:RDF>
      <cc:Work
         rdf:about="">
        <dc:format>image/svg+xml</dc:format>
        <dc:type
           rdf:resource="http://purl.org/dc/dcmitype/StillImage" />
        <dc:title></dc:title>
      </cc:Work>
    </rdf:RDF>
  </metadata>
  <path
     d="m 171,256 0,355 -171,0 0,157 171,0 0,454 c 0,236.0016 138.0035,314 362,314 l 100,0 c 227,0 367,-65.9992 367,-292 0,-347.998 -318,-219.997 -318,-439 0,-101.9988 65.9974,-136 172,-136 l 106,0 0,-149 c 0,0 -40.0026,-16 -106,-16 -132.19282,0 -233.15028,29.43516 -290,107 l -223,0 0,-355 z m 170,512 171,0 0,37 c 0,346.9969 318,219.0001 318,439 0,101.9953 -75.0016,135 -197,135 l -100,0 c -119.0013,0 -192,-39.004 -192,-157 z"
     id="path3157-3-3"
     style="fill:#000000;fill-opacity:1;stroke:none;display:inline" />
</svg>
