<?xml version="1.0" encoding="UTF-8" standalone="no"?>
<!-- Created with Inkscape (http://www.inkscape.org/) -->

<svg
   xmlns:dc="http://purl.org/dc/elements/1.1/"
   xmlns:cc="http://creativecommons.org/ns#"
   xmlns:rdf="http://www.w3.org/1999/02/22-rdf-syntax-ns#"
   xmlns:svg="http://www.w3.org/2000/svg"
   xmlns="http://www.w3.org/2000/svg"
   version="1.1"
   width="1024"
   height="2048"
   id="svg3355">
  <defs
     id="defs3357" />
  <metadata
     id="metadata3360">
    <rdf:RDF>
      <cc:Work
         rdf:about="">
        <dc:format>image/svg+xml</dc:format>
        <dc:type
           rdf:resource="http://purl.org/dc/dcmitype/StillImage" />
        <dc:title></dc:title>
      </cc:Work>
    </rdf:RDF>
  </metadata>
  <path
     d="M 512,1552 C 244.99571,1552 80,1434.0023 80,1081 80,845.99669 308,669 308,669 l -244,0 0,-157 346,0 0,256 c 0,0 -160,77.99746 -160,313 0,235.0025 100.00144,314 262,314 161.99856,0 262,-79.0019 262,-314 C 774,846.00195 614,768 614,768 l 0,-256 346,0 0,157 -244,0 c 0,0 228,176.99679 228,412 0,352.9982 -164.99571,471 -432,471 z"
     id="path4946"
     style="fill:#000000;fill-opacity:1;stroke:none;display:inline" />
</svg>
