<?xml version="1.0" encoding="UTF-8" standalone="no"?>
<!-- Created with Inkscape (http://www.inkscape.org/) -->

<svg
   xmlns:dc="http://purl.org/dc/elements/1.1/"
   xmlns:cc="http://creativecommons.org/ns#"
   xmlns:rdf="http://www.w3.org/1999/02/22-rdf-syntax-ns#"
   xmlns:svg="http://www.w3.org/2000/svg"
   xmlns="http://www.w3.org/2000/svg"
   version="1.1"
   width="1024"
   height="2048"
   id="svg3355">
  <defs
     id="defs3357" />
  <metadata
     id="metadata3360">
    <rdf:RDF>
      <cc:Work
         rdf:about="">
        <dc:format>image/svg+xml</dc:format>
        <dc:type
           rdf:resource="http://purl.org/dc/dcmitype/StillImage" />
        <dc:title></dc:title>
      </cc:Work>
    </rdf:RDF>
  </metadata>
  <path
     d="M 697,512 536,747 C 441.33261,658.1916 325.39136,611 192,611 l 0,157 c 97.99471,0 183.81582,38.39856 254,111 l -382,558 588,0 c 7.34476,70.9604 11,146.7471 11,227 l 157,0 c 0,-79.472 -4.01418,-155.228 -11,-227 l 151,0 0,-157 -172,0 C 758.0446,1117.5621 707.7353,980.56924 640,874 L 827,601 z m -155,506 c 37.06343,73.1022 65.53251,160.8525 86,262 l -266,0 z"
     id="path3705-44-9-5-7-2-9"
     style="fill:#000000;fill-opacity:1;stroke:none;display:inline" />
</svg>
