<?xml version="1.0" encoding="UTF-8" standalone="no"?>
<!-- Created with Inkscape (http://www.inkscape.org/) -->

<svg
   xmlns:dc="http://purl.org/dc/elements/1.1/"
   xmlns:cc="http://creativecommons.org/ns#"
   xmlns:rdf="http://www.w3.org/1999/02/22-rdf-syntax-ns#"
   xmlns:svg="http://www.w3.org/2000/svg"
   xmlns="http://www.w3.org/2000/svg"
   version="1.1"
   width="1024"
   height="2048"
   id="svg3355">
  <defs
     id="defs3357" />
  <metadata
     id="metadata3360">
    <rdf:RDF>
      <cc:Work
         rdf:about="">
        <dc:format>image/svg+xml</dc:format>
        <dc:type
           rdf:resource="http://purl.org/dc/dcmitype/StillImage" />
        <dc:title></dc:title>
      </cc:Work>
    </rdf:RDF>
  </metadata>
  <path
     d="m 640,384.00001 c 0,-70.69044 -57.30884,-128 -128,-128 -70.69116,0 -128,57.31185 -128,128 0,70.68815 57.31418,128 128,128 70.68582,0 128,-57.30956 128,-128 z m 0,512.00002 c 0,-70.69044 -57.30884,-128 -128,-128 -70.69116,0 -128,57.31185 -128,128 C 384,966.68818 441.31418,1024 512,1024 c 70.68582,0 128,-57.30953 128,-127.99997 z M 640,1408 c 0,-70.6904 -57.30884,-128 -128,-128 -70.69116,0 -128,57.3119 -128,128 0,70.6882 57.31418,128 128,128 70.68582,0 128,-57.3095 128,-128 z"
     id="path6876-3-6"
     style="fill:#000000;fill-opacity:1;stroke:none;display:inline" />
</svg>
