<?xml version="1.0" encoding="UTF-8" standalone="no"?>
<!-- Created with Inkscape (http://www.inkscape.org/) -->

<svg
   xmlns:dc="http://purl.org/dc/elements/1.1/"
   xmlns:cc="http://creativecommons.org/ns#"
   xmlns:rdf="http://www.w3.org/1999/02/22-rdf-syntax-ns#"
   xmlns:svg="http://www.w3.org/2000/svg"
   xmlns="http://www.w3.org/2000/svg"
   version="1.1"
   width="1024"
   height="2048"
   id="svg3355">
  <defs
     id="defs3357" />
  <metadata
     id="metadata3360">
    <rdf:RDF>
      <cc:Work
         rdf:about="">
        <dc:format>image/svg+xml</dc:format>
        <dc:type
           rdf:resource="http://purl.org/dc/dcmitype/StillImage" />
        <dc:title></dc:title>
      </cc:Work>
    </rdf:RDF>
  </metadata>
  <path
     d="M 742,91 C 546.99849,91 427,251.99838 427,512 l 0,9.00025 C 255.81781,559.68006 128,713.12678 128,896 c 0,182.8732 127.81571,336.3202 299,375 l 0,9 c 0,158.0042 -54.99731,256 -145,256 l -90,0 0,149 c 0,0 33.99512,16 90,16 195.00043,0 315,-161.0007 315,-421 l 0,-9 C 768.18416,1232.3244 896,1078.8926 896,896 896,713.10748 768.18206,559.67534 597,520.99975 L 597,512 c 0,-158.0013 55.00151,-256 145,-256 l 90,0 0,-149 c 0,0 -33.99744,-16 -90,-16 z m -315,563 0,484 C 327.39119,1102.9527 256,1007.5933 256,896 256,784.40667 327.39192,689.04733 427,654 z m 170,0 c 99.60803,35.04393 171,130.39489 171,242 0,111.6052 -71.39123,206.9561 -171,242 z"
     id="path3671-6-1-9"
     style="fill:#000000;fill-opacity:1;stroke:none;display:inline" />
</svg>
