<?xml version="1.0" encoding="UTF-8" standalone="no"?>
<!-- Created with Inkscape (http://www.inkscape.org/) -->

<svg
   xmlns:dc="http://purl.org/dc/elements/1.1/"
   xmlns:cc="http://creativecommons.org/ns#"
   xmlns:rdf="http://www.w3.org/1999/02/22-rdf-syntax-ns#"
   xmlns:svg="http://www.w3.org/2000/svg"
   xmlns="http://www.w3.org/2000/svg"
   version="1.1"
   width="1024"
   height="2048"
   id="svg3355">
  <defs
     id="defs3357" />
  <metadata
     id="metadata3360">
    <rdf:RDF>
      <cc:Work
         rdf:about="">
        <dc:format>image/svg+xml</dc:format>
        <dc:type
           rdf:resource="http://purl.org/dc/dcmitype/StillImage" />
        <dc:title></dc:title>
      </cc:Work>
    </rdf:RDF>
  </metadata>
  <path
     d="M 383,95 C 211.99693,95 107,254.00135 107,512 l 0,101 C -2.892105,683.17283 -64,784.23853 -64,896 c 0,111.7614 61.107053,212.8272 171,283 l 0,101 c 0,158.0042 -39.99628,256 -106,256 l -65,0 0,153 c 0,0 24.999581,8 65,8 171.00307,0 276,-159.0014 276,-417 l 0,-29 c 46.02792,12.2931 96.14443,21.573 150,26 l 0,3 c 0,158.0042 -39.99628,256 -106,256 l -65,0 0,153 c 0,0 24.99958,8 65,8 171.00307,0 276,-159.0014 276,-417 l 0,-3 c 53.85557,-4.4265 103.97208,-13.708 150,-26 l 0,29 c 0,158.0042 -39.99628,256 -106,256 l -65,0 0,153 c 0,0 24.99958,8 65,8 171.00307,0 276,-159.0014 276,-417 l 0,-101 c 109.8929,-70.1695 171,-171.2267 171,-283 0,-111.77326 -61.1079,-212.83042 -171,-283 l 0,-101 c 0,-158.0042 39.9963,-256 106,-256 l 65,0 0,-153 c 0,0 -24.9996,-8 -65,-8 -171.00307,0 -276,159.00135 -276,417 l 0,29 C 700.97184,528.70793 650.85637,519.42643 597,515 l 0,-3 c 0,-158.0042 39.99628,-256 106,-256 l 65,0 0,-153 c 0,0 -24.99958,-8 -65,-8 -171.00307,0 -276,159.00135 -276,417 l 0,3 c -53.85637,4.42695 -103.97184,13.70681 -150,26 l 0,-29 c 0,-158.0042 39.99628,-256 106,-256 l 65,0 0,-153 c 0,0 -24.99958,-8 -65,-8 z m 44,549 0,504 c -55.67529,-5.152 -105.89651,-15.635 -150,-30 l 0,-444 c 44.10349,-14.36501 94.32474,-24.84798 150,-30 z m 170,0 c 55.67526,5.15143 105.89651,15.63608 150,30 l 0,444 c -44.10349,14.3639 -94.32471,24.8486 -150,30 z m 320,136 c 28.1159,34.80474 43,74.26895 43,116 0,41.7311 -14.8841,81.1953 -43,116 z m -810,0 0,232 C 78.88977,977.201 64,937.7288 64,896 64,854.27151 78.89189,814.80099 107,780 z"
     id="path5291-1-6-8"
     style="fill:#000000;fill-opacity:1;stroke:none;display:inline" />
</svg>
