<?xml version="1.0" encoding="UTF-8" standalone="no"?>
<svg
   xmlns:dc="http://purl.org/dc/elements/1.1/"
   xmlns:cc="http://creativecommons.org/ns#"
   xmlns:rdf="http://www.w3.org/1999/02/22-rdf-syntax-ns#"
   xmlns:svg="http://www.w3.org/2000/svg"
   xmlns="http://www.w3.org/2000/svg"
   version="1.1"
   width="1024"
   height="2048"
   id="svg3355">
  <defs
     id="defs3357" />
  <metadata
     id="metadata3360">
    <rdf:RDF>
      <cc:Work
         rdf:about="">
        <dc:format>image/svg+xml</dc:format>
        <dc:type
           rdf:resource="http://purl.org/dc/dcmitype/StillImage" />
        <dc:title></dc:title>
      </cc:Work>
    </rdf:RDF>
  </metadata>
  <path
     id="path3127-7-7"
     style="display:inline;fill:#000000;fill-opacity:1;stroke:none"
     d="M 512,240 C 245.0032,240 80,491.0022 80,896 c 0,404.9978 164.99551,656 432,656 267.00449,0 432,-250.9962 432,-656 C 944,490.99617 778.9968,240 512,240 Z m 0,157 c 94.37913,0 167.02282,69.02865 210,191 l -454,467 c -6.48807,-48.7618 -10,-101.64607 -10,-159 0,-308.00167 97.00215,-499 254,-499 z m 244,340 c 6.48838,48.76223 10,101.64584 10,159 0,307.9988 -96.9995,499 -254,499 -94.3799,0 -167.02318,-69.0308 -210,-191 z" />
</svg>
