<?xml version="1.0" encoding="UTF-8" standalone="no"?>
<!-- Created with Inkscape (http://www.inkscape.org/) -->

<svg
   xmlns:dc="http://purl.org/dc/elements/1.1/"
   xmlns:cc="http://creativecommons.org/ns#"
   xmlns:rdf="http://www.w3.org/1999/02/22-rdf-syntax-ns#"
   xmlns:svg="http://www.w3.org/2000/svg"
   xmlns="http://www.w3.org/2000/svg"
   version="1.1"
   width="1024"
   height="2048"
   id="svg3355">
  <defs
     id="defs3357" />
  <metadata
     id="metadata3360">
    <rdf:RDF>
      <cc:Work
         rdf:about="">
        <dc:format>image/svg+xml</dc:format>
        <dc:type
           rdf:resource="http://purl.org/dc/dcmitype/StillImage" />
        <dc:title></dc:title>
      </cc:Work>
    </rdf:RDF>
  </metadata>
  <path
     d="m 512,239.99996 c -266.9968,0 -432,251.0022 -432,656 C 80,1300.9978 244.99551,1552 512,1552 c 267.00449,0 432,-250.9962 432,-656.00004 0,-405.00383 -165.0032,-656 -432,-656 z m 0,157 c 156.99785,0 254,191.00124 254,499 C 766,1203.9988 669.0005,1395 512,1395 354.9995,1395 258,1204.0017 258,895.99996 c 0,-308.00167 97.00215,-499 254,-499 z m -85,371 0,256.00004 170,0 0,-256.00004 z"
     id="path3127-7-7"
     style="fill:#000000;fill-opacity:1;stroke:none;display:inline" />
</svg>
