<?xml version="1.0" encoding="UTF-8" standalone="no"?>
<!-- Created with Inkscape (http://www.inkscape.org/) -->

<svg
   xmlns:dc="http://purl.org/dc/elements/1.1/"
   xmlns:cc="http://creativecommons.org/ns#"
   xmlns:rdf="http://www.w3.org/1999/02/22-rdf-syntax-ns#"
   xmlns:svg="http://www.w3.org/2000/svg"
   xmlns="http://www.w3.org/2000/svg"
   version="1.1"
   width="1024"
   height="2048"
   id="svg3355">
  <defs
     id="defs3357" />
  <metadata
     id="metadata3360">
    <rdf:RDF>
      <cc:Work
         rdf:about="">
        <dc:format>image/svg+xml</dc:format>
        <dc:type
           rdf:resource="http://purl.org/dc/dcmitype/StillImage" />
        <dc:title></dc:title>
      </cc:Work>
    </rdf:RDF>
  </metadata>
  <path
     d="m 112,565.99998 c 0,167.0017 238,270 238,270 0,0 -270,128.99739 -270,337.00002 0,233.9959 165.0048,379 432,379 266.99519,0 432,-145.0006 432,-379 0,-207.99904 -270,-337.00002 -270,-337.00002 0,0 238,-103.00056 238,-270 C 912,364.9966 759.00319,240 512,240 264.99679,240 112,364.9989 112,565.99998 z m 170,0 C 282,461.99996 370.00443,397 512,397 c 141.99557,0 230,64.99668 230,168.99998 0,125.00419 -230,202.00001 -230,202.00001 0,0 -230.00001,-77.00253 -230,-202.00001 z m 230,338 c 0,0 262,103.00142 262,269.00002 0,126.9951 -99.99891,206 -262,206 -162.00109,0 -262.00001,-79.003 -262.00001,-206 C 249.99999,1006.997 512,903.99998 512,903.99998 z"
     id="path3157-2-7-3-2-8"
     style="fill:#000000;fill-opacity:1;stroke:none;display:inline" />
</svg>
