<?xml version="1.0" encoding="UTF-8" standalone="no"?>
<svg
   xmlns:dc="http://purl.org/dc/elements/1.1/"
   xmlns:cc="http://creativecommons.org/ns#"
   xmlns:rdf="http://www.w3.org/1999/02/22-rdf-syntax-ns#"
   xmlns:svg="http://www.w3.org/2000/svg"
   xmlns="http://www.w3.org/2000/svg"
   version="1.1"
   width="1024"
   height="2048"
   id="svg3355">
  <defs
     id="defs3357" />
  <metadata
     id="metadata3360">
    <rdf:RDF>
      <cc:Work
         rdf:about="">
        <dc:format>image/svg+xml</dc:format>
        <dc:type
           rdf:resource="http://purl.org/dc/dcmitype/StillImage" />
        <dc:title></dc:title>
      </cc:Work>
    </rdf:RDF>
  </metadata>
  <path
     d="m 586,239.99996 c -332.99502,0 -538,163.99741 -538,656 C 48,1381.9982 271.00207,1544 631,1544 c 164.00428,0 265,-16 265,-16 V 1390 H 631 c -255.00157,0 -413,-122.9978 -413,-494.00004 0,-371.00219 140.99818,-510 368,-510 141.00035,0 228,55.99548 228,146 v 90 H 627 c -166.00092,0 -269,92.9951 -269,244 C 358,1054.0024 461.00336,1170 627,1170 h 187 c 110.00334,0 146,-36.0052 146,-146 V 531.99996 c 0,-179.9976 -143.00363,-292 -374,-292 z m 41,528 H 814 V 1024 H 627 c -71.00123,0 -115,-60.0038 -115,-158.00004 0,-60.99905 43.99933,-98 115,-98 z"
     id="path3157-2-7-7-2-8-2-3-1-1-3-3-8"
     style="display:inline;fill:#000000;fill-opacity:1;stroke:none" />
</svg>
