<?xml version="1.0" encoding="UTF-8" standalone="no"?>
<!-- Created with Inkscape (http://www.inkscape.org/) -->

<svg
   xmlns:dc="http://purl.org/dc/elements/1.1/"
   xmlns:cc="http://creativecommons.org/ns#"
   xmlns:rdf="http://www.w3.org/1999/02/22-rdf-syntax-ns#"
   xmlns:svg="http://www.w3.org/2000/svg"
   xmlns="http://www.w3.org/2000/svg"
   version="1.1"
   width="1024"
   height="2048"
   id="svg3355">
  <defs
     id="defs3357" />
  <metadata
     id="metadata3360">
    <rdf:RDF>
      <cc:Work
         rdf:about="">
        <dc:format>image/svg+xml</dc:format>
        <dc:type
           rdf:resource="http://purl.org/dc/dcmitype/StillImage" />
        <dc:title></dc:title>
      </cc:Work>
    </rdf:RDF>
  </metadata>
  <path
     d="m 586,239.99996 c -332.99502,0 -538,163.99741 -538,656 C 48,1388.0026 271.00207,1552 631,1552 c 164.00428,0 265,-11.4934 265,-11.4934 L 896,1390 l -265,0 c -255.00157,0 -413,-122.9978 -413,-494.00004 0,-371.00219 140.99818,-510 368,-510 141.00035,0 228,55.99548 228,146 l 0,90 -187,0 c -166.00495,0 -269,92.9951 -269,244 C 358,1054.0024 487.99511,1170 699,1170 l 261,0 0,-638.00004 c 0,-179.9976 -143.00363,-292 -374,-292 z m 41,528 187,0 0,256.00004 -115,0 c -115.99695,0 -187,-60.0038 -187,-158.00004 0,-60.99905 43.99795,-98 115,-98 z"
     id="path3157-2-7-7-2-8-2-3-1-1-3-3-8"
     style="fill:#000000;fill-opacity:1;stroke:none;display:inline" />
</svg>
