<?xml version="1.0" encoding="UTF-8" standalone="no"?>
<!-- Created with Inkscape (http://www.inkscape.org/) -->

<svg
   xmlns:dc="http://purl.org/dc/elements/1.1/"
   xmlns:cc="http://creativecommons.org/ns#"
   xmlns:rdf="http://www.w3.org/1999/02/22-rdf-syntax-ns#"
   xmlns:svg="http://www.w3.org/2000/svg"
   xmlns="http://www.w3.org/2000/svg"
   version="1.1"
   width="1024"
   height="2048"
   id="svg3355">
  <defs
     id="defs3357" />
  <metadata
     id="metadata3360">
    <rdf:RDF>
      <cc:Work
         rdf:about="">
        <dc:format>image/svg+xml</dc:format>
        <dc:type
           rdf:resource="http://purl.org/dc/dcmitype/StillImage" />
        <dc:title></dc:title>
      </cc:Work>
    </rdf:RDF>
  </metadata>
  <path
     d="M 640,248 C 273.99739,248 80,496.00316 80,896 c 0,485.9991 186.00183,648 487,648 223.00019,0 361,-66.0041 361,-264 L 927.99999,768 512,768 l 0,157 245.99997,0 3e-5,355 c 10e-6,80.001 -72.99787,107 -191,107 -191.00186,0 -309,-123.0001 -309,-491 0,-299.00215 125.99702,-483 382,-483 l 255.99999,0 0,-149 c 0,0 -104.99787,-16 -255.99999,-16 z"
     id="path3157-2-7-7-2-8-2-3-1-8-2-6-4-3"
     style="fill:#000000;fill-opacity:1;stroke:none;display:inline" />
</svg>
