<?xml version="1.0" encoding="UTF-8" standalone="no"?>
<svg
   xmlns:dc="http://purl.org/dc/elements/1.1/"
   xmlns:cc="http://creativecommons.org/ns#"
   xmlns:rdf="http://www.w3.org/1999/02/22-rdf-syntax-ns#"
   xmlns:svg="http://www.w3.org/2000/svg"
   xmlns="http://www.w3.org/2000/svg"
   version="1.1"
   width="1024"
   height="2048"
   id="svg3355">
  <defs
     id="defs3357" />
  <metadata
     id="metadata3360">
    <rdf:RDF>
      <cc:Work
         rdf:about="">
        <dc:format>image/svg+xml</dc:format>
        <dc:type
           rdf:resource="http://purl.org/dc/dcmitype/StillImage" />
        <dc:title></dc:title>
      </cc:Work>
    </rdf:RDF>
  </metadata>
  <g
     transform="translate(0,995.63782)"
     id="layer1" />
  <path
     d="m 416,504.00004 c -118.9986,0 -192,16 -192,16 v 149 h 192 c 232.99575,0 310,43.00483 310,171 v 105 H 452 c -210.00138,0 -340,99.99876 -340,262.99996 0,203.0026 129.99296,328 340,328 h 188 c 192.00119,0 256,-63.9985 256,-256 V 840.00004 c 0,-252.00175 -119.99888,-336 -480,-336 z M 452,1103 h 274 v 177 c 0,73.9961 -20.99731,99 -86,99 H 452 c -105.00299,0 -170,-65.0042 -170,-171 0,-64.9959 65.00205,-105 170,-105 z"
     id="path3157-2-7-7-2-8-2-3-1-1-3-3"
     style="display:inline;fill:#000000;fill-opacity:1;stroke:none" />
</svg>
