<?xml version="1.0" encoding="UTF-8" standalone="no"?>
<svg
   xmlns:dc="http://purl.org/dc/elements/1.1/"
   xmlns:cc="http://creativecommons.org/ns#"
   xmlns:rdf="http://www.w3.org/1999/02/22-rdf-syntax-ns#"
   xmlns:svg="http://www.w3.org/2000/svg"
   xmlns="http://www.w3.org/2000/svg"
   version="1.1"
   width="1024"
   height="2048"
   id="svg3355">
  <defs
     id="defs3357" />
  <metadata
     id="metadata3360">
    <rdf:RDF>
      <cc:Work
         rdf:about="">
        <dc:format>image/svg+xml</dc:format>
        <dc:type
           rdf:resource="http://purl.org/dc/dcmitype/StillImage" />
        <dc:title></dc:title>
      </cc:Work>
    </rdf:RDF>
  </metadata>
  <g
     transform="translate(0,995.63782)"
     id="layer1" />
  <path
     id="path3157-2-7-7-2-8-2-3-1-1-3-33"
     style="display:inline;fill:#000000;fill-opacity:1;stroke:none"
     d="m 896,256 v 1024 c 0,191.9987 -63.99688,256 -256,256 h -84 c -274.00229,0 -444,-185.9968 -444,-488 0,-331.00366 152.99589,-536 400,-536 83.27599,0 155.4201,19.85379 214,45 V 256 Z M 512,669 c -142.00216,0 -230,145.00357 -230,379 0,204.997 105.00132,331 274,331 h 84 c 53.01094,0 86,-37.9984 86,-99 V 722 C 667.42085,692.20987 595.27667,669 512,669 Z" />
</svg>
