<?xml version="1.0" encoding="UTF-8" standalone="no"?>
<svg
   xmlns:dc="http://purl.org/dc/elements/1.1/"
   xmlns:cc="http://creativecommons.org/ns#"
   xmlns:rdf="http://www.w3.org/1999/02/22-rdf-syntax-ns#"
   xmlns:svg="http://www.w3.org/2000/svg"
   xmlns="http://www.w3.org/2000/svg"
   version="1.1"
   width="1024"
   height="2048"
   id="svg3355">
  <defs
     id="defs3357" />
  <metadata
     id="metadata3360">
    <rdf:RDF>
      <cc:Work
         rdf:about="">
        <dc:format>image/svg+xml</dc:format>
        <dc:type
           rdf:resource="http://purl.org/dc/dcmitype/StillImage" />
        <dc:title></dc:title>
      </cc:Work>
    </rdf:RDF>
  </metadata>
  <g
     transform="translate(0,995.63782)"
     id="layer1" />
  <g
     transform="translate(0,995.63782)"
     id="layer1-15"
     style="display:inline">
    <path
       d="m 557,548.36218 c 160.36898,0 275,-16 275,-16 v -149 H 557 c -267.00108,0 -266.99999,-276 -266.99999,-276 H 726 c 128.00077,0 170,-39.001579 170,-158 v -69 c 0,-235.00376 -146.99895,-380 -384,-380 -246.99752,0 -400,202.00482 -400,528 0,320.9979 169.99738,520 445,520 z m 169,-599 H 289.99999 c 0,0 0.003,-292 222.00001,-292 131.99912,0 214,84.99811 214,223 z"
       id="path3157-2-7-7-2-8-2-3-1-1-3-3-6"
       style="display:inline;fill:#000000;fill-opacity:1;stroke:none" />
  </g>
</svg>
