<?xml version="1.0" encoding="UTF-8" standalone="no"?>
<svg
   xmlns:dc="http://purl.org/dc/elements/1.1/"
   xmlns:cc="http://creativecommons.org/ns#"
   xmlns:rdf="http://www.w3.org/1999/02/22-rdf-syntax-ns#"
   xmlns:svg="http://www.w3.org/2000/svg"
   xmlns="http://www.w3.org/2000/svg"
   version="1.1"
   width="1024"
   height="2048"
   id="svg3355">
  <defs
     id="defs3357" />
  <metadata
     id="metadata3360">
    <rdf:RDF>
      <cc:Work
         rdf:about="">
        <dc:format>image/svg+xml</dc:format>
        <dc:type
           rdf:resource="http://purl.org/dc/dcmitype/StillImage" />
        <dc:title></dc:title>
      </cc:Work>
    </rdf:RDF>
  </metadata>
  <path
     d="m 556,512.00003 c -274.00378,0 -444,148.99939 -444,389.99997 0,234.0003 152.99847,378 400,378 h 214 v 136 c 0,163.996 -118.00485,219 -310,219 H 224 v 149 c 0,0 72.99541,16 192,16 296.9965,0 480,-101.9967 480,-384 V 768.00003 c 0,-191.99695 -63.99797,-256 -256,-256 z m 0,157 h 84 c 52.99928,0 86,37.99997 86,99 V 1123 H 512 C 370.00282,1123 282,1038.9974 282,902 282,758.00328 387.00411,669.00003 556,669.00003 Z"
     id="path3157-2-7-7-2-8-2-3-1-1"
     style="display:inline;fill:#000000;fill-opacity:1;stroke:none" />
</svg>
