<?xml version="1.0" encoding="UTF-8" standalone="no"?>
<!-- Created with Inkscape (http://www.inkscape.org/) -->

<svg
   xmlns:dc="http://purl.org/dc/elements/1.1/"
   xmlns:cc="http://creativecommons.org/ns#"
   xmlns:rdf="http://www.w3.org/1999/02/22-rdf-syntax-ns#"
   xmlns:svg="http://www.w3.org/2000/svg"
   xmlns="http://www.w3.org/2000/svg"
   version="1.1"
   width="1024"
   height="2048"
   id="svg3355">
  <defs
     id="defs3357" />
  <metadata
     id="metadata3360">
    <rdf:RDF>
      <cc:Work
         rdf:about="">
        <dc:format>image/svg+xml</dc:format>
        <dc:type
           rdf:resource="http://purl.org/dc/dcmitype/StillImage" />
        <dc:title></dc:title>
      </cc:Work>
    </rdf:RDF>
  </metadata>
  <path
     d="m 784,248 c -132.99569,0 -216,82.00247 -216,328 0,245.99753 83.00443,328 216,328 132.99557,0 216,-82.00383 216,-328 0,-245.99617 -83.00431,-328 -216,-328 z m -752,8 0,1280 146,0 0,-909 188,512 0,397 146,0 0,-1280 -146,0 0,512 -188,-512 -146,0 z m 752,128 c 42.9968,0 70,48.0047 70,192 0,143.9953 -27.00348,192 -70,192 -42.99652,0 -70,-47.99725 -70,-192 0,-144.00275 27.0032,-192 70,-192 z m -208,640 0,128 416,0 0,-128 -416,0 z"
     id="path7781"
     style="fill:#000000;fill-opacity:1;stroke:none;display:inline" />
</svg>
