<?xml version="1.0" encoding="UTF-8" standalone="no"?>
<!-- Created with Inkscape (http://www.inkscape.org/) -->

<svg
   xmlns:dc="http://purl.org/dc/elements/1.1/"
   xmlns:cc="http://creativecommons.org/ns#"
   xmlns:rdf="http://www.w3.org/1999/02/22-rdf-syntax-ns#"
   xmlns:svg="http://www.w3.org/2000/svg"
   xmlns="http://www.w3.org/2000/svg"
   version="1.1"
   width="1024"
   height="2048"
   id="svg3355">
  <defs
     id="defs3357" />
  <metadata
     id="metadata3360">
    <rdf:RDF>
      <cc:Work
         rdf:about="">
        <dc:format>image/svg+xml</dc:format>
        <dc:type
           rdf:resource="http://purl.org/dc/dcmitype/StillImage" />
        <dc:title></dc:title>
      </cc:Work>
    </rdf:RDF>
  </metadata>
  <path
     d="m 208,256 -176,176 91,90 85,-85 0,459 136,0 0,-640 -136,0 z m 595,0 -739,1280 157,0 739,-1280 -157,0 z m -35,632 c -128.99861,0 -208,66.9972 -208,175 0,86.9992 128,140 128,140 0,0 -144,60.0013 -144,156 0,114.002 86.00222,185 224,185 137.99778,0 224,-70.9976 224,-185 0,-95.9964 -144,-156 -144,-156 0,0 128,-52.9979 128,-140 0,-107.996 -79.0014,-175 -208,-175 z m 0,120 c 49.00171,0 80,20.9963 80,55 0,55.9999 -80,89 -80,89 0,0 -80,-33.0013 -80,-89 0,-33.9967 30.99829,-55 80,-55 z m 0,246 c 0,0 96,40.001 96,105 0,40.0034 -37.00477,65 -96,65 -58.99523,0 -96,-25.0018 -96,-65 0,-64.9968 96,-105 96,-105 z"
     id="path3616"
     style="fill:#000000;fill-opacity:1;stroke:none;display:inline" />
</svg>
