<?xml version="1.0" encoding="UTF-8" standalone="no"?>
<!-- Created with Inkscape (http://www.inkscape.org/) -->

<svg
   xmlns:dc="http://purl.org/dc/elements/1.1/"
   xmlns:cc="http://creativecommons.org/ns#"
   xmlns:rdf="http://www.w3.org/1999/02/22-rdf-syntax-ns#"
   xmlns:svg="http://www.w3.org/2000/svg"
   xmlns="http://www.w3.org/2000/svg"
   version="1.1"
   width="1024"
   height="2048"
   id="svg3355">
  <defs
     id="defs3357" />
  <metadata
     id="metadata3360">
    <rdf:RDF>
      <cc:Work
         rdf:about="">
        <dc:format>image/svg+xml</dc:format>
        <dc:type
           rdf:resource="http://purl.org/dc/dcmitype/StillImage" />
        <dc:title></dc:title>
      </cc:Work>
    </rdf:RDF>
  </metadata>
  <path
     d="M 128,255.99996 128,1536 l 170,0 0,-611.00004 43,0 L 554,1231 l -213,305 192,0 118,-168 117,168 192,0 -213,-306 213,-305.00004 -192,0 L 650,1093 533,924.99996 c 168.0048,0 315,-129.00134 315,-335 0,-205.99866 -119.9992,-334 -315,-334 z m 170,157 235,0 c 90.0031,0 145,68.00188 145,177 0,108.99812 -89.9995,178 -235,178 l -145,0 z"
     id="path3157-2-7-7-2-8-2-3-1-1-3-33-4-3-7-1"
     style="fill:#000000;fill-opacity:1;stroke:none;display:inline" />
</svg>
