<?xml version="1.0" encoding="UTF-8" standalone="no"?>
<!-- Created with Inkscape (http://www.inkscape.org/) -->

<svg
   xmlns:dc="http://purl.org/dc/elements/1.1/"
   xmlns:cc="http://creativecommons.org/ns#"
   xmlns:rdf="http://www.w3.org/1999/02/22-rdf-syntax-ns#"
   xmlns:svg="http://www.w3.org/2000/svg"
   xmlns="http://www.w3.org/2000/svg"
   version="1.1"
   width="1024"
   height="2048"
   id="svg3355">
  <defs
     id="defs3357" />
  <metadata
     id="metadata3360">
    <rdf:RDF>
      <cc:Work
         rdf:about="">
        <dc:format>image/svg+xml</dc:format>
        <dc:type
           rdf:resource="http://purl.org/dc/dcmitype/StillImage" />
        <dc:title></dc:title>
      </cc:Work>
    </rdf:RDF>
  </metadata>
  <g
     transform="translate(0,995.63782)"
     id="layer1" />
  <path
     d="m 0,248.00004 0,157 c 211.00297,0 342,76.0014 342,185 0,134.00144 -182,178 -182,178 L 160,1024 l 157,0 0,-145.99996 c 0,0 195,-72 195,-288 0,-210.99794 -196.0035,-342 -512,-342 z m 512,0 0,157 c 211.00297,0 342,76.0014 342,185 0,134.00144 -182,178 -182,178 L 672,1024 l 157,0 0,-145.99996 c 0,0 195,-72 195,-288 0,-210.99794 -196.0035,-342 -512,-342 z M 160,1280 l 0,256 224,0 0,-256 -224,0 z m 512,0 0,256 224,0 0,-256 -224,0 z"
     id="path6352"
     style="fill:#000000;fill-opacity:1;stroke:none;display:inline" />
</svg>
