<?xml version="1.0" encoding="UTF-8" standalone="no"?>
<!-- Created with Inkscape (http://www.inkscape.org/) -->

<svg
   xmlns:dc="http://purl.org/dc/elements/1.1/"
   xmlns:cc="http://creativecommons.org/ns#"
   xmlns:rdf="http://www.w3.org/1999/02/22-rdf-syntax-ns#"
   xmlns:svg="http://www.w3.org/2000/svg"
   xmlns="http://www.w3.org/2000/svg"
   version="1.1"
   width="1024"
   height="2048"
   id="svg3355">
  <defs
     id="defs3357" />
  <metadata
     id="metadata3360">
    <rdf:RDF>
      <cc:Work
         rdf:about="">
        <dc:format>image/svg+xml</dc:format>
        <dc:type
           rdf:resource="http://purl.org/dc/dcmitype/StillImage" />
        <dc:title></dc:title>
      </cc:Work>
    </rdf:RDF>
  </metadata>
  <g
     transform="translate(0,995.63782)"
     id="layer1" />
  <path
     d="m 512,408 c -51.35769,0 -93,41.6438 -93,93 0,51.3562 41.64219,93 93,93 51.35781,0 93,-41.63957 93,-93 0,-51.36043 -41.64231,-93 -93,-93 z M 128,409 25,512 409,896 25,1280 128,1383 512,999 896,1383 999,1280 615,896 999,512 896,409 512,793 128,409 z m -11,394 c -51.35769,0 -93,41.6438 -93,93 0,51.3562 41.64219,93 93,93 51.35781,0 93,-41.63957 93,-93 0,-51.36043 -41.64231,-93 -93,-93 z m 790,0 c -51.35769,0 -93,41.6438 -93,93 0,51.3562 41.64218,93 93,93 51.35781,0 93,-41.63957 93,-93 0,-51.36043 -41.64231,-93 -93,-93 z m -395,395 c -51.35769,0 -93,41.6438 -93,93 0,51.3562 41.64219,93 93,93 51.35781,0 93,-41.6396 93,-93 0,-51.3604 -41.64231,-93 -93,-93 z"
     id="path3127-3-3-5-5"
     style="fill:#000000;fill-opacity:1;stroke:none;display:inline" />
</svg>
