<?xml version="1.0" encoding="UTF-8" standalone="no"?>
<!-- Created with Inkscape (http://www.inkscape.org/) -->

<svg
   xmlns:dc="http://purl.org/dc/elements/1.1/"
   xmlns:cc="http://creativecommons.org/ns#"
   xmlns:rdf="http://www.w3.org/1999/02/22-rdf-syntax-ns#"
   xmlns:svg="http://www.w3.org/2000/svg"
   xmlns="http://www.w3.org/2000/svg"
   version="1.1"
   width="1024"
   height="2048"
   id="svg3355">
  <defs
     id="defs3357" />
  <metadata
     id="metadata3360">
    <rdf:RDF>
      <cc:Work
         rdf:about="">
        <dc:format>image/svg+xml</dc:format>
        <dc:type
           rdf:resource="http://purl.org/dc/dcmitype/StillImage" />
        <dc:title></dc:title>
      </cc:Work>
    </rdf:RDF>
  </metadata>
  <path
     d="m 274,1108 c 0,97.0047 141.35052,157 141.35052,157 0,0 -159.35052,70.9953 -159.35052,187 0,136.0026 98.00297,220 256.00001,220 C 669.99705,1672 768,1587.9994 768,1452 768,1336.0039 606.27608,1265 606.27608,1265 606.27608,1265 754,1204.9979 754,1108 754,972.00268 661.99729,887.99998 512.00001,887.99998 362.00273,887.99998 274,972.00017 274,1108 z m 128,0 c 0,-51.9974 39.99933,-84 110.00001,-84 70.00068,0 113.99999,31.9996 113.99999,84 0,67.0011 -113.99999,108 -113.99999,108 0,0 -110.00001,-41.0047 -110.00001,-108 z m 110.00001,228 c 0,0 119.99999,44.0018 119.99999,116 0,51.996 -46.0019,84 -119.99999,84 C 438.00192,1536 392,1503.9972 392,1452 c 0,-71.9994 120.00001,-116 120.00001,-116 z"
     id="path3157-2-7-3-2-8-0"
     style="fill:#000000;fill-opacity:1;stroke:none;display:inline" />
</svg>
