<?xml version="1.0" encoding="UTF-8" standalone="no"?>
<!-- Created with Inkscape (http://www.inkscape.org/) -->

<svg
   xmlns:dc="http://purl.org/dc/elements/1.1/"
   xmlns:cc="http://creativecommons.org/ns#"
   xmlns:rdf="http://www.w3.org/1999/02/22-rdf-syntax-ns#"
   xmlns:svg="http://www.w3.org/2000/svg"
   xmlns="http://www.w3.org/2000/svg"
   version="1.1"
   width="1024"
   height="2048"
   id="svg3355">
  <defs
     id="defs3357" />
  <metadata
     id="metadata3360">
    <rdf:RDF>
      <cc:Work
         rdf:about="">
        <dc:format>image/svg+xml</dc:format>
        <dc:type
           rdf:resource="http://purl.org/dc/dcmitype/StillImage" />
        <dc:title></dc:title>
      </cc:Work>
    </rdf:RDF>
  </metadata>
  <path
     d="M 240,248 C 110.99744,248 32,323.99634 32,448 l 128,0 c 0,-43.9983 31.00003,-72 80,-72 48.99997,0 80,28.0043 80,72 0,19.9953 0.004,31.9962 -75,107 l -213,213 0,128 342,0 74,-128 -246,0 128,-128 C 448.00178,521.99828 448,494.0039 448,448 448,324.00012 369.00256,248 240,248 z m 563,8 -739,1280 157,0 739,-1280 -157,0 z m -195,640 0,384 189,0 c 61.0014,0 99,24.0041 99,64 0,48.004 -75.995,64 -198,64 l -122,0 0,124 c 0,0 46.9979,8 122,8 200.9964,0 326,-49.0028 326,-196 0,-118.9965 -87.0022,-192 -227,-192 l -61,0 0,-128 256,0 0,-128 -384,0 z"
     id="path3561"
     style="fill:#000000;fill-opacity:1;stroke:none;display:inline" />
</svg>
