<?xml version="1.0" encoding="UTF-8" standalone="no"?>
<svg
   xmlns:dc="http://purl.org/dc/elements/1.1/"
   xmlns:cc="http://creativecommons.org/ns#"
   xmlns:rdf="http://www.w3.org/1999/02/22-rdf-syntax-ns#"
   xmlns:svg="http://www.w3.org/2000/svg"
   xmlns="http://www.w3.org/2000/svg"
   version="1.1"
   width="1024"
   height="2048"
   id="svg3355">
  <defs
     id="defs3357" />
  <metadata
     id="metadata3360">
    <rdf:RDF>
      <cc:Work
         rdf:about="">
        <dc:format>image/svg+xml</dc:format>
        <dc:type
           rdf:resource="http://purl.org/dc/dcmitype/StillImage" />
        <dc:title></dc:title>
      </cc:Work>
    </rdf:RDF>
  </metadata>
  <path
     d="M -64 320 L -64 1472 L 1088 1472 L 1088 320 L -64 320 z M 64 448 L 960 448 L 960 1344 L 64 1344 L 64 448 z M 288 544 C 234.9807 544 192 586.98004 192 640 C 192 693.01997 234.98145 736 288 736 C 341.01855 736 384 693.01981 384 640 C 384 586.98019 341.0193 544 288 544 z M 736 544 C 682.9807 544 640 586.98003 640 640 C 640 693.01997 682.98145 736 736 736 C 789.01855 736 832 693.01981 832 640 C 832 586.98019 789.0193 544 736 544 z M 288 800 C 234.9807 800 192 842.98004 192 896 C 192 949.01997 234.98145 992 288 992 C 341.01855 992 384 949.01981 384 896 C 384 842.98019 341.0193 800 288 800 z M 736 800 C 682.9807 800 640 842.98004 640 896 C 640 949.01997 682.98145 992 736 992 C 789.01855 992 832 949.01981 832 896 C 832 842.98019 789.0193 800 736 800 z M 288 1056 C 234.9807 1056 192 1098.98 192 1152 C 192 1205.02 234.98145 1248 288 1248 C 341.01855 1248 384 1205.0198 384 1152 C 384 1098.9802 341.0193 1056 288 1056 z M 736 1056 C 682.9807 1056 640 1098.98 640 1152 C 640 1205.02 682.98145 1248 736 1248 C 789.01855 1248 832 1205.0198 832 1152 C 832 1098.9802 789.0193 1056 736 1056 z "
     style="display:inline;fill:#000000;fill-opacity:1;stroke:none"
     id="path3157-2-7-0" />
</svg>
