<?xml version="1.0" encoding="UTF-8" standalone="no"?>
<!-- Created with Inkscape (http://www.inkscape.org/) -->

<svg
   xmlns:dc="http://purl.org/dc/elements/1.1/"
   xmlns:cc="http://creativecommons.org/ns#"
   xmlns:rdf="http://www.w3.org/1999/02/22-rdf-syntax-ns#"
   xmlns:svg="http://www.w3.org/2000/svg"
   xmlns="http://www.w3.org/2000/svg"
   version="1.1"
   width="1024"
   height="2048"
   id="svg3355">
  <defs
     id="defs3357" />
  <metadata
     id="metadata3360">
    <rdf:RDF>
      <cc:Work
         rdf:about="">
        <dc:format>image/svg+xml</dc:format>
        <dc:type
           rdf:resource="http://purl.org/dc/dcmitype/StillImage" />
        <dc:title></dc:title>
      </cc:Work>
    </rdf:RDF>
  </metadata>
  <g
     transform="translate(0,995.63782)"
     id="layer1" />
  <path
     d="m 225,503.99997 c -86.99805,0 -128.999997,16 -128.999997,16 l 0,138 128.999997,0 c 129.00165,0 208,69.99845 208,182 l 0,111 -156,0 c -155.99605,0 -253,99.00263 -253,258.00003 0,206.998 120.00402,335 313,335 114.81872,0 177.74925,-37.8887 212,-104 65.89507,72.9108 157.70775,104 270,104 87.00067,0 141,-16 141,-16 l 0,-138 -141,0 c -228.00457,0 -228,-293 -228,-293 l 397,0 c 0,0 7.99999,-99.99625 7.99999,-261.00003 0,-204.99829 -105.99855,-332 -279.99999,-332 -82.85463,0 -150.61049,38.20914 -199,116 -62.66866,-74.1695 -163.28805,-116 -292,-116 z m 491,146 c 74.00144,0 119,71.00357 119,186 l 0,115 -244,0 c 0,0 0.002,-301 125,-301 z M 277,1097 l 156,0 c 0,185.9953 0.003,301 -96,301 -95.9972,0 -156,-71.9992 -156,-189 0,-69.0028 36.99834,-112 96,-112 z"
     id="path3157-2-7-7-2-8-2-3-1-1-3-3-6-4"
     style="fill:#000000;fill-opacity:1;stroke:none;display:inline" />
</svg>
