<?xml version="1.0" encoding="UTF-8" standalone="no"?>
<!-- Created with Inkscape (http://www.inkscape.org/) -->

<svg
   xmlns:dc="http://purl.org/dc/elements/1.1/"
   xmlns:cc="http://creativecommons.org/ns#"
   xmlns:rdf="http://www.w3.org/1999/02/22-rdf-syntax-ns#"
   xmlns:svg="http://www.w3.org/2000/svg"
   xmlns="http://www.w3.org/2000/svg"
   version="1.1"
   width="1024"
   height="2048"
   id="svg3355">
  <defs
     id="defs3357" />
  <metadata
     id="metadata3360">
    <rdf:RDF>
      <cc:Work
         rdf:about="">
        <dc:format>image/svg+xml</dc:format>
        <dc:type
           rdf:resource="http://purl.org/dc/dcmitype/StillImage" />
        <dc:title></dc:title>
      </cc:Work>
    </rdf:RDF>
  </metadata>
  <path
     d="m 256,256 c -150.99857,0 -244,89.99628 -244,237 0,91.00397 8,147 8,147 l 132,0 c 0,-139.99673 0.002,-227 104,-227 l 0,1123 256,0 c 287.00457,0 464,-95.9979 464,-384 C 976,893.0019 742,828 742,828 742,828 912,779.99696 912,590 912,347.00463 758.99634,256 512,256 z m 170,157 86,0 c 142.00342,0 230,68.00429 230,177 0,108.99571 -87.99699,178 -230,178 l -86,0 z m 0,512 86,0 c 182.00184,0 294,41.0014 294,227 0,185.9986 -111.99855,227 -294,227 l -86,0 z"
     id="path3157-2-7-7-2-8-2-3-1-1-3-3-6-9-6-5-6"
     style="fill:#000000;fill-opacity:1;stroke:none;display:inline" />
</svg>
