<?xml version="1.0" encoding="UTF-8" standalone="no"?>
<!-- Created with Inkscape (http://www.inkscape.org/) -->

<svg
   xmlns:dc="http://purl.org/dc/elements/1.1/"
   xmlns:cc="http://creativecommons.org/ns#"
   xmlns:rdf="http://www.w3.org/1999/02/22-rdf-syntax-ns#"
   xmlns:svg="http://www.w3.org/2000/svg"
   xmlns="http://www.w3.org/2000/svg"
   version="1.1"
   width="1024"
   height="2048"
   id="svg3355">
  <defs
     id="defs3357" />
  <metadata
     id="metadata3360">
    <rdf:RDF>
      <cc:Work
         rdf:about="">
        <dc:format>image/svg+xml</dc:format>
        <dc:type
           rdf:resource="http://purl.org/dc/dcmitype/StillImage" />
        <dc:title></dc:title>
      </cc:Work>
    </rdf:RDF>
  </metadata>
  <path
     d="m 128,256 0,768 -128,0 0,157 128,0 0,355 256,0 c 345.99853,0 560,-95.9979 560,-384 C 944,893.0019 678,828 678,828 678,828 848,779.99696 848,590 848,347.00463 670.99659,256 384,256 l -256,0 z m 170,157 86,0 c 182.00092,0 294,68.00429 294,177 0,108.99571 -111.99613,178 -294,178 l -86,0 0,-355 z m 0,512 86,0 c 240.99622,0 390,41.0014 390,227 0,185.9986 -149.00192,227 -390,227 l -86,0 0,-198 214,0 0,-157 -214,0 0,-99 z"
     id="path3157-2-7-3-2-99"
     style="fill:#000000;fill-opacity:1;stroke:none;display:inline" />
</svg>
