<?xml version="1.0" encoding="UTF-8" standalone="no"?>
<!-- Created with Inkscape (http://www.inkscape.org/) -->

<svg
   xmlns:dc="http://purl.org/dc/elements/1.1/"
   xmlns:cc="http://creativecommons.org/ns#"
   xmlns:rdf="http://www.w3.org/1999/02/22-rdf-syntax-ns#"
   xmlns:svg="http://www.w3.org/2000/svg"
   xmlns="http://www.w3.org/2000/svg"
   version="1.1"
   width="1024"
   height="2048"
   id="svg3355">
  <defs
     id="defs3357" />
  <metadata
     id="metadata3360">
    <rdf:RDF>
      <cc:Work
         rdf:about="">
        <dc:format>image/svg+xml</dc:format>
        <dc:type
           rdf:resource="http://purl.org/dc/dcmitype/StillImage" />
        <dc:title></dc:title>
      </cc:Work>
    </rdf:RDF>
  </metadata>
  <path
     d="m 891,252 c -101.0007,0 -163,95.99878 -163,252 l -86,0 c -316.00009,0 -530,198.99671 -530,520 0,389.9963 213.99689,520 530,520 136.99965,0 222,-16 222,-16 l 0,-149 -222,0 c -222.00005,0 -360,-89.0002 -360,-355 0,-219.00078 137.99538,-355 360,-355 l 222,0 0,-157 c 0,-124.00028 49.0013,-124 128,-124 l 0,-128 c 0,0 -39.0004,-8 -101,-8 z"
     id="path3157-2-7-7-2-8-2-3-1-8-2-7-6"
     style="fill:#000000;fill-opacity:1;stroke:none;display:inline" />
</svg>
