<?xml version="1.0" encoding="UTF-8" standalone="no"?>
<!-- Created with Inkscape (http://www.inkscape.org/) -->

<svg
   xmlns:dc="http://purl.org/dc/elements/1.1/"
   xmlns:cc="http://creativecommons.org/ns#"
   xmlns:rdf="http://www.w3.org/1999/02/22-rdf-syntax-ns#"
   xmlns:svg="http://www.w3.org/2000/svg"
   xmlns="http://www.w3.org/2000/svg"
   version="1.1"
   width="1024"
   height="2048"
   id="svg3355">
  <defs
     id="defs3357" />
  <metadata
     id="metadata3360">
    <rdf:RDF>
      <cc:Work
         rdf:about="">
        <dc:format>image/svg+xml</dc:format>
        <dc:type
           rdf:resource="http://purl.org/dc/dcmitype/StillImage" />
        <dc:title></dc:title>
      </cc:Work>
    </rdf:RDF>
  </metadata>
  <path
     d="m 812,384 -72,123 c -28.59758,-1.68052 -61.30841,-3 -98,-3 -316.00009,0 -530,198.99671 -530,520 0,167.8985 39.61098,287.1043 110,369 l -158,271 148,0 110,-189 c 86.06871,48.5281 195.23893,69 320,69 136.99965,0 222,-16 222,-16 l 0,-149 -222,0 c -93.55724,0 -172.3217,-15.8002 -232,-54 l 383,-656 71,0 0,-121 96,-164 z m -170,285 3,0 -324,555 c -25.3654,-51.2672 -39,-116.7729 -39,-200 0,-219.00078 137.99538,-355 360,-355 z"
     id="path3157-22-2-6-0"
     style="fill:#000000;fill-opacity:1;stroke:none;display:inline" />
</svg>
