<?xml version="1.0" encoding="UTF-8" standalone="no"?>
<!-- Created with Inkscape (http://www.inkscape.org/) -->

<svg
   xmlns:dc="http://purl.org/dc/elements/1.1/"
   xmlns:cc="http://creativecommons.org/ns#"
   xmlns:rdf="http://www.w3.org/1999/02/22-rdf-syntax-ns#"
   xmlns:svg="http://www.w3.org/2000/svg"
   xmlns="http://www.w3.org/2000/svg"
   version="1.1"
   width="1024"
   height="2048"
   id="svg3355">
  <defs
     id="defs3357" />
  <metadata
     id="metadata3360">
    <rdf:RDF>
      <cc:Work
         rdf:about="">
        <dc:format>image/svg+xml</dc:format>
        <dc:type
           rdf:resource="http://purl.org/dc/dcmitype/StillImage" />
        <dc:title></dc:title>
      </cc:Work>
    </rdf:RDF>
  </metadata>
  <path
     d="m 817,128 -60,122 c -27.31089,-1.37577 -58.04605,-2 -92,-2 -341.99793,0 -553,248.00356 -553,648 0,204.5472 37.21197,352.1615 106,454 l -154,314 143,0 106,-215 c 91.09546,67.4047 210.04689,95 352,95 143.0026,0 231,-16 231,-16 l 0,-149 -231,0 c -112.93923,0 -204.4733,-26.8077 -269,-98 L 820.28125,413 896,413 896,258 960,128 z M 665,413 677.28125,413 321,1141 C 300.90764,1075.7642 290,994.5133 290,896 290,597.00117 433.00285,413 665,413 z"
     id="path3157-2-7-7-2-8-2-3-1-8-2-2"
     style="fill:#000000;fill-opacity:1;stroke:none;display:inline" />
</svg>
