<?xml version="1.0" encoding="UTF-8" standalone="no"?>
<!-- Created with Inkscape (http://www.inkscape.org/) -->

<svg
   xmlns:dc="http://purl.org/dc/elements/1.1/"
   xmlns:cc="http://creativecommons.org/ns#"
   xmlns:rdf="http://www.w3.org/1999/02/22-rdf-syntax-ns#"
   xmlns:svg="http://www.w3.org/2000/svg"
   xmlns="http://www.w3.org/2000/svg"
   version="1.1"
   width="1024"
   height="2048"
   id="svg3355">
  <defs
     id="defs3357" />
  <metadata
     id="metadata3360">
    <rdf:RDF>
      <cc:Work
         rdf:about="">
        <dc:format>image/svg+xml</dc:format>
        <dc:type
           rdf:resource="http://purl.org/dc/dcmitype/StillImage" />
        <dc:title></dc:title>
      </cc:Work>
    </rdf:RDF>
  </metadata>
  <path
     d="m 160,512 0,157 448,0 -288,198 0,157 161,0 c 160.998,0 261,30.7273 261,128 0,95.998 -87.9991,128 -230,128 -247.00223,0 -400,97.9981 -400,256 0,191.9991 98.0032,256 392,256 l 360,0 0,-157 -360,0 c -167.0015,0 -222,-25.0042 -222,-99 0,-60.9971 88.00025,-99 230,-99 246.99914,0 400,-70.997 400,-285 C 912,975.99783 783.9976,867 576,867 l 288,-198 0,-157 z"
     id="path3157-2-7-7-2-8-2-3-1-8-9-93-1-9-0-2-8-8"
     style="fill:#000000;fill-opacity:1;stroke:none;display:inline" />
</svg>
