<?xml version="1.0" encoding="UTF-8" standalone="no"?>
<!-- Created with Inkscape (http://www.inkscape.org/) -->

<svg
   xmlns:dc="http://purl.org/dc/elements/1.1/"
   xmlns:cc="http://creativecommons.org/ns#"
   xmlns:rdf="http://www.w3.org/1999/02/22-rdf-syntax-ns#"
   xmlns:svg="http://www.w3.org/2000/svg"
   xmlns="http://www.w3.org/2000/svg"
   version="1.1"
   width="1024"
   height="2048"
   id="svg3355">
  <defs
     id="defs3357" />
  <metadata
     id="metadata3360">
    <rdf:RDF>
      <cc:Work
         rdf:about="">
        <dc:format>image/svg+xml</dc:format>
        <dc:type
           rdf:resource="http://purl.org/dc/dcmitype/StillImage" />
        <dc:title></dc:title>
      </cc:Work>
    </rdf:RDF>
  </metadata>
  <path
     d="m 64,256 0,1280 170,0 0,-768 96,0 c 59.99719,0 97,48.00149 97,192 l 0,191 c 0,295.0014 102.00247,393 267,393 164.99753,0 266,-97.9972 266,-393 l 0,-540 -170,0 0,540 c 0,177.0027 -35.99524,236 -96,236 -60.00476,0 -97,-59.0028 -97,-236 l 0,-191 C 597,692.00495 494.99665,603 330,603 c -58.99967,0 -96,16 -96,16 l 0,-363 z"
     id="path3157-2-7-7-54-0-6-9"
     style="fill:#000000;fill-opacity:1;stroke:none;display:inline" />
</svg>
