<?xml version="1.0" encoding="UTF-8" standalone="no"?>
<!-- Created with Inkscape (http://www.inkscape.org/) -->

<svg
   xmlns:dc="http://purl.org/dc/elements/1.1/"
   xmlns:cc="http://creativecommons.org/ns#"
   xmlns:rdf="http://www.w3.org/1999/02/22-rdf-syntax-ns#"
   xmlns:svg="http://www.w3.org/2000/svg"
   xmlns="http://www.w3.org/2000/svg"
   version="1.1"
   width="1024"
   height="2048"
   id="svg3355">
  <defs
     id="defs3357" />
  <metadata
     id="metadata3360">
    <rdf:RDF>
      <cc:Work
         rdf:about="">
        <dc:format>image/svg+xml</dc:format>
        <dc:type
           rdf:resource="http://purl.org/dc/dcmitype/StillImage" />
        <dc:title></dc:title>
      </cc:Work>
    </rdf:RDF>
  </metadata>
  <path
     d="m 736,171 0,170 224,0 0,-170 z m -704,85 0,157 139,0 0,966 -171,0 0,157 512,0 0,-157 -171,0 0,-1123 z m 480,355 0,157 278,0 0,625 c 0,182.0031 -66.00405,242 -172,242 l -106,0 0,153 c 0,0 39.99945,8 106,8 210.99875,0 342,-101.0047 342,-403 l 0,-782 z"
     id="path7102-0"
     style="fill:#000000;fill-opacity:1;stroke:none;display:inline" />
</svg>
