<?xml version="1.0" encoding="UTF-8" standalone="no"?>
<!-- Created with Inkscape (http://www.inkscape.org/) -->

<svg
   xmlns:dc="http://purl.org/dc/elements/1.1/"
   xmlns:cc="http://creativecommons.org/ns#"
   xmlns:rdf="http://www.w3.org/1999/02/22-rdf-syntax-ns#"
   xmlns:svg="http://www.w3.org/2000/svg"
   xmlns="http://www.w3.org/2000/svg"
   version="1.1"
   width="1024"
   height="2048"
   id="svg3355">
  <defs
     id="defs3357" />
  <metadata
     id="metadata3360">
    <rdf:RDF>
      <cc:Work
         rdf:about="">
        <dc:format>image/svg+xml</dc:format>
        <dc:type
           rdf:resource="http://purl.org/dc/dcmitype/StillImage" />
        <dc:title></dc:title>
      </cc:Work>
    </rdf:RDF>
  </metadata>
  <path
     d="M 360,248 C 140.9975,248 48,410.00183 48,896 c 0,485.9982 93.00331,648 312,648 151.99797,0 258,-96.003 258,-264 l 0,-768 172,-82 0,1106 170,0 0,-1280 -170,0 -212,101 C 534.35394,287.44654 457.37995,248 360,248 z m 0,157 c 54.00483,0 88,36.00267 88,107 l 0,768 c 0,70.9999 -34.00181,107 -88,107 -92.00444,0 -142,-123.0032 -142,-491 0,-367.99685 50.00015,-491 142,-491 z"
     id="path3127-7-76-1"
     style="fill:#000000;fill-opacity:1;stroke:none;display:inline" />
</svg>
