<?xml version="1.0" encoding="UTF-8" standalone="no"?>
<!-- Created with Inkscape (http://www.inkscape.org/) -->

<svg
   xmlns:dc="http://purl.org/dc/elements/1.1/"
   xmlns:cc="http://creativecommons.org/ns#"
   xmlns:rdf="http://www.w3.org/1999/02/22-rdf-syntax-ns#"
   xmlns:svg="http://www.w3.org/2000/svg"
   xmlns="http://www.w3.org/2000/svg"
   version="1.1"
   width="1024"
   height="2048"
   id="svg3355">
  <defs
     id="defs3357" />
  <metadata
     id="metadata3360">
    <rdf:RDF>
      <cc:Work
         rdf:about="">
        <dc:format>image/svg+xml</dc:format>
        <dc:type
           rdf:resource="http://purl.org/dc/dcmitype/StillImage" />
        <dc:title></dc:title>
      </cc:Work>
    </rdf:RDF>
  </metadata>
  <path
     d="m 208,255.99996 -176,176 91,90 85,-85 0,459 136,0 0,-640 -136,0 z m 595,0 L 64,1536 l 157,0 739,-1280.00004 -157,0 z m -19,632 c -129.00256,0 -208,75.99638 -208,200.00004 l 128,0 c 0,-43.9983 31.00003,-72 80,-72 48.99997,0 80,28.0043 80,72 0,19.9953 0.004,31.9962 -75,107 l -213,213 0,128 416,0 0,-128 -246,0 128,-128 C 992.00178,1161.9982 992,1134.0039 992,1088 992,964.00012 913.00256,887.99996 784,887.99996 z"
     id="path3918-2-4"
     style="fill:#000000;fill-opacity:1;stroke:none;display:inline" />
</svg>
