<?xml version="1.0" encoding="UTF-8" standalone="no"?>
<!-- Created with Inkscape (http://www.inkscape.org/) -->

<svg
   xmlns:dc="http://purl.org/dc/elements/1.1/"
   xmlns:cc="http://creativecommons.org/ns#"
   xmlns:rdf="http://www.w3.org/1999/02/22-rdf-syntax-ns#"
   xmlns:svg="http://www.w3.org/2000/svg"
   xmlns="http://www.w3.org/2000/svg"
   version="1.1"
   width="1024"
   height="2048"
   id="svg3355">
  <defs
     id="defs3357" />
  <metadata
     id="metadata3360">
    <rdf:RDF>
      <cc:Work
         rdf:about="">
        <dc:format>image/svg+xml</dc:format>
        <dc:type
           rdf:resource="http://purl.org/dc/dcmitype/StillImage" />
        <dc:title></dc:title>
      </cc:Work>
    </rdf:RDF>
  </metadata>
  <path
     d="m 256,256 c -150.99857,0 -244,89.99628 -244,237 0,91.00397 8,147 8,147 l 132,0 c 0,-139.99673 0.002,-227 104,-227 l 0,1123 170,0 0,-512 133,0 C 797.00099,1024 944,876.9982 944,640 944,403.00176 828.00358,256 641,256 z m 170,157 215,0 c 82.00043,0 133,87.00215 133,227 0,139.99785 -82.00392,227 -215,227 l -133,0 z"
     id="path3157-2-7-7-2-8-2-3-1-1-3-33-4-3-6-5-9"
     style="fill:#000000;fill-opacity:1;stroke:none;display:inline" />
</svg>
