<?xml version="1.0" encoding="UTF-8" standalone="no"?>
<!-- Created with Inkscape (http://www.inkscape.org/) -->

<svg
   xmlns:dc="http://purl.org/dc/elements/1.1/"
   xmlns:cc="http://creativecommons.org/ns#"
   xmlns:rdf="http://www.w3.org/1999/02/22-rdf-syntax-ns#"
   xmlns:svg="http://www.w3.org/2000/svg"
   xmlns="http://www.w3.org/2000/svg"
   version="1.1"
   width="1024"
   height="2048"
   id="svg3355">
  <defs
     id="defs3357" />
  <metadata
     id="metadata3360">
    <rdf:RDF>
      <cc:Work
         rdf:about="">
        <dc:format>image/svg+xml</dc:format>
        <dc:type
           rdf:resource="http://purl.org/dc/dcmitype/StillImage" />
        <dc:title></dc:title>
      </cc:Work>
    </rdf:RDF>
  </metadata>
  <path
     d="m 556,512 c -274.0038,0 -444,168.99736 -444,443 0,200.9956 130.0016,325 340,325 l 274,0 0,99 c 0,316.002 109.99804,421 289,421 42.9974,0 73,-16 73,-16 l 0,-149 -73,0 c -74.0032,0 -119,-63.9985 -119,-256 l 0,-611 C 896,576.00305 832.0021,512 640,512 z m 0,157 84,0 c 52.9993,0 86,37.99997 86,99 l 0,355 -274,0 C 347.0021,1123 282,1058.9975 282,955 282,777.99714 387.0041,669 556,669 z"
     id="path3157-2-7-7-2-8-2-3-1-1-8-0"
     style="fill:#000000;fill-opacity:1;stroke:none;display:inline" />
</svg>
