<?xml version="1.0" encoding="UTF-8" standalone="no"?>
<!-- Created with Inkscape (http://www.inkscape.org/) -->

<svg
   xmlns:dc="http://purl.org/dc/elements/1.1/"
   xmlns:cc="http://creativecommons.org/ns#"
   xmlns:rdf="http://www.w3.org/1999/02/22-rdf-syntax-ns#"
   xmlns:svg="http://www.w3.org/2000/svg"
   xmlns="http://www.w3.org/2000/svg"
   version="1.1"
   width="1024"
   height="2048"
   id="svg3355">
  <defs
     id="defs3357" />
  <metadata
     id="metadata3360">
    <rdf:RDF>
      <cc:Work
         rdf:about="">
        <dc:format>image/svg+xml</dc:format>
        <dc:type
           rdf:resource="http://purl.org/dc/dcmitype/StillImage" />
        <dc:title></dc:title>
      </cc:Work>
    </rdf:RDF>
  </metadata>
  <path
     d="m 661,247.99996 c -299.99946,0 -485,82.00471 -485,328 0,88.99591 45,144 45,144 C 151.16947,783.4086 112,874.8885 112,989 c 0,418.9988 579,290.9976 579,483 0,137.0023 -125.0038,182 -328,182 l -203,0 0,130 c 0,0 78.0024,16 203,16 299.9995,0 485,-82.0047 485,-328 0,-89.0022 -45,-144 -45,-144 69.83953,-63.409 109,-154.8808 109,-269 0,-418.99881 -579,-290.99764 -579,-483.00004 0,-137.00225 125.00377,-182 328,-182 l 203,0 0,-130 c 0,0 -78.00237,-16 -203,-16 z M 356,810 c 169.96014,65.321 399,66.0133 399,249 0,79.584 -31.29045,141.2626 -87,179 -169.96014,-65.3211 -399,-66.0133 -399,-249 0,-79.5841 31.29046,-141.2626 87,-179 z"
     id="path3157-2-7-7-2-8-2-3-1-8-0-8"
     style="fill:#000000;fill-opacity:1;stroke:none;display:inline" />
</svg>
