<?xml version="1.0" encoding="UTF-8" standalone="no"?>
<!-- Created with Inkscape (http://www.inkscape.org/) -->

<svg
   xmlns:dc="http://purl.org/dc/elements/1.1/"
   xmlns:cc="http://creativecommons.org/ns#"
   xmlns:rdf="http://www.w3.org/1999/02/22-rdf-syntax-ns#"
   xmlns:svg="http://www.w3.org/2000/svg"
   xmlns="http://www.w3.org/2000/svg"
   version="1.1"
   width="1024"
   height="2048"
   id="svg3355">
  <defs
     id="defs3357" />
  <metadata
     id="metadata3360">
    <rdf:RDF>
      <cc:Work
         rdf:about="">
        <dc:format>image/svg+xml</dc:format>
        <dc:type
           rdf:resource="http://purl.org/dc/dcmitype/StillImage" />
        <dc:title></dc:title>
      </cc:Work>
    </rdf:RDF>
  </metadata>
  <path
     d="m 64,260 0,115.99996 89,0 c 88.00486,-10e-6 143,16.99876 143,68 0,51.00124 -40.00442,68 -104,68 l -64,0 0,120 70,0 c 70.0024,0 114,18.00325 114,72 0,53.99675 -66.00186,72 -173,72 l -107,0 L 32,892 c 0,0 41.001975,8 107,8 191.00113,0 309,-51.99864 309,-196.00004 0,-109.99642 -136,-146 -136,-146 0,0 120,-27.99709 120,-114 C 432,303.00126 324.99681,252 153,252 c -54.99795,0 -89,8 -89,8 z M 803,255.99996 64,1536 221,1536 960,255.99996 z m -101,640 L 480,1280 l 0,128 300,0 0,128 136,0 0,-128 76,0 0,-128 -76,0 0,-384.00004 z m 78,100 0,284.00004 -164,0 z"
     id="path3918-2-7"
     style="fill:#000000;fill-opacity:1;stroke:none;display:inline" />
</svg>
