<?xml version="1.0" encoding="UTF-8" standalone="no"?>
<!-- Created with Inkscape (http://www.inkscape.org/) -->

<svg
   xmlns:dc="http://purl.org/dc/elements/1.1/"
   xmlns:cc="http://creativecommons.org/ns#"
   xmlns:rdf="http://www.w3.org/1999/02/22-rdf-syntax-ns#"
   xmlns:svg="http://www.w3.org/2000/svg"
   xmlns="http://www.w3.org/2000/svg"
   version="1.1"
   width="1024"
   height="2048"
   id="svg3355">
  <defs
     id="defs3357" />
  <metadata
     id="metadata3360">
    <rdf:RDF>
      <cc:Work
         rdf:about="">
        <dc:format>image/svg+xml</dc:format>
        <dc:type
           rdf:resource="http://purl.org/dc/dcmitype/StillImage" />
        <dc:title></dc:title>
      </cc:Work>
    </rdf:RDF>
  </metadata>
  <path
     d="m 372,248 c 334.00447,0 540,87.00016 540,349 0,426.9982 -654,298.9989 -654,598 0,137.9979 102.99783,184 414,184 l 256,0 0,149 c 0,0 -97.99759,16 -256,16 C 227.99933,1544 80,1456.9984 80,1195 80,767.999 734,896.0042 734,597 734,458.99655 596.00314,413 372,413 l -244,0 0,-149 c 0,0 93.00162,-16 244,-16 z"
     id="path3157-2-7-7-2-8-2-3-1-8-0-7"
     style="fill:#000000;fill-opacity:1;stroke:none;display:inline" />
</svg>
