<?xml version="1.0" encoding="UTF-8" standalone="no"?>
<!-- Created with Inkscape (http://www.inkscape.org/) -->

<svg
   xmlns:dc="http://purl.org/dc/elements/1.1/"
   xmlns:cc="http://creativecommons.org/ns#"
   xmlns:rdf="http://www.w3.org/1999/02/22-rdf-syntax-ns#"
   xmlns:svg="http://www.w3.org/2000/svg"
   xmlns="http://www.w3.org/2000/svg"
   version="1.1"
   width="1024"
   height="2048"
   id="svg3355">
  <defs
     id="defs3357" />
  <metadata
     id="metadata3360">
    <rdf:RDF>
      <cc:Work
         rdf:about="">
        <dc:format>image/svg+xml</dc:format>
        <dc:type
           rdf:resource="http://purl.org/dc/dcmitype/StillImage" />
        <dc:title></dc:title>
      </cc:Work>
    </rdf:RDF>
  </metadata>
  <g
     transform="translate(0,995.63782)"
     id="layer1">
    <path
       d="m 390,-491.63782 c 303.00358,0 490,74.99963 490,300.99999 0,346.9969 -566,219.000099 -566,439 0,101.9953 130.00029,135 340,135 l 210,0 0,149.00001 c 0,0 -79.99504,16 -210,16 -315.00112,0 -510,-73.99921 -510,-300.00001 0,-347.997971 566,-219.997001 566,-439 0,-101.9988 -122.00247,-136 -320,-136 l -198,0 0,-148.99999 c 0,0 76.00316,-16 198,-16 z"
       id="path3157-2-7-7-2-8-2-3-1-8-0"
       style="fill:#000000;fill-opacity:1;stroke:none;display:inline" />
  </g>
</svg>
