<?xml version="1.0" encoding="UTF-8" standalone="no"?>
<!-- Created with Inkscape (http://www.inkscape.org/) -->

<svg
   xmlns:dc="http://purl.org/dc/elements/1.1/"
   xmlns:cc="http://creativecommons.org/ns#"
   xmlns:rdf="http://www.w3.org/1999/02/22-rdf-syntax-ns#"
   xmlns:svg="http://www.w3.org/2000/svg"
   xmlns="http://www.w3.org/2000/svg"
   version="1.1"
   width="1024"
   height="2048"
   id="svg3355">
  <defs
     id="defs3357" />
  <metadata
     id="metadata3360">
    <rdf:RDF>
      <cc:Work
         rdf:about="">
        <dc:format>image/svg+xml</dc:format>
        <dc:type
           rdf:resource="http://purl.org/dc/dcmitype/StillImage" />
        <dc:title></dc:title>
      </cc:Work>
    </rdf:RDF>
  </metadata>
  <path
     d="m 96,256 0,512 -96,0 0,157 96,0 0,35 c 0,443.9968 104.00128,592 416,592 311.99872,0 416,-147.9995 416,-592 l 0,-35 96,0 0,-157 -96,0 0,-512 -170,0 0,512 -492,0 0,-512 -170,0 z m 170,669 492,0 0,35 c 0,325.998 -60.99798,435 -246,435 -185.00203,0 -246,-109.0027 -246,-435 l 0,-35 z"
     id="path3157-2-7-7-2-1"
     style="fill:#000000;fill-opacity:1;stroke:none;display:inline" />
</svg>
