<?xml version="1.0" encoding="UTF-8" standalone="no"?>
<!-- Created with Inkscape (http://www.inkscape.org/) -->

<svg
   xmlns:dc="http://purl.org/dc/elements/1.1/"
   xmlns:cc="http://creativecommons.org/ns#"
   xmlns:rdf="http://www.w3.org/1999/02/22-rdf-syntax-ns#"
   xmlns:svg="http://www.w3.org/2000/svg"
   xmlns="http://www.w3.org/2000/svg"
   version="1.1"
   width="1024"
   height="2048"
   id="svg3355">
  <defs
     id="defs3357" />
  <metadata
     id="metadata3360">
    <rdf:RDF>
      <cc:Work
         rdf:about="">
        <dc:format>image/svg+xml</dc:format>
        <dc:type
           rdf:resource="http://purl.org/dc/dcmitype/StillImage" />
        <dc:title></dc:title>
      </cc:Work>
    </rdf:RDF>
  </metadata>
  <g
     transform="translate(0,995.63782)"
     id="layer1" />
  <g
     transform="matrix(0.48794232,0,0,1,32.578769,995.6378)"
     id="layer1-77-9"
     style="display:inline" />
  <path
     d="m 153,252 c -54.997901,0 -89,8 -89,8 l 0,116 89,0 c 88.00492,0 143,16.9988 143,68 0,51.0013 -40.00438,68 -104,68 l -64,0 0,120 70,0 c 70.00242,0 114,18.00333 114,72 0,53.9968 -66.00178,72 -173,72 l -107,0 0,116 c 0,0 41.002,8 107,8 191.00122,0 309,-51.99855 309,-196 C 448,594.00363 312,558 312,558 312,558 432,530.003 432,444 432,303.0013 324.99682,252 153,252 z m 671,4 -413,1102 -139,-387 -148,53 184,512 204,0 480,-1280 -168,0 z"
     id="path3705-44-9-4-4-4"
     style="fill:#000000;fill-opacity:1;stroke:none;display:inline" />
</svg>
