<?xml version="1.0" encoding="UTF-8" standalone="no"?>
<!-- Created with Inkscape (http://www.inkscape.org/) -->

<svg
   xmlns:dc="http://purl.org/dc/elements/1.1/"
   xmlns:cc="http://creativecommons.org/ns#"
   xmlns:rdf="http://www.w3.org/1999/02/22-rdf-syntax-ns#"
   xmlns:svg="http://www.w3.org/2000/svg"
   xmlns="http://www.w3.org/2000/svg"
   version="1.1"
   width="1024"
   height="2048"
   id="svg3355">
  <defs
     id="defs3357" />
  <metadata
     id="metadata3360">
    <rdf:RDF>
      <cc:Work
         rdf:about="">
        <dc:format>image/svg+xml</dc:format>
        <dc:type
           rdf:resource="http://purl.org/dc/dcmitype/StillImage" />
        <dc:title></dc:title>
      </cc:Work>
    </rdf:RDF>
  </metadata>
  <path
     d="m 312,560.00001 c -152.9964,0 -248,136 -248,136 l 64,136 c 0,0 81.00032,-115 212,-115 141.99758,0 201.99633,131 372,131 153.00014,0 248,-136 248,-136 l -64,-136 c 0,0 -81.00076,115 -212,115 -141.99732,0 -202.00154,-131 -372,-131 z m 0,384 C 159.0036,944.00001 64,1080 64,1080 l 64,136 c 0,0 81.00032,-115 212,-115 141.99758,0 201.99633,131 372,131 153.00018,0 248,-136 248,-136 L 896,960.00001 C 896,960.00001 814.99924,1075 684,1075 542.00268,1075 481.99846,944.00001 312,944.00001 z"
     id="path3671-6-1"
     style="fill:#000000;fill-opacity:1;stroke:none;display:inline" />
</svg>
