<?xml version="1.0" encoding="UTF-8" standalone="no"?>
<svg
   xmlns:dc="http://purl.org/dc/elements/1.1/"
   xmlns:cc="http://creativecommons.org/ns#"
   xmlns:rdf="http://www.w3.org/1999/02/22-rdf-syntax-ns#"
   xmlns:svg="http://www.w3.org/2000/svg"
   xmlns="http://www.w3.org/2000/svg"
   id="svg3355"
   height="2048"
   width="1024"
   version="1.1">
  <defs
     id="defs3357" />
  <metadata
     id="metadata3360">
    <rdf:RDF>
      <cc:Work
         rdf:about="">
        <dc:format>image/svg+xml</dc:format>
        <dc:type
           rdf:resource="http://purl.org/dc/dcmitype/StillImage" />
        <dc:title></dc:title>
      </cc:Work>
    </rdf:RDF>
  </metadata>
  <path
     d="M 312 422 C 158.9993 422 64 631 64 631 L 175 742 C 175 742 239.9968 582 346 582 C 452.00331 582 559.0044 742 712 742 C 864.9956 742 960 533 960 533 L 849 422 C 849 422 783.9971 583.90039 678 583.90039 C 572.0029 583.90039 465.00071 422 312 422 z M 312 736 C 158.9993 736 64 945 64 945 L 175 1056 C 175 1056 239.9968 896 346 896 C 452.00331 896 559.0044 1056 712 1056 C 864.9956 1056 960 847 960 847 L 849 736 C 849 736 783.9971 897.90039 678 897.90039 C 572.0029 897.90039 465.00071 736 312 736 z M 312 1050 C 158.9993 1050 64 1259 64 1259 L 175 1370 C 175 1370 239.9968 1210 346 1210 C 452.00331 1210 559.0044 1370 712 1370 C 864.9956 1370 960 1161 960 1161 L 849 1050 C 849 1050 783.9971 1211.9004 678 1211.9004 C 572.0029 1211.9004 465.00071 1050 312 1050 z "
     style="display:inline;fill:#000000;fill-opacity:1;stroke:none"
     id="path7165-4-7" />
</svg>
