<?xml version="1.0" encoding="UTF-8" standalone="no"?>
<!-- Created with Inkscape (http://www.inkscape.org/) -->

<svg
   xmlns:dc="http://purl.org/dc/elements/1.1/"
   xmlns:cc="http://creativecommons.org/ns#"
   xmlns:rdf="http://www.w3.org/1999/02/22-rdf-syntax-ns#"
   xmlns:svg="http://www.w3.org/2000/svg"
   xmlns="http://www.w3.org/2000/svg"
   version="1.1"
   width="1024"
   height="2048"
   id="svg3355">
  <defs
     id="defs3357" />
  <metadata
     id="metadata3360">
    <rdf:RDF>
      <cc:Work
         rdf:about="">
        <dc:format>image/svg+xml</dc:format>
        <dc:type
           rdf:resource="http://purl.org/dc/dcmitype/StillImage" />
        <dc:title></dc:title>
      </cc:Work>
    </rdf:RDF>
  </metadata>
  <path
     d="M 312,438 C 159.0036,438 64,574 64,574 l 64,136 c 0,0 81.00032,-115 212,-115 141.99758,0 201.99633,131 372,131 153.00014,0 248,-136 248,-136 L 896,454 c 0,0 -81.00076,115 -212,115 C 542.00268,569 481.99846,438 312,438 z m 0,314 C 159.0036,752 64,888 64,888 l 64,136 c 0,0 81.00032,-115 212,-115 141.99758,0 201.99633,131 372,131 153.00014,0 248,-136 248,-136 L 896,768 c 0,0 -81.00076,115 -212,115 C 542.00268,883 481.99846,752 312,752 z m -216,380 0,157 832,0 0,-157 -832,0 z"
     id="path8090"
     style="fill:#000000;fill-opacity:1;stroke:none;display:inline" />
</svg>
