<?xml version="1.0" encoding="UTF-8" standalone="no"?>
<!-- Created with Inkscape (http://www.inkscape.org/) -->

<svg
   xmlns:dc="http://purl.org/dc/elements/1.1/"
   xmlns:cc="http://creativecommons.org/ns#"
   xmlns:rdf="http://www.w3.org/1999/02/22-rdf-syntax-ns#"
   xmlns:svg="http://www.w3.org/2000/svg"
   xmlns="http://www.w3.org/2000/svg"
   version="1.1"
   width="1024"
   height="2048"
   id="svg3355">
  <defs
     id="defs3357" />
  <metadata
     id="metadata3360">
    <rdf:RDF>
      <cc:Work
         rdf:about="">
        <dc:format>image/svg+xml</dc:format>
        <dc:type
           rdf:resource="http://purl.org/dc/dcmitype/StillImage" />
        <dc:title></dc:title>
      </cc:Work>
    </rdf:RDF>
  </metadata>
  <path
     d="M 511,95 C 339.99693,95 235,254.00135 235,512 l 0,54 C 85.650343,633.03325 0,755.79875 0,896 c 0,140.2012 85.650273,262.9667 235,330 l 0,54 c 0,158.0042 -39.99628,256 -106,256 l -65,0 0,153 c 0,0 24.999581,8 65,8 171.00307,0 276,-159.0014 276,-417 l 0,-7 c 33.90234,4.5951 69.61227,7 107,7 37.38773,0 73.09766,-2.4054 107,-7 l 0,7 c 0,158.0042 -39.99628,256 -106,256 l -65,0 0,153 c 0,0 24.99958,8 65,8 171.00307,0 276,-159.0014 276,-417 l 0,-54 c 149.34973,-67.0283 235,-189.7839 235,-330 0,-140.21604 -85.65034,-262.97168 -235,-330 l 0,-54 c 0,-158.0042 39.99628,-256 106,-256 l 65,0 0,-153 c 0,0 -24.99958,-8 -65,-8 -171.00307,0 -276,159.00135 -276,417 l 0,7 c -33.90298,-4.59456 -69.61114,-7 -107,-7 -37.38886,0 -73.09702,2.40493 -107,7 l 0,-7 c 0,-158.0042 39.99628,-256 106,-256 l 65,0 0,-153 c 0,0 -24.99958,-8 -65,-8 z m 1,545 c 38.07427,0 73.8077,3.44894 107,9 l 0,494 c -33.19208,5.551 -68.92622,9 -107,9 -38.07378,0 -73.80792,-3.4484 -107,-9 l 0,-494 c 33.1923,-5.55165 68.92573,-9 107,-9 z m -277,72 0,368 C 166.1967,1033.4804 128,968.0506 128,896 128,823.94936 166.19707,758.51967 235,712 z m 554,0 c 68.80293,46.5177 107,111.94176 107,184 0,72.0583 -38.1967,137.4824 -107,184 z"
     id="path5291-1-6-8"
     style="fill:#000000;fill-opacity:1;stroke:none;display:inline" />
</svg>
