<?xml version="1.0" encoding="UTF-8" standalone="no"?>
<!-- Created with Inkscape (http://www.inkscape.org/) -->

<svg
   xmlns:dc="http://purl.org/dc/elements/1.1/"
   xmlns:cc="http://creativecommons.org/ns#"
   xmlns:rdf="http://www.w3.org/1999/02/22-rdf-syntax-ns#"
   xmlns:svg="http://www.w3.org/2000/svg"
   xmlns="http://www.w3.org/2000/svg"
   version="1.1"
   width="1024"
   height="2048"
   id="svg3355">
  <defs
     id="defs3357" />
  <metadata
     id="metadata3360">
    <rdf:RDF>
      <cc:Work
         rdf:about="">
        <dc:format>image/svg+xml</dc:format>
        <dc:type
           rdf:resource="http://purl.org/dc/dcmitype/StillImage" />
        <dc:title></dc:title>
      </cc:Work>
    </rdf:RDF>
  </metadata>
  <path
     d="m 298,768 222,0 c 268.70223,0 392,128.9981 392,337 0,276.0025 -153.00042,447 -400,447 -237.00282,0 -384,-149.9999 -384,-392 l 0,-392 C 128,378.00185 303.9956,248 832,248 l 0,157 c -400.00383,0 -534,90.99719 -534,363 z m 222,157 -222,0 0,235 c 0,145.0045 81.99973,235 214,235 142.00137,0 230,-110.998 230,-290 0,-110.9956 -84.99714,-180 -222,-180 z"
     id="path3157-2-7-7-2-8-2-3-1-1-3-33-2"
     style="fill:#000000;fill-opacity:1;stroke:none;display:inline" />
</svg>
