<?xml version="1.0" encoding="UTF-8" standalone="no"?>
<!-- Created with Inkscape (http://www.inkscape.org/) -->

<svg
   xmlns:dc="http://purl.org/dc/elements/1.1/"
   xmlns:cc="http://creativecommons.org/ns#"
   xmlns:rdf="http://www.w3.org/1999/02/22-rdf-syntax-ns#"
   xmlns:svg="http://www.w3.org/2000/svg"
   xmlns="http://www.w3.org/2000/svg"
   version="1.1"
   width="1024"
   height="2048"
   id="svg3355">
  <defs
     id="defs3357" />
  <metadata
     id="metadata3360">
    <rdf:RDF>
      <cc:Work
         rdf:about="">
        <dc:format>image/svg+xml</dc:format>
        <dc:type
           rdf:resource="http://purl.org/dc/dcmitype/StillImage" />
        <dc:title></dc:title>
      </cc:Work>
    </rdf:RDF>
  </metadata>
  <g
     transform="translate(0,995.63782)"
     id="layer1" />
  <path
     d="m 512,272.00002 c -106.00253,0 -171,56.00385 -171,224 l 102,0 c 0,-91.99874 25.99753,-122 69,-122 43.00247,0 69,30.00446 69,122 l 102,0 c 0,-168.00475 -64.99747,-224 -171,-224 z m -256,256 c -106.00253,0 -171,56.00385 -171,224 l 102,0 c 0,-91.99875 25.99753,-122 69,-122 43.00247,0 69,30.00445 69,122 l 102,0 c 0,-168.00475 -64.99747,-224 -171,-224 z m 512,0 c -106.00253,0 -171,56.00384 -171,224 l 102,0 c 0,-91.99875 25.99753,-122 69,-122 43.00247,0 69,30.00445 69,122 l 102,0 c 0,-168.00476 -64.99747,-224 -171,-224 z m -597,256 C 64.99747,784.00002 0,840.00386 0,1008 l 102,0 c 0,-91.99873 25.99753,-121.99998 69,-121.99998 43.00247,0 69,30.00445 69,121.99998 l 102,0 C 342,839.99526 277.00253,784.00002 171,784.00002 z m 682,0 c -106.00253,0 -171,56.00384 -171,223.99998 l 102,0 c 0,-91.99873 25.99753,-121.99998 69,-121.99998 43.00247,0 69,30.00445 69,121.99998 l 102,0 C 1024,839.99526 959.00253,784.00002 853,784.00002 z M 256,1040 c -106.00253,0 -171,56.0038 -171,224 l 102,0 c 0,-91.9988 25.99753,-122 69,-122 43.00247,0 69,30.0044 69,122 l 102,0 c 0,-168.0048 -64.99747,-224 -171,-224 z m 512,0 c -106.00253,0 -171,56.0038 -171,224 l 102,0 c 0,-91.9988 25.99753,-122 69,-122 43.00247,0 69,30.0044 69,122 l 102,0 c 0,-168.0048 -64.9975,-224 -171,-224 z m -256,256 c -106.00253,0 -171,56.0038 -171,224 l 102,0 c 0,-91.9988 25.99753,-122 69,-122 43.00247,0 69,30.0044 69,122 l 102,0 c 0,-168.0048 -64.99747,-224 -171,-224 z"
     id="path3705-44-9-7-2-6-5-6-1-4"
     style="fill:#000000;fill-opacity:1;stroke:none;display:inline" />
</svg>
