<?xml version="1.0" encoding="UTF-8" standalone="no"?>
<!-- Created with Inkscape (http://www.inkscape.org/) -->

<svg
   xmlns:dc="http://purl.org/dc/elements/1.1/"
   xmlns:cc="http://creativecommons.org/ns#"
   xmlns:rdf="http://www.w3.org/1999/02/22-rdf-syntax-ns#"
   xmlns:svg="http://www.w3.org/2000/svg"
   xmlns="http://www.w3.org/2000/svg"
   version="1.1"
   width="1024"
   height="2048"
   id="svg3355">
  <defs
     id="defs3357" />
  <metadata
     id="metadata3360">
    <rdf:RDF>
      <cc:Work
         rdf:about="">
        <dc:format>image/svg+xml</dc:format>
        <dc:type
           rdf:resource="http://purl.org/dc/dcmitype/StillImage" />
        <dc:title></dc:title>
      </cc:Work>
    </rdf:RDF>
  </metadata>
  <g
     transform="translate(0,995.63782)"
     id="layer1" />
  <path
     d="m 384,512 c -192.0002,0 -256,64.00041 -256,256 l 0,1024 170,0 0,-512 170,0 c 81.28639,0 153.74255,-14.5418 215,-42 l 104,164 108,-68 -106,-167 C 868.13503,1091.6602 912,981.23471 912,842 912,638.00172 782.00065,512 572,512 z m 0,157 188,0 c 104.9962,0 170,65.99792 170,173 0,70.21475 -17.49724,129.23406 -49,175 l -73,-115 -108,68 82,129 c -36.37051,15.8817 -78.70834,24 -126,24 l -170,0 0,-355 c 0,-61.00034 33.0019,-99 86,-99 z"
     id="path3157-2-7-7-2-8-2-3-1-1-3-33-4-3-6-5-7-6"
     style="fill:#000000;fill-opacity:1;stroke:none;display:inline" />
</svg>
