<?xml version="1.0" encoding="UTF-8" standalone="no"?>
<!-- Created with Inkscape (http://www.inkscape.org/) -->

<svg
   xmlns:dc="http://purl.org/dc/elements/1.1/"
   xmlns:cc="http://creativecommons.org/ns#"
   xmlns:rdf="http://www.w3.org/1999/02/22-rdf-syntax-ns#"
   xmlns:svg="http://www.w3.org/2000/svg"
   xmlns="http://www.w3.org/2000/svg"
   version="1.1"
   width="1024"
   height="2048"
   id="svg3355">
  <defs
     id="defs3357" />
  <metadata
     id="metadata3360">
    <rdf:RDF>
      <cc:Work
         rdf:about="">
        <dc:format>image/svg+xml</dc:format>
        <dc:type
           rdf:resource="http://purl.org/dc/dcmitype/StillImage" />
        <dc:title></dc:title>
      </cc:Work>
    </rdf:RDF>
  </metadata>
  <g
     transform="translate(0,995.63782)"
     id="layer1" />
  <path
     d="M 128,512.00004 128,1024 c 0,273.0001 -32.00432,363 -128,363 l 0,157 c 224.00405,0 298,-129.9967 298,-520 l 0,-354.99996 172,0 L 470,1199 c 0,258.9966 94.0031,345 245,345 150.9968,0 245,-86.0021 245,-345 l 0,-303 -170,0 0,303 c 0,141 -28.997,188 -75,188 -46.0031,0 -75,-46.9969 -75,-188 l 0,-686.99996 z"
     id="path3157-2-7-7-21-4-8-3-0-1"
     style="fill:#000000;fill-opacity:1;stroke:none;display:inline" />
</svg>
