<?xml version="1.0" encoding="UTF-8" standalone="no"?>
<!-- Created with Inkscape (http://www.inkscape.org/) -->

<svg
   xmlns:dc="http://purl.org/dc/elements/1.1/"
   xmlns:cc="http://creativecommons.org/ns#"
   xmlns:rdf="http://www.w3.org/1999/02/22-rdf-syntax-ns#"
   xmlns:svg="http://www.w3.org/2000/svg"
   xmlns="http://www.w3.org/2000/svg"
   version="1.1"
   width="1024"
   height="2048"
   id="svg3355">
  <defs
     id="defs3357" />
  <metadata
     id="metadata3360">
    <rdf:RDF>
      <cc:Work
         rdf:about="">
        <dc:format>image/svg+xml</dc:format>
        <dc:type
           rdf:resource="http://purl.org/dc/dcmitype/StillImage" />
        <dc:title></dc:title>
      </cc:Work>
    </rdf:RDF>
  </metadata>
  <g
     transform="translate(0,995.63782)"
     id="layer1" />
  <path
     d="m 384,247.99997 c -252.00118,0 -336,167.99613 -336,648 C 48,1376.0039 120.9956,1552 341,1552 c 170.99898,0 171,-272 171,-272 0,0 -0.002,272 171,272 220.00055,0 293,-176.004 293,-656.00003 0,-479.99601 -84.00289,-648 -336,-648 l 0,157 c 122.99965,0 164,128.99905 164,491 C 804,1258.0009 774.00331,1395 683,1395 c -64.99763,0 -86,-127.9995 -86,-334 l 0,-165.00003 -170,0 L 427,1061 c 0,206.0023 -20.99528,334 -86,334 -90.99789,0 -121,-137.0013 -121,-499.00003 0,-361.99867 41.00022,-491 164,-491 z"
     id="path3157-2-7-7-2-8-2-6-1-8-2"
     style="fill:#000000;fill-opacity:1;stroke:none;display:inline" />
</svg>
