<?xml version="1.0" encoding="UTF-8" standalone="no"?>
<!-- Created with Inkscape (http://www.inkscape.org/) -->

<svg
   xmlns:dc="http://purl.org/dc/elements/1.1/"
   xmlns:cc="http://creativecommons.org/ns#"
   xmlns:rdf="http://www.w3.org/1999/02/22-rdf-syntax-ns#"
   xmlns:svg="http://www.w3.org/2000/svg"
   xmlns="http://www.w3.org/2000/svg"
   version="1.1"
   width="1024"
   height="2048"
   id="svg3355">
  <defs
     id="defs3357" />
  <metadata
     id="metadata3360">
    <rdf:RDF>
      <cc:Work
         rdf:about="">
        <dc:format>image/svg+xml</dc:format>
        <dc:type
           rdf:resource="http://purl.org/dc/dcmitype/StillImage" />
        <dc:title></dc:title>
      </cc:Work>
    </rdf:RDF>
  </metadata>
  <g
     transform="translate(0,995.63782)"
     id="layer1" />
  <path
     d="M 64,256.00003 64,1536 l 170,0 0,-1123 193,0 0,1123 170,0 0,-611 c 119.0027,0 193,64.2197 193,224.0625 L 790,1364 c 0,202.9977 -44.9989,271 -119,271 l -74,0 0,149 c 0,0 28.00449,16 74,16 187.0032,0 289,-109.0047 289,-436 l 0,-214.9375 C 960,870.6345 821.00139,768 597,768 l 0,-511.99997 z"
     id="path3157-2-7-7-2-8-2-3-1-1-3-33-4-3-3-0"
     style="fill:#000000;fill-opacity:1;stroke:none;display:inline" />
</svg>
