<?xml version="1.0" encoding="UTF-8" standalone="no"?>
<!-- Created with Inkscape (http://www.inkscape.org/) -->

<svg
   xmlns:dc="http://purl.org/dc/elements/1.1/"
   xmlns:cc="http://creativecommons.org/ns#"
   xmlns:rdf="http://www.w3.org/1999/02/22-rdf-syntax-ns#"
   xmlns:svg="http://www.w3.org/2000/svg"
   xmlns="http://www.w3.org/2000/svg"
   version="1.1"
   width="1024"
   height="2048"
   id="svg3355">
  <defs
     id="defs3357" />
  <metadata
     id="metadata3360">
    <rdf:RDF>
      <cc:Work
         rdf:about="">
        <dc:format>image/svg+xml</dc:format>
        <dc:type
           rdf:resource="http://purl.org/dc/dcmitype/StillImage" />
        <dc:title></dc:title>
      </cc:Work>
    </rdf:RDF>
  </metadata>
  <g
     transform="translate(0,995.63782)"
     id="layer1" />
  <path
     d="m 160,256.00002 0,177 -128,0 0,158 128,0 0,944.99998 339.99995,0 c 274.0021,0 444,-89.0042 444,-380 0,-290.99579 -169.9984,-395.99998 -444,-395.99998 -104.9998,0 -170,16 -170,16 l 0,-185 438,0 0,-158 -438,0 0,-177 z m 169.99995,669 170,0 c 169.004,0 274,57.99759 274,230.99998 0,173.0024 -105.0039,223 -274,223 l -170,0 z"
     id="path3157-2-3-8-1-5-9-6"
     style="fill:#000000;fill-opacity:1;stroke:none;display:inline" />
</svg>
