<?xml version="1.0" encoding="UTF-8" standalone="no"?>
<!-- Created with Inkscape (http://www.inkscape.org/) -->

<svg
   xmlns:dc="http://purl.org/dc/elements/1.1/"
   xmlns:cc="http://creativecommons.org/ns#"
   xmlns:rdf="http://www.w3.org/1999/02/22-rdf-syntax-ns#"
   xmlns:svg="http://www.w3.org/2000/svg"
   xmlns="http://www.w3.org/2000/svg"
   version="1.1"
   width="1024"
   height="2048"
   id="svg3355">
  <defs
     id="defs3357" />
  <metadata
     id="metadata3360">
    <rdf:RDF>
      <cc:Work
         rdf:about="">
        <dc:format>image/svg+xml</dc:format>
        <dc:type
           rdf:resource="http://purl.org/dc/dcmitype/StillImage" />
        <dc:title></dc:title>
      </cc:Work>
    </rdf:RDF>
  </metadata>
  <g
     transform="translate(0,995.63782)"
     id="layer1" />
  <path
     d="m 698,504.00001 c -172.99857,0 -284.27851,112.2518 -299,441 l -165,0 0,-433 -170,0 L 64,1536 l 170,0 0,-433 165,0 c 14.93695,328.7405 126.1781,441 299,441 186.00142,0 302,-130.0035 302,-520 0,-389.99648 -115.99708,-519.99999 -302,-519.99999 z m 0,168 c 97.99601,0 132,87.99905 132,351.99999 0,264.0009 -33.99994,363 -132,363 -98.00006,0 -131,-99.005 -131,-363 0,-263.99504 33.00399,-351.99999 131,-351.99999 z"
     id="path5788-3"
     style="fill:#000000;fill-opacity:1;stroke:none;display:inline" />
</svg>
