<?xml version="1.0" encoding="UTF-8" standalone="no"?>
<!-- Created with Inkscape (http://www.inkscape.org/) -->

<svg
   xmlns:dc="http://purl.org/dc/elements/1.1/"
   xmlns:cc="http://creativecommons.org/ns#"
   xmlns:rdf="http://www.w3.org/1999/02/22-rdf-syntax-ns#"
   xmlns:svg="http://www.w3.org/2000/svg"
   xmlns="http://www.w3.org/2000/svg"
   version="1.1"
   width="1024"
   height="2048"
   id="svg3355">
  <defs
     id="defs3357" />
  <metadata
     id="metadata3360">
    <rdf:RDF>
      <cc:Work
         rdf:about="">
        <dc:format>image/svg+xml</dc:format>
        <dc:type
           rdf:resource="http://purl.org/dc/dcmitype/StillImage" />
        <dc:title></dc:title>
      </cc:Work>
    </rdf:RDF>
  </metadata>
  <g
     transform="translate(0,995.63782)"
     id="layer1" />
  <path
     d="m 320,511.99999 196,439 -295,0 0,-439 -157,0 L 64,1536 l 157,0 0,-439 182,0 c 0,0 -83,63.9988 -83,168 l 0,271 146,0 0,-271 c 0,-80.2216 43.4395,-136.3933 117,-158 l 0,429 146,0 0,-429 c 73.56051,21.6072 117,77.7799 117,158 l 0,271 146.00004,0 0,-271 c 0,-148.8074 -75.04452,-254.0298 -204.00004,-295.00001 l 204.00004,-458 z m 201,136 270,0 -135,303 z"
     id="path3157-22-2-6-3-5-3"
     style="fill:#000000;fill-opacity:1;stroke:none;display:inline" />
</svg>
