<?xml version="1.0" encoding="UTF-8" standalone="no"?>
<!-- Created with Inkscape (http://www.inkscape.org/) -->

<svg
   xmlns:dc="http://purl.org/dc/elements/1.1/"
   xmlns:cc="http://creativecommons.org/ns#"
   xmlns:rdf="http://www.w3.org/1999/02/22-rdf-syntax-ns#"
   xmlns:svg="http://www.w3.org/2000/svg"
   xmlns="http://www.w3.org/2000/svg"
   version="1.1"
   width="1024"
   height="2048"
   id="svg3355">
  <defs
     id="defs3357" />
  <metadata
     id="metadata3360">
    <rdf:RDF>
      <cc:Work
         rdf:about="">
        <dc:format>image/svg+xml</dc:format>
        <dc:type
           rdf:resource="http://purl.org/dc/dcmitype/StillImage" />
        <dc:title></dc:title>
      </cc:Work>
    </rdf:RDF>
  </metadata>
  <g
     transform="translate(0,995.63782)"
     id="layer1" />
  <path
     d="M 251,248 C 135.00304,248 64,264 64,264 l 0,149 187,0 c 115.99501,0 187,44.00193 187,177 0,132.99807 -56.00258,178 -147,178 l -163,0 0,157 163,0 c 111.00344,0 179,57.7377 179,227 0,294 94.17367,392 245,392 150.9988,0 245,-97.9972 245,-393 l 0,-383 -170,0 0,383 c 0,177.0027 -29.001,236 -75,236 -45.91054,0 -75.77584,-59.0052 -75,-235 C 641.09321,904.0135 470,846 470,846 470,846 608,779.00052 608,590 608,333.00489 471.99882,248 251,248 z"
     id="path3157-2-7-7-21-4-8-3-17-4"
     style="fill:#000000;fill-opacity:1;stroke:none;display:inline" />
</svg>
