<?xml version="1.0" encoding="UTF-8" standalone="no"?>
<svg
   xmlns:dc="http://purl.org/dc/elements/1.1/"
   xmlns:cc="http://creativecommons.org/ns#"
   xmlns:rdf="http://www.w3.org/1999/02/22-rdf-syntax-ns#"
   xmlns:svg="http://www.w3.org/2000/svg"
   xmlns="http://www.w3.org/2000/svg"
   version="1.1"
   width="1024"
   height="2048"
   id="svg3355">
  <defs
     id="defs3357" />
  <metadata
     id="metadata3360">
    <rdf:RDF>
      <cc:Work
         rdf:about="">
        <dc:format>image/svg+xml</dc:format>
        <dc:type
           rdf:resource="http://purl.org/dc/dcmitype/StillImage" />
        <dc:title></dc:title>
      </cc:Work>
    </rdf:RDF>
  </metadata>
  <path
     d="m 408,252 c -94.00157,0 -152,8 -152,8 v 128 h 152 c 185.0011,0 246,27.9968 246,114 v 70 H 469 c -156.00197,0 -253,78.0006 -253,205 0,153 97.0038,247 253,247 h 185 c 90.00195,0 146,-52.00204 146,-136 V 502 C 800,313.99672 702.0013,252 408,252 Z m 61,456 H 654 V 888 H 469 c -66.00042,0 -107,-41.9985 -107,-111 0,-43.0004 41.0024,-69 107,-69 z m -245,436 v 136 h 576 v -136 z"
     id="path3127-7-9-4-5"
     style="display:inline;fill:#000000;fill-opacity:1;stroke:none" />
</svg>
