<?xml version="1.0" encoding="UTF-8" standalone="no"?>
<svg
   xmlns:dc="http://purl.org/dc/elements/1.1/"
   xmlns:cc="http://creativecommons.org/ns#"
   xmlns:rdf="http://www.w3.org/1999/02/22-rdf-syntax-ns#"
   xmlns:svg="http://www.w3.org/2000/svg"
   xmlns="http://www.w3.org/2000/svg"
   version="1.1"
   width="1024"
   height="2048"
   id="svg3355">
  <defs
     id="defs3357" />
  <metadata
     id="metadata3360">
    <rdf:RDF>
      <cc:Work
         rdf:about="">
        <dc:format>image/svg+xml</dc:format>
        <dc:type
           rdf:resource="http://purl.org/dc/dcmitype/StillImage" />
        <dc:title></dc:title>
      </cc:Work>
    </rdf:RDF>
  </metadata>
  <path
     id="path3918-2-7"
     style="display:inline;fill:#000000;fill-opacity:1;stroke:none"
     d="M 153 252 C 98.00205 252 64 260 64 260 L 64 376 L 153 376 C 241.00486 375.99999 296 392.99876 296 444 C 296 495.00124 255.99558 512 192 512 L 128 512 L 128 632 L 198 632 C 268.0024 632 312 650.00325 312 704 C 312 757.99675 245.99814 776 139 776 L 32 776 L 32 892 C 32 892 73.001975 900 139 900 C 330.00113 900 448 848.0014 448 704 C 448 594.00358 312 558 312 558 C 312 558 432 530.00291 432 444 C 432 303.0013 324.99681 252 153 252 z M 803 256 L 64 1536 L 221 1536 L 960 256 L 803 256 z " />
  <path
     id="path3918-2"
     style="display:inline;fill:#000000;fill-opacity:1;stroke:none"
     d="m 734,896 -222,384 v 128 h 268 v 128 h 136 v -128 h 76 V 1280 H 916 V 896 Z m 46,155 v 229 H 648 Z" />
</svg>
