<?xml version="1.0" encoding="UTF-8" standalone="no"?>
<svg
   xmlns:dc="http://purl.org/dc/elements/1.1/"
   xmlns:cc="http://creativecommons.org/ns#"
   xmlns:rdf="http://www.w3.org/1999/02/22-rdf-syntax-ns#"
   xmlns:svg="http://www.w3.org/2000/svg"
   xmlns="http://www.w3.org/2000/svg"
   version="1.1"
   width="1024"
   height="2048"
   id="svg3355">
  <defs
     id="defs3357" />
  <metadata
     id="metadata3360">
    <rdf:RDF>
      <cc:Work
         rdf:about="">
        <dc:format>image/svg+xml</dc:format>
        <dc:type
           rdf:resource="http://purl.org/dc/dcmitype/StillImage" />
        <dc:title></dc:title>
      </cc:Work>
    </rdf:RDF>
  </metadata>
  <g
     transform="translate(0,995.63782)"
     id="layer1" />
  <path
     d="m 225,503.99997 c -86.99805,0 -128.999997,16 -128.999997,16 v 138 H 225 c 129.00165,0 208,69.99845 208,182 v 111 H 277 c -155.99605,0 -253,99.00263 -253,258.00003 0,206.998 120.00402,335 313,335 114.81872,0 177.74925,-37.8887 212,-104 65.89507,72.9108 157.70775,104 270,104 87.00067,0 141,-16 141,-16 V 1390 H 819 c -228.00457,0 -228,-293 -228,-293 h 244 c 117.99614,0 157,-36.0046 157,-146 V 880 C 992,648.00182 887.00222,503.99997 716,503.99997 c -82.85463,0 -150.61049,38.20914 -199,116 -62.66866,-74.1695 -163.28805,-116 -292,-116 z m 491,146 c 74.0041,0 119,88.00107 119,230.00003 v 70.99997 H 591 c 0,0 0.002,-301 125,-301 z M 277,1097 h 156 c 0,185.9953 0.003,301 -96,301 -95.9972,0 -156,-71.9992 -156,-189 0,-69.0028 36.99834,-112 96,-112 z"
     id="path3157-2-7-7-2-8-2-3-1-1-3-3-6-4"
     style="display:inline;fill:#000000;fill-opacity:1;stroke:none" />
</svg>
