<?xml version="1.0" encoding="UTF-8" standalone="no"?>
<svg
   xmlns:dc="http://purl.org/dc/elements/1.1/"
   xmlns:cc="http://creativecommons.org/ns#"
   xmlns:rdf="http://www.w3.org/1999/02/22-rdf-syntax-ns#"
   xmlns:svg="http://www.w3.org/2000/svg"
   xmlns="http://www.w3.org/2000/svg"
   version="1.1"
   width="1024"
   height="2048"
   id="svg3355">
  <defs
     id="defs3357" />
  <metadata
     id="metadata3360">
    <rdf:RDF>
      <cc:Work
         rdf:about="">
        <dc:format>image/svg+xml</dc:format>
        <dc:type
           rdf:resource="http://purl.org/dc/dcmitype/StillImage" />
        <dc:title></dc:title>
      </cc:Work>
    </rdf:RDF>
  </metadata>
  <path
     id="path3157-2-7-7-2-8-2-3-1-1-3-33-4-6-2"
     style="display:inline;fill:#000000;fill-opacity:1;stroke:none"
     d="M 512,256 V 529.66602 C 474.86097,519.1997 431.92081,512 384,512 175.99823,512 48,716.99735 48,1048 c 0,301.9992 134,488 352,488 h 112 c 117.99978,0 157,-39.0021 157,-157 V 256 Z m 366,0 -110,224 v 32 H 896 L 1024,288 V 256 Z M 384,669 c 47.92081,0 90.86095,8.16417 128,20.0332 V 1379 H 400 c -111.99675,0 -182,-125.9954 -182,-331 0,-234.00292 62.99639,-379 166,-379 z" />
</svg>
