<?xml version="1.0" encoding="UTF-8" standalone="no"?>
<svg
   xmlns:dc="http://purl.org/dc/elements/1.1/"
   xmlns:cc="http://creativecommons.org/ns#"
   xmlns:rdf="http://www.w3.org/1999/02/22-rdf-syntax-ns#"
   xmlns:svg="http://www.w3.org/2000/svg"
   xmlns="http://www.w3.org/2000/svg"
   version="1.1"
   width="1024"
   height="2048"
   id="svg3355">
  <defs
     id="defs3357" />
  <metadata
     id="metadata3360">
    <rdf:RDF>
      <cc:Work
         rdf:about="">
        <dc:format>image/svg+xml</dc:format>
        <dc:type
           rdf:resource="http://purl.org/dc/dcmitype/StillImage" />
        <dc:title></dc:title>
      </cc:Work>
    </rdf:RDF>
  </metadata>
  <g
     transform="translate(0,995.63782)"
     id="layer1" />
  <path
     id="path3157-2-7-7-2-8-2-3-1-1-3-33-4-6-6"
     style="display:inline;fill:#000000;fill-opacity:1;stroke:none"
     d="M 726,256 V 433 H 448 V 591 H 726 V 795.51758 C 667.42049,779.98164 595.27604,768 512,768 c -247.00411,0 -400,149.00126 -400,390 0,233.9949 169.99771,378 444,378 h 84 c 192.00312,0 256,-64.0013 256,-256 V 591 h 128 V 433 H 896 V 256 Z M 512,925 c 83.27514,0 155.41933,13.58811 214,31.20703 V 1280 c 0,61.0016 -32.98906,99 -86,99 h -84 c -168.99868,0 -274,-84.0029 -274,-221 0,-143.9966 87.99784,-233 230,-233 z" />
</svg>
