<?xml version="1.0" encoding="UTF-8" standalone="no"?>
<svg
   xmlns:dc="http://purl.org/dc/elements/1.1/"
   xmlns:cc="http://creativecommons.org/ns#"
   xmlns:rdf="http://www.w3.org/1999/02/22-rdf-syntax-ns#"
   xmlns:svg="http://www.w3.org/2000/svg"
   xmlns="http://www.w3.org/2000/svg"
   version="1.1"
   width="1024"
   height="2048"
   id="svg3355">
  <defs
     id="defs3357" />
  <metadata
     id="metadata3360">
    <rdf:RDF>
      <cc:Work
         rdf:about="">
        <dc:format>image/svg+xml</dc:format>
        <dc:type
           rdf:resource="http://purl.org/dc/dcmitype/StillImage" />
        <dc:title></dc:title>
      </cc:Work>
    </rdf:RDF>
  </metadata>
  <g
     transform="translate(0,995.63782)"
     id="layer1" />
  <path
     d="m 307,504.00001 c -174.99727,0 -283,130.00381 -283,519.99999 0,389.9962 108.00243,520 283,520 90.47933,0 161.45777,-43.7708 205,-155 66.1912,108.9479 171.68236,155 307,155 87.00067,0 141,-16 141,-16 V 1390 H 819 c -228.00457,0 -228,-293 -228,-293 h 244 c 118.00325,0 157,-35.9967 157,-146 V 880 C 992,648.00413 890.00144,504.00001 716,504.00001 c -90.21674,0 -163.12301,45.55674 -212,138 -43.9259,-98.62331 -111.29493,-138 -197,-138 z m 0,146 c 77.9997,0 126,92.99786 126,373.99999 0,281.0021 -48.00236,374 -126,374 -77.99764,0 -126,-92.9988 -126,-374 0,-281.00118 48.0003,-373.99999 126,-373.99999 z m 409,0 c 74.00144,0 119,87.99728 119,229.99999 v 71.00001 H 591 c 0,0 0.002,-301 125,-301 z"
     id="path3157-2-7-7-2-8-2-3-1-1-3-3-6-4-4"
     style="display:inline;fill:#000000;fill-opacity:1;stroke:none" />
</svg>
