<?xml version="1.0" encoding="UTF-8" standalone="no"?>
<svg
   xmlns:dc="http://purl.org/dc/elements/1.1/"
   xmlns:cc="http://creativecommons.org/ns#"
   xmlns:rdf="http://www.w3.org/1999/02/22-rdf-syntax-ns#"
   xmlns:svg="http://www.w3.org/2000/svg"
   xmlns="http://www.w3.org/2000/svg"
   version="1.1"
   width="1024"
   height="2048"
   id="svg3355">
  <defs
     id="defs3357" />
  <metadata
     id="metadata3360">
    <rdf:RDF>
      <cc:Work
         rdf:about="">
        <dc:format>image/svg+xml</dc:format>
        <dc:type
           rdf:resource="http://purl.org/dc/dcmitype/StillImage" />
        <dc:title></dc:title>
      </cc:Work>
    </rdf:RDF>
  </metadata>
  <g
     transform="translate(0,995.63782)"
     id="layer1" />
  <path
     id="path3157-2-7-7-2-8-2-3-1-1-3-33-4-6-6"
     style="display:inline;fill:#000000;fill-opacity:1;stroke:none"
     d="M 298,256 V 433 H 576 V 591 H 298 v 205 c 58.57951,-15.53594 130.72396,-28 214,-28 247.00411,0 400,144.00257 400,378 0,240.9972 -169.99771,390 -444,390 h -84 c -192.00312,0 -256,-64.0013 -256,-256 V 591 H 0 V 433 H 128 V 256 Z m 214,669 c -83.27514,0 -155.41933,13.38108 -214,31 v 324 c 0,61.0016 32.98906,99 86,99 h 84 c 168.99868,0 274,-89.0001 274,-233 0,-137.0014 -87.99784,-221 -230,-221 z" />
</svg>
