<?xml version="1.0" encoding="UTF-8" standalone="no"?>
<svg
   xmlns:dc="http://purl.org/dc/elements/1.1/"
   xmlns:cc="http://creativecommons.org/ns#"
   xmlns:rdf="http://www.w3.org/1999/02/22-rdf-syntax-ns#"
   xmlns:svg="http://www.w3.org/2000/svg"
   xmlns="http://www.w3.org/2000/svg"
   version="1.1"
   width="1024"
   height="2048"
   id="svg3355">
  <defs
     id="defs3357" />
  <metadata
     id="metadata3360">
    <rdf:RDF>
      <cc:Work
         rdf:about="">
        <dc:format>image/svg+xml</dc:format>
        <dc:type
           rdf:resource="http://purl.org/dc/dcmitype/StillImage" />
        <dc:title></dc:title>
      </cc:Work>
    </rdf:RDF>
  </metadata>
  <path
     id="path3157-2-7-7-2-8-2-3-1-1-3-33-4-6-5"
     style="display:inline;fill:#000000;fill-opacity:1;stroke:none"
     d="m 256,256 v 157 h 470 v 243 c -58.5799,-25.14621 -130.72401,-45 -214,-45 -247.00411,0 -400,181.00055 -400,475 0,277.9964 169.99771,450 444,450 h 84 c 192.00312,0 256,-64.0013 256,-256 V 256 Z m 256,512 c 83.27667,0 155.42085,23.20987 214,53 v 459 c 0,61.0016 -32.98906,99 -86,99 h -84 c -168.99868,0 -274,-112.0011 -274,-293 0,-196.99846 87.99784,-318 230,-318 z" />
</svg>
