<?xml version="1.0" encoding="UTF-8" standalone="no"?>
<svg
   xmlns:dc="http://purl.org/dc/elements/1.1/"
   xmlns:cc="http://creativecommons.org/ns#"
   xmlns:rdf="http://www.w3.org/1999/02/22-rdf-syntax-ns#"
   xmlns:svg="http://www.w3.org/2000/svg"
   xmlns="http://www.w3.org/2000/svg"
   version="1.1"
   width="1024"
   height="2048"
   id="svg3355">
  <defs
     id="defs3357" />
  <metadata
     id="metadata3360">
    <rdf:RDF>
      <cc:Work
         rdf:about="">
        <dc:format>image/svg+xml</dc:format>
        <dc:type
           rdf:resource="http://purl.org/dc/dcmitype/StillImage" />
        <dc:title></dc:title>
      </cc:Work>
    </rdf:RDF>
  </metadata>
  <g
     transform="translate(0,995.63782)"
     id="layer1" />
  <path
     d="m 406,248.00002 c -137.0039,0 -222,16 -222,16 v 149 h 222 c 352.0032,0 351.9999,355 351.9999,355 H 266 C 137.99822,768.00002 95.999907,806.99968 95.999955,925 L 96,1036 c 1.29e-4,319.0022 159.00124,516 416,516 262.00382,0 424,-240.0018 424,-686.99998 0,-400.00076 -201.9978,-617 -530,-617 z M 265.99995,925 H 758 c 0,0 0.004,470 -246,470 -151.99502,0 -245.99975,-137.0042 -245.99995,-359 z"
     id="path3157-2-7-7-2-8-2-3-1-1-3-3-6-9"
     style="display:inline;fill:#000000;fill-opacity:1;stroke:none" />
</svg>
