<?xml version="1.0" encoding="UTF-8" standalone="no"?>
<!-- Created with Inkscape (http://www.inkscape.org/) -->

<svg
   xmlns:dc="http://purl.org/dc/elements/1.1/"
   xmlns:cc="http://creativecommons.org/ns#"
   xmlns:rdf="http://www.w3.org/1999/02/22-rdf-syntax-ns#"
   xmlns:svg="http://www.w3.org/2000/svg"
   xmlns="http://www.w3.org/2000/svg"
   version="1.1"
   width="1024"
   height="2048"
   id="svg3355">
  <defs
     id="defs3357" />
  <metadata
     id="metadata3360">
    <rdf:RDF>
      <cc:Work
         rdf:about="">
        <dc:format>image/svg+xml</dc:format>
        <dc:type
           rdf:resource="http://purl.org/dc/dcmitype/StillImage" />
        <dc:title></dc:title>
      </cc:Work>
    </rdf:RDF>
  </metadata>
  <g
     transform="translate(0,995.63782)"
     id="layer1" />
  <path
     d="M 512,240 C 224.99622,240 48,404.00171 48,896 c 0,491.9983 176.9997,656 464,656 287.00034,0 464,-164.0019 464,-656 C 976,404.00192 799.00374,240 512,240 z m 0,157 c 163.89144,0 269.26169,107.20606 284,420 l -568,0 C 242.7383,504.20684 348.10856,397 512,397 z m -284,577 568,0 c -14.56019,313.5622 -119.92843,421 -284,421 -164.07158,0 -269.43981,-107.4385 -284,-421 z"
     id="path3127-7-5-2"
     style="fill:#000000;fill-opacity:1;stroke:none;display:inline" />
</svg>
