<?xml version="1.0" encoding="UTF-8" standalone="no"?>
<!-- Created with Inkscape (http://www.inkscape.org/) -->

<svg
   xmlns:dc="http://purl.org/dc/elements/1.1/"
   xmlns:cc="http://creativecommons.org/ns#"
   xmlns:rdf="http://www.w3.org/1999/02/22-rdf-syntax-ns#"
   xmlns:svg="http://www.w3.org/2000/svg"
   xmlns="http://www.w3.org/2000/svg"
   version="1.1"
   width="1024"
   height="2048"
   id="svg3355">
  <defs
     id="defs3357" />
  <metadata
     id="metadata3360">
    <rdf:RDF>
      <cc:Work
         rdf:about="">
        <dc:format>image/svg+xml</dc:format>
        <dc:type
           rdf:resource="http://purl.org/dc/dcmitype/StillImage" />
        <dc:title></dc:title>
      </cc:Work>
    </rdf:RDF>
  </metadata>
  <path
     d="M 854,384 C 854,502.52621 834.51071,564.69463 814,597 740.14949,525.32893 637.20807,496 512,496 245.00403,496 80,628.00461 80,1024 c 0,395.9954 164.99629,528 432,528 267.00371,0 432,-131.9992 432,-528 0,-126.7738 -17.24601,-226.00821 -49,-303 64.22032,-47.83362 129,-144.33675 129,-337 z M 512,653 c 161.99676,0 262,92.99971 262,371 0,278.0003 -100.00097,371 -262,371 -161.99903,0 -262,-93.0023 -262,-371 0,-277.99768 100.00324,-371 262,-371 z"
     id="path4294-7-0"
     style="fill:#000000;fill-opacity:1;stroke:none;display:inline" />
</svg>
