<?xml version="1.0" encoding="UTF-8" standalone="no"?>
<!-- Created with Inkscape (http://www.inkscape.org/) -->

<svg
   xmlns:dc="http://purl.org/dc/elements/1.1/"
   xmlns:cc="http://creativecommons.org/ns#"
   xmlns:rdf="http://www.w3.org/1999/02/22-rdf-syntax-ns#"
   xmlns:svg="http://www.w3.org/2000/svg"
   xmlns="http://www.w3.org/2000/svg"
   version="1.1"
   width="1024"
   height="2048"
   id="svg3355">
  <defs
     id="defs3357" />
  <metadata
     id="metadata3360">
    <rdf:RDF>
      <cc:Work
         rdf:about="">
        <dc:format>image/svg+xml</dc:format>
        <dc:type
           rdf:resource="http://purl.org/dc/dcmitype/StillImage" />
        <dc:title></dc:title>
      </cc:Work>
    </rdf:RDF>
  </metadata>
  <path
     d="M 341,128 C 199.6179,128 85,242.61674 85,384 c 0,141.38326 114.61569,256 256,256 30.17177,0 59.12009,-5.4144 86,-15 l 0,754 c 0,315.9962 135.99778,421 355,421 70.00331,0 114,-16 114,-16 l 0,-149 -114,0 c -114.00491,0 -185,-63.995 -185,-256 l 0,-995 C 597,242.61564 482.3821,128 341,128 z m 0,136 c 66.26919,0 120,53.73125 120,120 0,66.26875 -53.72607,120 -120,120 -66.27393,0 -120,-53.72976 -120,-120 0,-66.27024 53.73081,-120 120,-120 z"
     id="path3127-7-9-5"
     style="fill:#000000;fill-opacity:1;stroke:none;display:inline" />
</svg>
