<?xml version="1.0" encoding="UTF-8" standalone="no"?>
<svg
   xmlns:dc="http://purl.org/dc/elements/1.1/"
   xmlns:cc="http://creativecommons.org/ns#"
   xmlns:rdf="http://www.w3.org/1999/02/22-rdf-syntax-ns#"
   xmlns:svg="http://www.w3.org/2000/svg"
   xmlns="http://www.w3.org/2000/svg"
   id="svg3355"
   height="2048"
   width="1024"
   version="1.1">
  <defs
     id="defs3357" />
  <metadata
     id="metadata3360">
    <rdf:RDF>
      <cc:Work
         rdf:about="">
        <dc:format>image/svg+xml</dc:format>
        <dc:type
           rdf:resource="http://purl.org/dc/dcmitype/StillImage" />
        <dc:title></dc:title>
      </cc:Work>
    </rdf:RDF>
  </metadata>
  <path
     id="path3157-2-7-7-2-8-2-3-1-9"
     style="display:inline;fill:#000000;fill-opacity:1;stroke:none"
     d="M 951,252 C 771.99804,252 662,353.0046 662,669 v 454 H 448 C 316.00293,1123 234,1064.9971 234,970 V 512 H 64 v 458 c 0,191.9983 147.00208,310 384,310 h 214 v 136 c 0,164.0029 -117.99621,219 -310,219 H 160 v 149 c 0,0 73.00044,16 192,16 296.99503,0 480,-95.9961 480,-384 V 669 c 0,-192.0037 44.9968,-256 119,-256 h 73 V 260 c 0,0 -30.0026,-8 -73,-8 z" />
</svg>
