<?xml version="1.0" encoding="UTF-8" standalone="no"?>
<svg
   xmlns:dc="http://purl.org/dc/elements/1.1/"
   xmlns:cc="http://creativecommons.org/ns#"
   xmlns:rdf="http://www.w3.org/1999/02/22-rdf-syntax-ns#"
   xmlns:svg="http://www.w3.org/2000/svg"
   xmlns="http://www.w3.org/2000/svg"
   version="1.1"
   width="1024"
   height="2048"
   id="svg3355">
  <defs
     id="defs3357" />
  <metadata
     id="metadata3360">
    <rdf:RDF>
      <cc:Work
         rdf:about="">
        <dc:format>image/svg+xml</dc:format>
        <dc:type
           rdf:resource="http://purl.org/dc/dcmitype/StillImage" />
        <dc:title></dc:title>
      </cc:Work>
    </rdf:RDF>
  </metadata>
  <path
     id="path3157-2-7-2-7-1-9"
     style="display:inline;fill:#000000;fill-opacity:1;stroke:none"
     d="M 512,240 C 284.99926,240 144,403.0021 144,588 h 170 c 0,-88.00449 75.99794,-191 198,-191 122.00206,0 198,102.99676 198,191 0,56.77806 -28.49998,111.80463 -79,180 H 192 v 157 h 312 l -376,454 v 157 H 896 V 1379 H 332 L 649,996 c 20.66741,-24.9704 39.72041,-48.52357 58,-71 H 896 V 768 H 823 C 859.9437,706.63647 880,649.88684 880,588 880,403.00385 739.00074,240 512,240 Z" />
</svg>
