<?xml version="1.0" encoding="UTF-8" standalone="no"?>
<svg
   xmlns:dc="http://purl.org/dc/elements/1.1/"
   xmlns:cc="http://creativecommons.org/ns#"
   xmlns:rdf="http://www.w3.org/1999/02/22-rdf-syntax-ns#"
   xmlns:svg="http://www.w3.org/2000/svg"
   xmlns="http://www.w3.org/2000/svg"
   version="1.1"
   width="1024"
   height="2048"
   id="svg3355">
  <defs
     id="defs3357" />
  <metadata
     id="metadata3360">
    <rdf:RDF>
      <cc:Work
         rdf:about="">
        <dc:format>image/svg+xml</dc:format>
        <dc:type
           rdf:resource="http://purl.org/dc/dcmitype/StillImage" />
        <dc:title></dc:title>
      </cc:Work>
    </rdf:RDF>
  </metadata>
  <path
     id="path3157-2-7-7-2-8-2-3-1-8-2-6-4-3-78-6"
     style="display:inline;fill:#000000;fill-opacity:1;stroke:none"
     d="m 556,512 c -274.00378,0 -444,148.99942 -444,390 0,234.0003 152.99847,378 400,378 h 214 v 99 H 448 v 157 h 247 c -46.88615,72.1376 -144.83747,99 -279,99 H 224 v 149 c 0,0 72.99541,16 192,16 250.28574,0 419.92762,-72.4397 467,-264 h 141 V 1379 H 896 V 768 C 896,576.00305 832.00203,512 640,512 Z m 0,157 h 84 c 52.99928,0 86,37.99997 86,99 v 355 H 512 C 370.00282,1123 282,1038.9974 282,902 282,758.00328 387.00411,669 556,669 Z" />
</svg>
