<?xml version="1.0" encoding="UTF-8" standalone="no"?>
<svg
   xmlns:dc="http://purl.org/dc/elements/1.1/"
   xmlns:cc="http://creativecommons.org/ns#"
   xmlns:rdf="http://www.w3.org/1999/02/22-rdf-syntax-ns#"
   xmlns:svg="http://www.w3.org/2000/svg"
   xmlns="http://www.w3.org/2000/svg"
   version="1.1"
   width="1024"
   height="2048"
   id="svg3355">
  <defs
     id="defs3357" />
  <metadata
     id="metadata3360">
    <rdf:RDF>
      <cc:Work
         rdf:about="">
        <dc:format>image/svg+xml</dc:format>
        <dc:type
           rdf:resource="http://purl.org/dc/dcmitype/StillImage" />
        <dc:title></dc:title>
      </cc:Work>
    </rdf:RDF>
  </metadata>
  <g
     transform="translate(-36,995.63782)"
     id="layer1" />
  <g
     transform="translate(0,995.63786)"
     id="layer1-3">
    <path
       id="path3157-2-7-2-1-8-1-7-6"
       style="display:inline;fill:#000000;fill-opacity:1;stroke:none"
       d="m 480,-755.63786 c -197.99867,0 -320,78 -320,78 v 157 c 0,0 121.99788,-78 320,-78 142.00468,0 230,93.00376 230,243 0,122.67988 -58.82566,207.42717 -158,234 l -296,79 v 166 l 354,-95 c 19.28916,-5.1765 37.54415,-11.4633 55,-19 49.24911,41.9254 77,107.9777 77,192 0,122.6799 -58.82378,207.4343 -158,234 l -392,105 v 166 l 450,-121 c 169.46604,-45.5675 270,-183.8483 270,-384 0,-125.7866 -39.43232,-226.76269 -111,-296 51.28745,-66.62608 79,-155.44121 79,-261 0,-247.0012 -153.0005,-400 -400,-400 z" />
  </g>
  <g
     transform="translate(-981.49895,1882.273)"
     id="layer1-3-7" />
</svg>
