<?xml version="1.0" encoding="UTF-8" standalone="no"?>
<svg
   xmlns:dc="http://purl.org/dc/elements/1.1/"
   xmlns:cc="http://creativecommons.org/ns#"
   xmlns:rdf="http://www.w3.org/1999/02/22-rdf-syntax-ns#"
   xmlns:svg="http://www.w3.org/2000/svg"
   xmlns="http://www.w3.org/2000/svg"
   version="1.1"
   width="1024"
   height="2048"
   id="svg3355">
  <defs
     id="defs3357" />
  <metadata
     id="metadata3360">
    <rdf:RDF>
      <cc:Work
         rdf:about="">
        <dc:format>image/svg+xml</dc:format>
        <dc:type
           rdf:resource="http://purl.org/dc/dcmitype/StillImage" />
        <dc:title></dc:title>
      </cc:Work>
    </rdf:RDF>
  </metadata>
  <path
     id="path3157-2-7-2-1-8-1-7"
     style="display:inline;fill:#000000;fill-opacity:1;stroke:none"
     d="m 512,504 c -218.00231,0 -352,78 -352,78 v 157 c 0,0 134.00396,-78 352,-78 103.00279,0 166,70.00322 166,184 0,160.1113 -166,201 -166,201 l -256,69 v 165 l 261,-70 c 138.88835,2.4811 225,102.7803 225,243 0,117.6888 -60.46043,207.7832 -162,235 l -388,104 v 165 L 642,1837 C 811.54873,1791.787 912,1653.1411 912,1453 912,1296.2016 850.23963,1177.8553 739,1110 792.37306,1058.4532 848,973.69675 848,845 848,634.00395 719.99807,504 512,504 Z" />
</svg>
