<?xml version="1.0" encoding="UTF-8" standalone="no"?>
<svg
   xmlns:dc="http://purl.org/dc/elements/1.1/"
   xmlns:cc="http://creativecommons.org/ns#"
   xmlns:rdf="http://www.w3.org/1999/02/22-rdf-syntax-ns#"
   xmlns:svg="http://www.w3.org/2000/svg"
   xmlns="http://www.w3.org/2000/svg"
   version="1.1"
   width="1024"
   height="2048"
   id="svg3355">
  <defs
     id="defs3357" />
  <metadata
     id="metadata3360">
    <rdf:RDF>
      <cc:Work
         rdf:about="">
        <dc:format>image/svg+xml</dc:format>
        <dc:type
           rdf:resource="http://purl.org/dc/dcmitype/StillImage" />
        <dc:title></dc:title>
      </cc:Work>
    </rdf:RDF>
  </metadata>
  <path
     id="path3127-7-9-5-0"
     style="display:inline;fill:#000000;fill-opacity:1;stroke:none"
     d="M 512,256 V 529.66602 C 474.86097,519.1997 431.92081,512 384,512 175.99823,512 48,716.99735 48,1048 c 0,301.9992 134,488 352,488 h 112 c 0,141.3898 114.6179,256 256,256 141.3821,0 256,-114.6167 256,-256 0,-141.3833 -114.62327,-255.5842 -256,-256 -35.09852,-0.1032 -68.54387,7.2359 -99,20 V 256 Z M 384,669 c 47.92081,0 90.86095,8.16417 128,20.0332 V 1379 H 400 c -111.99675,0 -182,-125.9954 -182,-331 0,-234.00292 62.99639,-379 166,-379 z m 384,747 c 66.27393,0 120,53.7298 120,120 0,66.2702 -53.73081,120 -120,120 -66.26919,0 -120,-53.7312 -120,-120 0,-66.2687 53.72607,-120 120,-120 z" />
</svg>
