<?xml version="1.0" encoding="UTF-8" standalone="no"?>
<!-- Created with Inkscape (http://www.inkscape.org/) -->

<svg
   xmlns:dc="http://purl.org/dc/elements/1.1/"
   xmlns:cc="http://creativecommons.org/ns#"
   xmlns:rdf="http://www.w3.org/1999/02/22-rdf-syntax-ns#"
   xmlns:svg="http://www.w3.org/2000/svg"
   xmlns="http://www.w3.org/2000/svg"
   version="1.1"
   width="1024"
   height="2048"
   id="svg3355">
  <defs
     id="defs3357" />
  <metadata
     id="metadata3360">
    <rdf:RDF>
      <cc:Work
         rdf:about="">
        <dc:format>image/svg+xml</dc:format>
        <dc:type
           rdf:resource="http://purl.org/dc/dcmitype/StillImage" />
        <dc:title></dc:title>
      </cc:Work>
    </rdf:RDF>
  </metadata>
  <path
     d="m 896,256 -170,0 c 0,0 16,54.99699 16,144.00001 C 742,543.00148 512,632 512,632 512,632 282,543.00197 282,400.00001 282,311.00111 298,256 298,256 l -170,0 c 0,0 -16,55.00154 -16,144.00001 C 112,585.00142 350,700 350,700 c 0,0 -270,169.99942 -270,446 0,251.0035 165.0048,406 432,406 266.99519,0 432,-155.0041 432,-406 C 944,869.99888 674,700 674,700 674,700 912,584.99548 912,400.00001 912,311.00253 896,256 896,256 z M 512,768 c 0,0 262,143.99738 262,378 0,144.0031 -99.99891,233 -262,233 -162.00109,0 -262,-88.9952 -262,-233 0,-233.99818 262,-378 262,-378 z"
     id="path3157-2-7-3-2-8-64"
     style="fill:#000000;fill-opacity:1;stroke:none;display:inline" />
</svg>
