<?xml version="1.0" encoding="UTF-8" standalone="no"?>
<svg
   xmlns:dc="http://purl.org/dc/elements/1.1/"
   xmlns:cc="http://creativecommons.org/ns#"
   xmlns:rdf="http://www.w3.org/1999/02/22-rdf-syntax-ns#"
   xmlns:svg="http://www.w3.org/2000/svg"
   xmlns="http://www.w3.org/2000/svg"
   version="1.1"
   width="1024"
   height="2048"
   id="svg3355">
  <defs
     id="defs3357" />
  <metadata
     id="metadata3360">
    <rdf:RDF>
      <cc:Work
         rdf:about="">
        <dc:format>image/svg+xml</dc:format>
        <dc:type
           rdf:resource="http://purl.org/dc/dcmitype/StillImage" />
        <dc:title></dc:title>
      </cc:Work>
    </rdf:RDF>
  </metadata>
  <path
     d="m 427,256 v 256 c -233.99781,0 -379,205.00267 -379,536 0,302.001 144.99516,488 379,488 h 170 c 234.00154,0 379,-205.0026 379,-536 C 976,698.00127 831.00333,512 597,512 V 256 Z m 0,413 v 710 c -129.00392,0 -209,-125.9992 -209,-331 0,-234.0034 79.99761,-379 209,-379 z m 170,0 c 128.99856,0 209,125.9995 209,331 0,234.0015 -79.99842,379 -209,379 z"
     id="path3157-2-7-7-2-8-2-3-1-1-3-33-1"
     style="display:inline;fill:#000000;fill-opacity:1;stroke:none" />
</svg>
