<?xml version="1.0" encoding="UTF-8" standalone="no"?>
<svg
   xmlns:dc="http://purl.org/dc/elements/1.1/"
   xmlns:cc="http://creativecommons.org/ns#"
   xmlns:rdf="http://www.w3.org/1999/02/22-rdf-syntax-ns#"
   xmlns:svg="http://www.w3.org/2000/svg"
   xmlns="http://www.w3.org/2000/svg"
   version="1.1"
   width="1024"
   height="2048"
   id="svg3355">
  <defs
     id="defs3357" />
  <metadata
     id="metadata3360">
    <rdf:RDF>
      <cc:Work
         rdf:about="">
        <dc:format>image/svg+xml</dc:format>
        <dc:type
           rdf:resource="http://purl.org/dc/dcmitype/StillImage" />
        <dc:title></dc:title>
      </cc:Work>
    </rdf:RDF>
  </metadata>
  <path
     d="m 597,1792 v -512 h 80 C 861.99736,1280 976,1131 976,890 976,656.00073 870.99575,512 701,512 H 597 427 347 C 162.00278,512 48,661.00203 48,902 c 0,234 104.99977,378 275,378 h 104 v 512 z m 80,-669 H 597 V 669 h 104 c 64.99712,0 105,71.85407 105,221 0,143.9978 -49.00281,233 -129,233 z m -250,0 H 323 c -65.00062,0 -105,-94.0959 -105,-221 0,-143.9997 48.99724,-233 129,-233 h 80 z"
     id="path3157-2-7-7-2-8-2-3-1-1-3-33-1-2"
     style="display:inline;fill:#000000;fill-opacity:1;stroke:none" />
</svg>
