<?xml version="1.0" encoding="UTF-8" standalone="no"?>
<!-- Created with Inkscape (http://www.inkscape.org/) -->

<svg
   xmlns:dc="http://purl.org/dc/elements/1.1/"
   xmlns:cc="http://creativecommons.org/ns#"
   xmlns:rdf="http://www.w3.org/1999/02/22-rdf-syntax-ns#"
   xmlns:svg="http://www.w3.org/2000/svg"
   xmlns="http://www.w3.org/2000/svg"
   version="1.1"
   width="1024"
   height="2048"
   id="svg3355">
  <defs
     id="defs3357" />
  <metadata
     id="metadata3360">
    <rdf:RDF>
      <cc:Work
         rdf:about="">
        <dc:format>image/svg+xml</dc:format>
        <dc:type
           rdf:resource="http://purl.org/dc/dcmitype/StillImage" />
        <dc:title></dc:title>
      </cc:Work>
    </rdf:RDF>
  </metadata>
  <path
     d="m 597,1792 0,-512 80,0 c 184.99736,0 299,-167.0028 299,-438 0,-203.99625 -94.99517,-330 -250,-330 l -129,0 -170,0 -80,0 C 162.00278,512 48,679.00363 48,950 c 0,203.9969 95.00484,330 250,330 l 129,0 0,512 z m 80,-669 -80,0 0,-454 129,0 c 48.99541,0 80,66.00245 80,173 0,173.9989 -49.00281,281 -129,281 z m -250,0 -129,0 c -49.00353,0 -80,-66.0008 -80,-173 0,-174 48.99724,-281 129,-281 l 80,0 z"
     id="path3157-2-7-7-2-8-2-3-1-1-3-33-1-2"
     style="fill:#000000;fill-opacity:1;stroke:none;display:inline" />
</svg>
