<?xml version="1.0" encoding="UTF-8" standalone="no"?>
<!-- Created with Inkscape (http://www.inkscape.org/) -->

<svg
   xmlns:dc="http://purl.org/dc/elements/1.1/"
   xmlns:cc="http://creativecommons.org/ns#"
   xmlns:rdf="http://www.w3.org/1999/02/22-rdf-syntax-ns#"
   xmlns:svg="http://www.w3.org/2000/svg"
   xmlns="http://www.w3.org/2000/svg"
   version="1.1"
   width="1024"
   height="2048"
   id="svg3355">
  <defs
     id="defs3357" />
  <metadata
     id="metadata3360">
    <rdf:RDF>
      <cc:Work
         rdf:about="">
        <dc:format>image/svg+xml</dc:format>
        <dc:type
           rdf:resource="http://purl.org/dc/dcmitype/StillImage" />
        <dc:title></dc:title>
      </cc:Work>
    </rdf:RDF>
  </metadata>
  <path
     d="m 634,504 c -303.00358,0 -490,74.99964 -490,301 0,346.9969 566,219.0001 566,439 0,101.9953 -130.00029,135 -340,135 l -210,0 0,157 c 352.0047,0 193.44718,413 672,413 l 0,-157 C 628.75727,1792 595.74315,1654.376 512,1538 742.54917,1516.3877 880,1433.7576 880,1244 880,896.00203 314,1024.003 314,805 314,703.0012 436.00247,669 634,669 l 198,0 0,-149 c 0,0 -76.00316,-16 -198,-16 z"
     id="path4294-3-4"
     style="fill:#000000;fill-opacity:1;stroke:none;display:inline" />
</svg>
