<?xml version="1.0" encoding="UTF-8" standalone="no"?>
<svg
   xmlns:dc="http://purl.org/dc/elements/1.1/"
   xmlns:cc="http://creativecommons.org/ns#"
   xmlns:rdf="http://www.w3.org/1999/02/22-rdf-syntax-ns#"
   xmlns:svg="http://www.w3.org/2000/svg"
   xmlns="http://www.w3.org/2000/svg"
   version="1.1"
   width="1024"
   height="2048"
   id="svg3355">
  <defs
     id="defs3357" />
  <metadata
     id="metadata3360">
    <rdf:RDF>
      <cc:Work
         rdf:about="">
        <dc:format>image/svg+xml</dc:format>
        <dc:type
           rdf:resource="http://purl.org/dc/dcmitype/StillImage" />
        <dc:title></dc:title>
      </cc:Work>
    </rdf:RDF>
  </metadata>
  <path
     id="path3157-2-7-7-2-8-2-3-1-1-3-3-6-04"
     style="display:inline;fill:#000000;fill-opacity:1;stroke:none"
     d="m 812,384 -92,157 c -58.67993,-29.24107 -128.64818,-45 -208,-45 -241.99928,0 -400,202.00482 -400,528 0,153.5213 39.64418,278.7123 111,368 L 64,1664 h 148 l 108,-185 c 66.8339,42.0367 147.90075,65 241,65 167.00331,0 271,-16 271,-16 V 1379 H 561 c -67.99688,0 -118.84462,-16.9679 -157,-43 l 136,-233 h 202 c 128.00077,0 170,-39.0016 170,-158 V 876 C 912,770.34009 880.15336,683.2723 823,619 L 960,384 Z M 512,653 c 48.82593,0 91.32441,10.2011 126,29 L 484,945 H 290 c 0,0 0.003,-292 222,-292 z m 214,131 c 10.25306,27.16408 16,57.86652 16,92 v 69 H 632 Z m -436,319 h 102 l -74,126 c -28.2607,-64.7326 -28,-126 -28,-126 z" />
  <g
     transform="translate(0,995.63782)"
     id="layer1-15"
     style="display:inline" />
</svg>
