<?xml version="1.0" encoding="UTF-8" standalone="no"?>
<svg
   xmlns:dc="http://purl.org/dc/elements/1.1/"
   xmlns:cc="http://creativecommons.org/ns#"
   xmlns:rdf="http://www.w3.org/1999/02/22-rdf-syntax-ns#"
   xmlns:svg="http://www.w3.org/2000/svg"
   xmlns="http://www.w3.org/2000/svg"
   version="1.1"
   width="1024"
   height="2048"
   id="svg3355">
  <defs
     id="defs3357" />
  <metadata
     id="metadata3360">
    <rdf:RDF>
      <cc:Work
         rdf:about="">
        <dc:format>image/svg+xml</dc:format>
        <dc:type
           rdf:resource="http://purl.org/dc/dcmitype/StillImage" />
        <dc:title></dc:title>
      </cc:Work>
    </rdf:RDF>
  </metadata>
  <path
     id="path3157-2-7-7-2-8-2-3-1-1-3-3-6-04"
     style="display:inline;fill:#000000;fill-opacity:1;stroke:none"
     d="m 812,384 -93,159 c -57.26644,-30.86891 -127.07792,-47 -207,-47 -246.99752,0 -400,202.00482 -400,528 0,154.0026 38.91984,279.661 110,369 L 64,1664 h 148 l 107,-184 c 65.9518,41.4254 146.26964,64 238,64 160.36898,0 275,-16 275,-16 V 1379 H 557 c -66.28442,0 -116.54144,-17.4256 -154,-43 l 137,-233 h 186 c 128.00077,0 170,-39.0016 170,-158 V 876 C 896,774.5316 868.2216,689.48219 818,626 L 960,384 Z M 512,653 c 48.484,0 90.59273,11.65071 124,33 L 484,945 H 290 c 0,0 0.003,-292 222,-292 z m 205,148 c 6.18035,22.91896 9,47.67733 9,75 v 69 h -94 z m -427,302 h 102 l -74,126 c -28.01928,-64.8833 -28,-126 -28,-126 z" />
  <g
     transform="translate(0,995.63782)"
     id="layer1-15"
     style="display:inline" />
</svg>
