<?xml version="1.0" encoding="UTF-8" standalone="no"?>
<svg
   xmlns:dc="http://purl.org/dc/elements/1.1/"
   xmlns:cc="http://creativecommons.org/ns#"
   xmlns:rdf="http://www.w3.org/1999/02/22-rdf-syntax-ns#"
   xmlns:svg="http://www.w3.org/2000/svg"
   xmlns="http://www.w3.org/2000/svg"
   id="svg3355"
   height="2048"
   width="1024"
   version="1.1">
  <defs
     id="defs3357" />
  <metadata
     id="metadata3360">
    <rdf:RDF>
      <cc:Work
         rdf:about="">
        <dc:format>image/svg+xml</dc:format>
        <dc:type
           rdf:resource="http://purl.org/dc/dcmitype/StillImage" />
        <dc:title></dc:title>
      </cc:Work>
    </rdf:RDF>
  </metadata>
  <path
     style="display:inline;fill:#000000;fill-opacity:1;stroke:none"
     id="path3157-2-7-7-2-8-2-3-1-1-8-0-4"
     d="M 448,256 C 181.00355,256 16,451.99935 16,768 c 0,389.9975 165.00272,520 432,520 132.00376,0 214,-16 214,-16 v 107 c 0,315.9963 109.998,421 289,421 42.9974,0 73,-16 73,-16 v -149 h -73 c -74.0032,0 -119,-64.004 -119,-256 V 512 C 832,320.00305 768.0021,256 576,256 Z m 0,157 h 128 c 52.9993,0 86,37.99997 86,99 v 611 H 448 c -162.00421,0 -262,-89.0003 -262,-355 0,-218.9952 99.99745,-355 262,-355 z" />
</svg>
