<?xml version="1.0" encoding="UTF-8" standalone="no"?>
<svg
   xmlns:dc="http://purl.org/dc/elements/1.1/"
   xmlns:cc="http://creativecommons.org/ns#"
   xmlns:rdf="http://www.w3.org/1999/02/22-rdf-syntax-ns#"
   xmlns:svg="http://www.w3.org/2000/svg"
   xmlns="http://www.w3.org/2000/svg"
   id="svg3355"
   height="2048"
   width="1024"
   version="1.1">
  <defs
     id="defs3357" />
  <metadata
     id="metadata3360">
    <rdf:RDF>
      <cc:Work
         rdf:about="">
        <dc:format>image/svg+xml</dc:format>
        <dc:type
           rdf:resource="http://purl.org/dc/dcmitype/StillImage" />
        <dc:title></dc:title>
      </cc:Work>
    </rdf:RDF>
  </metadata>
  <path
     id="path3157-2-7-7-2-8-2-3-1-1-8-0"
     style="display:inline;fill:#000000;fill-opacity:1;stroke:none"
     d="M 492,512 C 217.99622,512 48,660.99831 48,902 c 0,233.9982 153.00482,378 400,378 h 214 v 99 c 0,316.002 109.99804,421 289,421 42.9974,0 73,-16 73,-16 v -149 h -73 c -74.0032,0 -119,-63.9985 -119,-256 V 768 C 832,576.00305 768.00209,512 576,512 Z m 0,157 h 84 c 52.99928,0 86,37.99997 86,99 v 355 H 448 C 306.00178,1123 218,1039.0009 218,902 218,758.00185 323.00411,669 492,669 Z" />
</svg>
