<?xml version="1.0" encoding="UTF-8" standalone="no"?>
<!-- Created with Inkscape (http://www.inkscape.org/) -->

<svg
   xmlns:dc="http://purl.org/dc/elements/1.1/"
   xmlns:cc="http://creativecommons.org/ns#"
   xmlns:rdf="http://www.w3.org/1999/02/22-rdf-syntax-ns#"
   xmlns:svg="http://www.w3.org/2000/svg"
   xmlns="http://www.w3.org/2000/svg"
   version="1.1"
   width="1024"
   height="2048"
   id="svg3355">
  <defs
     id="defs3357" />
  <metadata
     id="metadata3360">
    <rdf:RDF>
      <cc:Work
         rdf:about="">
        <dc:format>image/svg+xml</dc:format>
        <dc:type
           rdf:resource="http://purl.org/dc/dcmitype/StillImage" />
        <dc:title></dc:title>
      </cc:Work>
    </rdf:RDF>
  </metadata>
  <path
     d="m 128,256 0,512 -128,0 0,157 128,0 0,611 170.00002,0 0,-611 170.00001,0 c 26.99709,0 44,-1 44,-1 l 263,612 185,0 -275,-640 c 142.9973,-45.03387 227,-145.09387 227,-306 0,-230.0046 -129.9981,-334 -340,-334 z m 170.00002,157 274.00001,0 c 105.001,0 170,43.99854 170,177 0,133.00146 -105.00391,178 -274,178 l -170,0 z"
     id="path3157-2-7-7-2-8-2-3-1-1-3-33-4-3-7-3"
     style="fill:#000000;fill-opacity:1;stroke:none;display:inline" />
</svg>
