<?xml version="1.0" encoding="UTF-8" standalone="no"?>
<!-- Created with Inkscape (http://www.inkscape.org/) -->

<svg
   xmlns:dc="http://purl.org/dc/elements/1.1/"
   xmlns:cc="http://creativecommons.org/ns#"
   xmlns:rdf="http://www.w3.org/1999/02/22-rdf-syntax-ns#"
   xmlns:svg="http://www.w3.org/2000/svg"
   xmlns="http://www.w3.org/2000/svg"
   version="1.1"
   width="1024"
   height="2048"
   id="svg3355">
  <defs
     id="defs3357" />
  <metadata
     id="metadata3360">
    <rdf:RDF>
      <cc:Work
         rdf:about="">
        <dc:format>image/svg+xml</dc:format>
        <dc:type
           rdf:resource="http://purl.org/dc/dcmitype/StillImage" />
        <dc:title></dc:title>
      </cc:Work>
    </rdf:RDF>
  </metadata>
  <g
     transform="translate(0,995.63782)"
     id="layer1-14">
    <path
       d="m 32,256 395,768 0,271 c -26.87991,-9.5856 -55.82823,-15 -86,-15 -141.38431,0 -256,114.6167 -256,256 0,141.3833 114.6179,256 256,256 141.3821,0 256,-114.6156 256,-256 L 597,1024 992,256 801,256 512,836 223,256 32,256 z m 309,1160 c 66.27393,0 120,53.7313 120,120 0,66.2687 -53.73081,120 -120,120 -66.26919,0 -120,-53.7298 -120,-120 0,-66.2702 53.72607,-120 120,-120 z"
       transform="translate(0,-995.63782)"
       id="path3157-2-7-7-2-8-2-3-1-1-3-33-4-3-4-9"
       style="fill:#000000;fill-opacity:1;stroke:none;display:inline" />
  </g>
</svg>
