<?xml version="1.0" encoding="UTF-8" standalone="no"?>
<!-- Created with Inkscape (http://www.inkscape.org/) -->

<svg
   xmlns:dc="http://purl.org/dc/elements/1.1/"
   xmlns:cc="http://creativecommons.org/ns#"
   xmlns:rdf="http://www.w3.org/1999/02/22-rdf-syntax-ns#"
   xmlns:svg="http://www.w3.org/2000/svg"
   xmlns="http://www.w3.org/2000/svg"
   version="1.1"
   width="1024"
   height="2048"
   id="svg3355">
  <defs
     id="defs3357" />
  <metadata
     id="metadata3360">
    <rdf:RDF>
      <cc:Work
         rdf:about="">
        <dc:format>image/svg+xml</dc:format>
        <dc:type
           rdf:resource="http://purl.org/dc/dcmitype/StillImage" />
        <dc:title></dc:title>
      </cc:Work>
    </rdf:RDF>
  </metadata>
  <path
     d="M 640,248 C 273.9974,248 80,496.00316 80,896 c 0,485.9991 186.0018,648 487,648 223.0002,0 361,-66.0041 361,-264 l 0,-99 96,0 0,-157 -96,0 0,-256 -416,0 0,157 246,0 0,99 -246,0 0,157 246,0 0,99 c 0,80.001 -72.9979,107 -191,107 -191.0019,0 -309,-123.0001 -309,-491 0,-299.00215 125.997,-483 382,-483 l 256,0 0,-149 c 0,0 -104.9979,-16 -256,-16 z"
     id="path3157-2-7-7-2-8-2-3-1-8-2-6-4-3-78"
     style="fill:#000000;fill-opacity:1;stroke:none;display:inline" />
</svg>
