<?xml version="1.0" encoding="UTF-8" standalone="no"?>
<!-- Created with Inkscape (http://www.inkscape.org/) -->

<svg
   xmlns:dc="http://purl.org/dc/elements/1.1/"
   xmlns:cc="http://creativecommons.org/ns#"
   xmlns:rdf="http://www.w3.org/1999/02/22-rdf-syntax-ns#"
   xmlns:svg="http://www.w3.org/2000/svg"
   xmlns="http://www.w3.org/2000/svg"
   version="1.1"
   width="1024"
   height="2048"
   id="svg3355">
  <defs
     id="defs3357" />
  <metadata
     id="metadata3360">
    <rdf:RDF>
      <cc:Work
         rdf:about="">
        <dc:format>image/svg+xml</dc:format>
        <dc:type
           rdf:resource="http://purl.org/dc/dcmitype/StillImage" />
        <dc:title></dc:title>
      </cc:Work>
    </rdf:RDF>
  </metadata>
  <path
     d="m 128,512 0,157 214,0 0,355 170,0 c 142.00149,0 230,44.0038 230,177 0,109.9951 -114.99672,178 -300,178 l -186,0 0,149 c 0,0 70.99774,16 186,16 289.99743,0 470,-130.997 470,-343 C 912,949.9954 759.00312,867 512,867 l 0,-198 256,0 0,-157 -256,0 0,-256 -170,0 0,256 z"
     id="path3157-2-7-2-4-0-4-6"
     style="fill:#000000;fill-opacity:1;stroke:none;display:inline" />
</svg>
