<?xml version="1.0" encoding="UTF-8" standalone="no"?>
<!-- Created with Inkscape (http://www.inkscape.org/) -->

<svg
   xmlns:dc="http://purl.org/dc/elements/1.1/"
   xmlns:cc="http://creativecommons.org/ns#"
   xmlns:rdf="http://www.w3.org/1999/02/22-rdf-syntax-ns#"
   xmlns:svg="http://www.w3.org/2000/svg"
   xmlns="http://www.w3.org/2000/svg"
   version="1.1"
   width="1024"
   height="2048"
   id="svg3355">
  <defs
     id="defs3357" />
  <metadata
     id="metadata3360">
    <rdf:RDF>
      <cc:Work
         rdf:about="">
        <dc:format>image/svg+xml</dc:format>
        <dc:type
           rdf:resource="http://purl.org/dc/dcmitype/StillImage" />
        <dc:title></dc:title>
      </cc:Work>
    </rdf:RDF>
  </metadata>
  <path
     d="m 160,256 0,157 267,0 0,1123 c 0,141.3844 114.6179,256 256,256 141.3821,0 256,-114.6167 256,-256 0,-141.3833 -114.61569,-256 -256,-256 -30.17177,0 -59.12009,5.4144 -86,15 l 0,-1039 -437,0 z m 523,1160 c 66.27393,0 120,53.7298 120,120 0,66.2702 -53.73081,120 -120,120 -66.26919,0 -120,-53.7312 -120,-120 0,-66.2687 53.72607,-120 120,-120 z"
     id="path3157-89"
     style="fill:#000000;fill-opacity:1;stroke:none;display:inline" />
</svg>
