<?xml version="1.0" encoding="UTF-8" standalone="no"?>
<!-- Created with Inkscape (http://www.inkscape.org/) -->

<svg
   xmlns:dc="http://purl.org/dc/elements/1.1/"
   xmlns:cc="http://creativecommons.org/ns#"
   xmlns:rdf="http://www.w3.org/1999/02/22-rdf-syntax-ns#"
   xmlns:svg="http://www.w3.org/2000/svg"
   xmlns="http://www.w3.org/2000/svg"
   version="1.1"
   width="1024"
   height="2048"
   id="svg3355">
  <defs
     id="defs3357" />
  <metadata
     id="metadata3360">
    <rdf:RDF>
      <cc:Work
         rdf:about="">
        <dc:format>image/svg+xml</dc:format>
        <dc:type
           rdf:resource="http://purl.org/dc/dcmitype/StillImage" />
        <dc:title></dc:title>
      </cc:Work>
    </rdf:RDF>
  </metadata>
  <path
     d="m 408,240.00003 c -242.0024,0 -392,163.9958 -392,656 C 16,1388.0042 166.0013,1552 408,1552 c 103.99669,0 139,-88 139,-88 l 29,72 416,0 0,-157 -310,0 0,-453.99997 278,0 0,-157 -278,0 0,-355 310,0 0,-157 -416,0 -29,72 c 0,0 -35.00032,-88 -139,-88 z m 104,157 L 512,1395 c -200.99662,0 -326,-124.9997 -326,-498.99997 0,-374.00027 125.00048,-499 326,-499 z"
     id="path3157-2-7-3-7"
     style="fill:#000000;fill-opacity:1;stroke:none;display:inline" />
</svg>
