<?xml version="1.0" encoding="UTF-8" standalone="no"?>
<!-- Created with Inkscape (http://www.inkscape.org/) -->

<svg
   xmlns:dc="http://purl.org/dc/elements/1.1/"
   xmlns:cc="http://creativecommons.org/ns#"
   xmlns:rdf="http://www.w3.org/1999/02/22-rdf-syntax-ns#"
   xmlns:svg="http://www.w3.org/2000/svg"
   xmlns="http://www.w3.org/2000/svg"
   version="1.1"
   width="1024"
   height="2048"
   id="svg3355">
  <defs
     id="defs3357" />
  <metadata
     id="metadata3360">
    <rdf:RDF>
      <cc:Work
         rdf:about="">
        <dc:format>image/svg+xml</dc:format>
        <dc:type
           rdf:resource="http://purl.org/dc/dcmitype/StillImage" />
        <dc:title></dc:title>
      </cc:Work>
    </rdf:RDF>
  </metadata>
  <g
     transform="translate(0,995.63782)"
     id="layer1" />
  <path
     d="m 406,248.00002 c -137.0039,0 -222,16 -222,16 l 0,149 222,0 c 352.0032,0 351.9999,355 351.9999,355 l -662,0 C 95.9999,768.00002 80,897.0047 80,1105 c 0,276.0028 157.0039,447 424,447 266.996,0 432,-240.0018 432,-686.99998 0,-400.00076 -201.9978,-617 -530,-617 z M 249.9999,925 758,925 c 0,0 0,470 -254,470 -157.0011,0 -254,-110.9952 -254,-290 z"
     id="path3157-2-7-7-2-8-2-3-1-1-3-3-6-9"
     style="fill:#000000;fill-opacity:1;stroke:none;display:inline" />
</svg>
