<?xml version="1.0" encoding="UTF-8" standalone="no"?>
<!-- Created with Inkscape (http://www.inkscape.org/) -->

<svg
   xmlns:dc="http://purl.org/dc/elements/1.1/"
   xmlns:cc="http://creativecommons.org/ns#"
   xmlns:rdf="http://www.w3.org/1999/02/22-rdf-syntax-ns#"
   xmlns:svg="http://www.w3.org/2000/svg"
   xmlns="http://www.w3.org/2000/svg"
   version="1.1"
   width="1024"
   height="2048"
   id="svg3355">
  <defs
     id="defs3357" />
  <metadata
     id="metadata3360">
    <rdf:RDF>
      <cc:Work
         rdf:about="">
        <dc:format>image/svg+xml</dc:format>
        <dc:type
           rdf:resource="http://purl.org/dc/dcmitype/StillImage" />
        <dc:title></dc:title>
      </cc:Work>
    </rdf:RDF>
  </metadata>
  <path
     d="m 606,248 c -58.00061,0 -94,16 -94,16 l 0,149 94,0 c 94.0025,0 152,63.9963 152,256 l 0,291 c 0,325.998 -61.00298,435 -246,435 -184.99702,0 -246,-109.0027 -246,-435 l 0,-704 -170,0 0,704 c 0,443.9968 104.00247,592 416,592 311.99753,0 416,-147.9995 416,-592 l 0,-291 C 928,353.0046 804.99932,248 606,248 z"
     id="path3157-2-7-7-2-3-1"
     style="fill:#000000;fill-opacity:1;stroke:none;display:inline" />
</svg>
