<?xml version="1.0" encoding="UTF-8" standalone="no"?>
<!-- Created with Inkscape (http://www.inkscape.org/) -->

<svg
   xmlns:dc="http://purl.org/dc/elements/1.1/"
   xmlns:cc="http://creativecommons.org/ns#"
   xmlns:rdf="http://www.w3.org/1999/02/22-rdf-syntax-ns#"
   xmlns:svg="http://www.w3.org/2000/svg"
   xmlns="http://www.w3.org/2000/svg"
   version="1.1"
   width="1024"
   height="2048"
   id="svg3355">
  <defs
     id="defs3357" />
  <metadata
     id="metadata3360">
    <rdf:RDF>
      <cc:Work
         rdf:about="">
        <dc:format>image/svg+xml</dc:format>
        <dc:type
           rdf:resource="http://purl.org/dc/dcmitype/StillImage" />
        <dc:title></dc:title>
      </cc:Work>
    </rdf:RDF>
  </metadata>
  <path
     d="M 1015,252 C 835.99804,252 726,353.0046 726,669 l 0,454 -214,0 c -131.99707,0 -214,-58.0029 -214,-153 l 0,-458 -170,0 0,458 c 0,197.0019 147.00208,318 384,318 131.99735,0 214,-16 214,-16 l 0,144 c 0,164.0029 -117.99621,219 -310,219 l -192,0 0,149 c 0,0 73.00044,16 192,16 296.99503,0 480,-95.9961 480,-384 l 0,-747 c 0,-192.0037 44.9968,-256 119,-256 l 73,0 0,-153 c 0,0 -30.0026,-8 -73,-8 z"
     id="path3157-2-7-7-2-8-2-3-1-9"
     style="fill:#000000;fill-opacity:1;stroke:none;display:inline" />
</svg>
