<?xml version="1.0" encoding="UTF-8" standalone="no"?>
<svg
   xmlns:dc="http://purl.org/dc/elements/1.1/"
   xmlns:cc="http://creativecommons.org/ns#"
   xmlns:rdf="http://www.w3.org/1999/02/22-rdf-syntax-ns#"
   xmlns:svg="http://www.w3.org/2000/svg"
   xmlns="http://www.w3.org/2000/svg"
   version="1.1"
   width="1024"
   height="2048"
   id="svg3355">
  <defs
     id="defs3357" />
  <metadata
     id="metadata3360">
    <rdf:RDF>
      <cc:Work
         rdf:about="">
        <dc:format>image/svg+xml</dc:format>
        <dc:type
           rdf:resource="http://purl.org/dc/dcmitype/StillImage" />
        <dc:title></dc:title>
      </cc:Work>
    </rdf:RDF>
  </metadata>
  <path
     d="m 489.00004,0 110,224 v 32 h -128 l -128,-224 V 0 Z M 912,144 c 61.86186,0 112,50.1419 112,112 0,61.8581 -50.13673,112 -112,112 -61.86327,0 -112,-50.1353 -112,-112 0,-61.8647 50.13814,-112 112,-112 z m -800,0 c 61.8619,0 112,50.1419 112,112 0,61.8581 -50.1367,112 -112,112 C 50.1368,368 0,317.8647 0,256 0,194.1353 50.1382,144 112,144 Z"
     id="path5023"
     style="display:inline;fill:#000000;fill-opacity:1;stroke:none" />
</svg>
