<?xml version="1.0" encoding="UTF-8" standalone="no"?>
<!-- Created with Inkscape (http://www.inkscape.org/) -->

<svg
   xmlns:dc="http://purl.org/dc/elements/1.1/"
   xmlns:cc="http://creativecommons.org/ns#"
   xmlns:rdf="http://www.w3.org/1999/02/22-rdf-syntax-ns#"
   xmlns:svg="http://www.w3.org/2000/svg"
   xmlns="http://www.w3.org/2000/svg"
   version="1.1"
   width="1024"
   height="2048"
   id="svg3355">
  <defs
     id="defs3357" />
  <metadata
     id="metadata3360">
    <rdf:RDF>
      <cc:Work
         rdf:about="">
        <dc:format>image/svg+xml</dc:format>
        <dc:type
           rdf:resource="http://purl.org/dc/dcmitype/StillImage" />
        <dc:title></dc:title>
      </cc:Work>
    </rdf:RDF>
  </metadata>
  <g
     transform="translate(0,995.63782)"
     id="layer1" />
  <path
     d="m 583,512 c -311.00431,0 -503,232.00163 -503,606 0,268.0002 149.99778,434 392,434 151.99867,0 246,-157 246,-157 0,0 34.00098,149 169,149 59.00258,0 105,-8 105,-8 l 0,-141 c -85.99827,0 -128,0.2741 -128,-229 l 0,-654 z m 111,157 0,497 c 0,0 -85.00241,229 -222,229 -136.99759,0 -222,-106.0013 -222,-277 0,-276.9959 127.0027,-449 333,-449 z"
     id="path3157-2-7-7-2-8-2-40-6-7"
     style="fill:#000000;fill-opacity:1;stroke:none;display:inline" />
</svg>
