<?xml version="1.0" encoding="UTF-8" standalone="no"?>
<!-- Created with Inkscape (http://www.inkscape.org/) -->

<svg
   xmlns:dc="http://purl.org/dc/elements/1.1/"
   xmlns:cc="http://creativecommons.org/ns#"
   xmlns:rdf="http://www.w3.org/1999/02/22-rdf-syntax-ns#"
   xmlns:svg="http://www.w3.org/2000/svg"
   xmlns="http://www.w3.org/2000/svg"
   version="1.1"
   width="1024"
   height="2048"
   id="svg3355">
  <defs
     id="defs3357" />
  <metadata
     id="metadata3360">
    <rdf:RDF>
      <cc:Work
         rdf:about="">
        <dc:format>image/svg+xml</dc:format>
        <dc:type
           rdf:resource="http://purl.org/dc/dcmitype/StillImage" />
        <dc:title></dc:title>
      </cc:Work>
    </rdf:RDF>
  </metadata>
  <g
     transform="translate(0,995.63782)"
     id="layer1" />
  <path
     d="m 520,495.99997 c -241.99947,0 -392,152.99758 -392,400 L 128,1457 l -128,0 0,158 128,0 0,177 170,0 0,-177 278,0 0,-158 -278,0 0,-177 222,0 c 233.9984,0 392.00004,-96.0047 392.00004,-384.00003 0,-287.99534 -150.00044,-400 -392.00004,-400 z m 0,157 c 137.0035,0 222,72.99863 222,243 C 742,1066.0014 656.9985,1123 520,1123 l -222,0 0,-227.00003 c 0,-149.99765 84.99655,-243 222,-243 z"
     id="path3157-2-7-7-2-8-2-3-1-1-3-33-4-2-0"
     style="fill:#000000;fill-opacity:1;stroke:none;display:inline" />
</svg>
