<?xml version="1.0" encoding="UTF-8" standalone="no"?>
<!-- Created with Inkscape (http://www.inkscape.org/) -->

<svg
   xmlns:dc="http://purl.org/dc/elements/1.1/"
   xmlns:cc="http://creativecommons.org/ns#"
   xmlns:rdf="http://www.w3.org/1999/02/22-rdf-syntax-ns#"
   xmlns:svg="http://www.w3.org/2000/svg"
   xmlns="http://www.w3.org/2000/svg"
   version="1.1"
   width="1024"
   height="2048"
   id="svg3355">
  <defs
     id="defs3357" />
  <metadata
     id="metadata3360">
    <rdf:RDF>
      <cc:Work
         rdf:about="">
        <dc:format>image/svg+xml</dc:format>
        <dc:type
           rdf:resource="http://purl.org/dc/dcmitype/StillImage" />
        <dc:title></dc:title>
      </cc:Work>
    </rdf:RDF>
  </metadata>
  <path
     d="M 512,240 C 244.99849,240 80,404.00171 80,896 c 0,491.9983 164.99607,656 432,656 267.00393,0 432,-164.0019 432,-656 C 944,404.00191 779.00151,240 512,240 z m 0,157 c 162.00359,0 262,125.00169 262,499 0,373.9983 -100.00184,499 -262,499 -161.99816,0 -262,-125.0028 -262,-499 0,-373.99715 99.99641,-499 262,-499 z m -192,420 0,158 384,0 0,-158 z"
     id="path3127-7-5"
     style="fill:#000000;fill-opacity:1;stroke:none;display:inline" />
</svg>
