<?xml version="1.0" encoding="UTF-8" standalone="no"?>
<svg
   xmlns:dc="http://purl.org/dc/elements/1.1/"
   xmlns:cc="http://creativecommons.org/ns#"
   xmlns:rdf="http://www.w3.org/1999/02/22-rdf-syntax-ns#"
   xmlns:svg="http://www.w3.org/2000/svg"
   xmlns="http://www.w3.org/2000/svg"
   id="svg3355"
   height="2048"
   width="1024"
   version="1.1">
  <defs
     id="defs3357" />
  <metadata
     id="metadata3360">
    <rdf:RDF>
      <cc:Work
         rdf:about="">
        <dc:format>image/svg+xml</dc:format>
        <dc:type
           rdf:resource="http://purl.org/dc/dcmitype/StillImage" />
        <dc:title></dc:title>
      </cc:Work>
    </rdf:RDF>
  </metadata>
  <path
     d="M 128,-112 V 32 h 128 v -144 z m 256,0 V 32 h 128 v -144 z m 256,0 V 32 h 128 v -144 z m 256,0 V 32 h 128 V -112 Z M 0,176 V 320 H 128 V 176 Z m 256,0 V 320 H 384 V 176 Z m 256,0 V 320 H 640 V 176 Z m 256,0 V 320 H 896 V 176 Z M 128,464 V 608 H 256 V 464 Z m 256,0 V 608 H 512 V 464 Z m 256,0 V 608 H 768 V 464 Z m 256,0 v 144 h 128 V 464 Z M 0,752 V 896 H 128 V 752 Z m 256,0 V 896 H 384 V 752 Z m 256,0 V 896 H 640 V 752 Z m 256,0 V 896 H 896 V 752 Z m -640,288 v 144 h 128 v -144 z m 256,0 v 144 h 128 v -144 z m 256,0 v 144 h 128 v -144 z m 256,0 v 144 h 128 V 1040 Z M 0,1328 v 144 h 128 v -144 z m 256,0 v 144 h 128 v -144 z m 256,0 v 144 h 128 v -144 z m 256,0 v 144 h 128 v -144 z m -640,288 v 144 h 128 v -144 z m 256,0 v 144 h 128 v -144 z m 256,0 v 144 h 128 v -144 z m 256,0 v 144 h 128 V 1616 Z M 0,1904 v 144 h 128 v -144 z m 256,0 v 144 h 128 v -144 z m 256,0 v 144 h 128 v -144 z m 256,0 v 144 h 128 v -144 z"
     style="display:inline;fill:#000000;fill-opacity:1;stroke:none;stroke-width:0.973724"
     id="path4094" />
</svg>
