<?xml version="1.0" encoding="UTF-8" standalone="no"?>
<svg
   xmlns:dc="http://purl.org/dc/elements/1.1/"
   xmlns:cc="http://creativecommons.org/ns#"
   xmlns:rdf="http://www.w3.org/1999/02/22-rdf-syntax-ns#"
   xmlns:svg="http://www.w3.org/2000/svg"
   xmlns="http://www.w3.org/2000/svg"
   version="1.1"
   width="1024"
   height="2048"
   id="svg3355">
  <defs
     id="defs3357" />
  <metadata
     id="metadata3360">
    <rdf:RDF>
      <cc:Work
         rdf:about="">
        <dc:format>image/svg+xml</dc:format>
        <dc:type
           rdf:resource="http://purl.org/dc/dcmitype/StillImage" />
        <dc:title></dc:title>
      </cc:Work>
    </rdf:RDF>
  </metadata>
  <path
     id="path4759"
     style="display:inline;fill:#000000;fill-opacity:1;stroke:none;stroke-width:0.942809"
     d="M 0,0 V 384 H 128 V 512 H 0 v 384 h 128 v 128 H 0 v 384 h 128 v 128 H 0 v 384 h 128 v 128 h 128 v -128 h 128 v 128 h 128 v -128 h 128 v 128 h 128 v -128 h 128 v 128 h 128 V 1792 H 896 v -128 h 128 V 1280 H 896 v -128 h 128 V 768 H 896 V 640 h 128 V 256 H 896 V 128 h 128 V 0 Z M 128,128 H 256 V 256 H 128 Z m 256,0 H 512 V 256 H 384 Z m 256,0 H 768 V 256 H 640 Z M 256,384 H 384 V 512 H 256 Z m 256,0 H 640 V 512 H 512 Z m 256,0 H 896 V 512 H 768 Z M 128,640 H 256 V 768 H 128 Z m 256,0 H 512 V 768 H 384 Z m 256,0 H 768 V 768 H 640 Z M 256,896 h 128 v 128 H 256 Z m 256,0 h 128 v 128 H 512 Z m 256,0 h 128 v 128 H 768 Z m -640,256 h 128 v 128 H 128 Z m 256,0 h 128 v 128 H 384 Z m 256,0 h 128 v 128 H 640 Z m -384,256 h 128 v 128 H 256 Z m 256,0 h 128 v 128 H 512 Z m 256,0 h 128 v 128 H 768 Z m -640,256 h 128 v 128 H 128 Z m 256,0 h 128 v 128 H 384 Z m 256,0 h 128 v 128 H 640 Z" />
</svg>
