<?xml version="1.0" encoding="UTF-8" standalone="no"?>
<!-- Created with Inkscape (http://www.inkscape.org/) -->

<svg
   xmlns:dc="http://purl.org/dc/elements/1.1/"
   xmlns:cc="http://creativecommons.org/ns#"
   xmlns:rdf="http://www.w3.org/1999/02/22-rdf-syntax-ns#"
   xmlns:svg="http://www.w3.org/2000/svg"
   xmlns="http://www.w3.org/2000/svg"
   version="1.1"
   width="1024"
   height="2048"
   id="svg3355">
  <defs
     id="defs3357" />
  <metadata
     id="metadata3360">
    <rdf:RDF>
      <cc:Work
         rdf:about="">
        <dc:format>image/svg+xml</dc:format>
        <dc:type
           rdf:resource="http://purl.org/dc/dcmitype/StillImage" />
        <dc:title></dc:title>
      </cc:Work>
    </rdf:RDF>
  </metadata>
  <path
     d="m 430,248 c -187.0031,0 -302,90.99607 -302,363 l 0,925 340,0 c 274.00229,0 444,-203.9974 444,-535 C 912,759.99657 782.00159,611 572,611 l -274,0 c 0,-149.00324 49.9994,-198 132,-198 l 82,0 0,-149 c 0,0 -31.0038,-16 -82,-16 z m -132,520 274,0 c 105.00301,0 170,89.00054 170,233 0,233.9984 -105.00132,378 -274,378 l -170,0 z"
     id="path3157-2-7-7-2-8-2-3-1-1-3-33-62"
     style="fill:#000000;fill-opacity:1;stroke:none;display:inline" />
</svg>
