<?xml version="1.0" encoding="UTF-8" standalone="no"?>
<!-- Created with Inkscape (http://www.inkscape.org/) -->

<svg
   xmlns:dc="http://purl.org/dc/elements/1.1/"
   xmlns:cc="http://creativecommons.org/ns#"
   xmlns:rdf="http://www.w3.org/1999/02/22-rdf-syntax-ns#"
   xmlns:svg="http://www.w3.org/2000/svg"
   xmlns="http://www.w3.org/2000/svg"
   version="1.1"
   width="1024"
   height="2048"
   id="svg3355">
  <defs
     id="defs3357" />
  <metadata
     id="metadata3360">
    <rdf:RDF>
      <cc:Work
         rdf:about="">
        <dc:format>image/svg+xml</dc:format>
        <dc:type
           rdf:resource="http://purl.org/dc/dcmitype/StillImage" />
        <dc:title></dc:title>
      </cc:Work>
    </rdf:RDF>
  </metadata>
  <g
     transform="matrix(-1,0,0,-1,1331.8693,1052.3622)"
     id="layer1-6" />
  <g
     transform="translate(307.86928,995.63782)"
     id="layer1-1" />
  <g
     transform="matrix(-1,0,0,1,2331.8693,995.63782)"
     id="layer1-5-2" />
  <g
     transform="translate(2025.2026,995.63782)"
     id="layer1-7" />
  <g
     transform="translate(130.35294,995.63782)"
     id="layer1-3" />
  <path
     d="m 554,504 c -260.99965,0 -474,199.00067 -474,520 0,320.9993 189.00173,520 494,520 228.99799,0 370,-75.9955 370,-303 0,-173.9982 -186,-217 -186,-217 0,0 154,-42.99543 154,-217 C 912,579.9965 774.99763,504 554,504 z m 0,165 c 115.99733,0 188,34.0002 188,138 0,103.99981 -76.0024,138 -198,138 l -32,0 0,158 32,0 c 142.00001,0 230,34.001 230,138 0,103.999 -76.00356,138 -200,138 -219.99691,0 -324,-136.0015 -324,-355 0,-218.99854 115.99987,-355 304,-355 z"
     id="path3157-2-7-7-2-8-2-6-1-8-0"
     style="fill:#000000;fill-opacity:1;stroke:none;display:inline" />
</svg>
