<?xml version="1.0" encoding="UTF-8" standalone="no"?>
<!-- Created with Inkscape (http://www.inkscape.org/) -->

<svg
   xmlns:dc="http://purl.org/dc/elements/1.1/"
   xmlns:cc="http://creativecommons.org/ns#"
   xmlns:rdf="http://www.w3.org/1999/02/22-rdf-syntax-ns#"
   xmlns:svg="http://www.w3.org/2000/svg"
   xmlns="http://www.w3.org/2000/svg"
   version="1.1"
   width="1024"
   height="2048"
   id="svg3355">
  <defs
     id="defs3357" />
  <metadata
     id="metadata3360">
    <rdf:RDF>
      <cc:Work
         rdf:about="">
        <dc:format>image/svg+xml</dc:format>
        <dc:type
           rdf:resource="http://purl.org/dc/dcmitype/StillImage" />
        <dc:title></dc:title>
      </cc:Work>
    </rdf:RDF>
  </metadata>
  <path
     d="M 782,248 C 562.99778,248 427,353.00378 427,669 l 0,454 -235,0 0,157 235,0 0,99 c 0,192.005 -70.99509,256 -185,256 l -114,0 0,149 c 0,0 43.99669,16 114,16 219.00222,0 355,-105.0038 355,-421 l 0,-99 235,0 0,-157 -235,0 0,-454 c 0,-192.00497 70.99509,-256 185,-256 l 114,0 0,-149 c 0,0 -43.99669,-16 -114,-16 z"
     id="path3127-7-9-5"
     style="fill:#000000;fill-opacity:1;stroke:none;display:inline" />
</svg>
