<?xml version="1.0" encoding="UTF-8" standalone="no"?>
<!-- Created with Inkscape (http://www.inkscape.org/) -->

<svg
   xmlns:dc="http://purl.org/dc/elements/1.1/"
   xmlns:cc="http://creativecommons.org/ns#"
   xmlns:rdf="http://www.w3.org/1999/02/22-rdf-syntax-ns#"
   xmlns:svg="http://www.w3.org/2000/svg"
   xmlns="http://www.w3.org/2000/svg"
   version="1.1"
   width="1024"
   height="2048"
   id="svg3355">
  <defs
     id="defs3357" />
  <metadata
     id="metadata3360">
    <rdf:RDF>
      <cc:Work
         rdf:about="">
        <dc:format>image/svg+xml</dc:format>
        <dc:type
           rdf:resource="http://purl.org/dc/dcmitype/StillImage" />
        <dc:title></dc:title>
      </cc:Work>
    </rdf:RDF>
  </metadata>
  <path
     d="m 1015,252 c -149.05312,0 -249.30625,64.12083 -279,270 0,0 -69.0002,-18 -180,-18 -274.00377,0 -444,176.99736 -444,451 0,200.9956 130.00154,325 340,325 l 274,0 0,136 c 0,163.996 -118.00481,219 -310,219 l -192,0 0,149 c 0,0 72.99541,16 192,16 296.99649,0 480,-101.9967 480,-384 l 0,-747 c 0,-192.0037 44.9968,-256 119,-256 l 73,0 0,-153 c 0,0 -30.0026,-8 -73,-8 z m -459,417 170,0 0,454 -274,0 C 347.00206,1123 282,1058.9974 282,955 282,777.99714 387.00412,669 556,669 z"
     id="path3157-2-7-7-2-8-2-3-1-9-7"
     style="fill:#000000;fill-opacity:1;stroke:none;display:inline" />
</svg>
