<?xml version="1.0" encoding="UTF-8" standalone="no"?>
<!-- Created with Inkscape (http://www.inkscape.org/) -->

<svg
   xmlns:dc="http://purl.org/dc/elements/1.1/"
   xmlns:cc="http://creativecommons.org/ns#"
   xmlns:rdf="http://www.w3.org/1999/02/22-rdf-syntax-ns#"
   xmlns:svg="http://www.w3.org/2000/svg"
   xmlns="http://www.w3.org/2000/svg"
   version="1.1"
   width="1024"
   height="2048"
   id="svg3355">
  <defs
     id="defs3357" />
  <metadata
     id="metadata3360">
    <rdf:RDF>
      <cc:Work
         rdf:about="">
        <dc:format>image/svg+xml</dc:format>
        <dc:type
           rdf:resource="http://purl.org/dc/dcmitype/StillImage" />
        <dc:title></dc:title>
      </cc:Work>
    </rdf:RDF>
  </metadata>
  <g
     transform="matrix(-1,0,0,-1,1331.8693,1052.3622)"
     id="layer1-6" />
  <g
     transform="translate(307.86928,995.63782)"
     id="layer1-1" />
  <g
     transform="matrix(-1,0,0,1,2331.8693,995.63782)"
     id="layer1-5-2" />
  <g
     transform="translate(2025.2026,995.63782)"
     id="layer1-7" />
  <g
     transform="translate(130.35294,995.63782)"
     id="layer1-3" />
  <path
     d="M 402,680.375 C 336.73493,571.42683 296.34338,504 193,504 112.99867,504 64,520 64,520 l 0,149 c 132.44663,0 132.44629,0.002 192,99 l 154,256 c 0,0 -154,209.4794 -154,310 0,135.0026 98.00382,218 256,218 157.99618,0 256,-82.9996 256,-218 0,-100.5215 -154,-310 -154,-310 L 768,768 c 59.55552,-99.00139 59.55319,-99 192,-99 l 0,-149 c 0,0 -48.99659,-16 -129,-16 -102.6672,0 -143.24026,67.51509 -208.65625,176.375 L 512,864 z M 512,1152 c 0,0 85,81.4833 85,182 0,38.0048 -32.00093,61 -85,61 -52.99907,0 -85,-22.9974 -85,-61 0,-100.5233 85,-182 85,-182 z"
     id="path3157-2-7-7-21-4-8-3-1-2-7-2"
     style="fill:#000000;fill-opacity:1;stroke:none;display:inline" />
</svg>
