<?xml version="1.0" encoding="UTF-8" standalone="no"?>
<!-- Created with Inkscape (http://www.inkscape.org/) -->

<svg
   xmlns:dc="http://purl.org/dc/elements/1.1/"
   xmlns:cc="http://creativecommons.org/ns#"
   xmlns:rdf="http://www.w3.org/1999/02/22-rdf-syntax-ns#"
   xmlns:svg="http://www.w3.org/2000/svg"
   xmlns="http://www.w3.org/2000/svg"
   version="1.1"
   width="1024"
   height="2048"
   id="svg3355">
  <defs
     id="defs3357" />
  <metadata
     id="metadata3360">
    <rdf:RDF>
      <cc:Work
         rdf:about="">
        <dc:format>image/svg+xml</dc:format>
        <dc:type
           rdf:resource="http://purl.org/dc/dcmitype/StillImage" />
        <dc:title></dc:title>
      </cc:Work>
    </rdf:RDF>
  </metadata>
  <g
     transform="matrix(-1,0,0,-1,1024,1052.3622)"
     id="layer1-6">
    <path
       d="m 9,248 c -44.997163,0 -73,16 -73,16 l 0,149 73,0 c 73.996125,0 119,63.9963 119,256 l 0,419 c 0,267.995 146.99899,357 384,357 132.00191,0 214,-16 214,-16 l 0,363 170,0 0,-1280 -170,0 0,768 -214,0 c -131.99868,0 -214,-48.0015 -214,-192 l 0,-419 C 298,353.0046 187.99677,248 9,248 z"
       transform="matrix(-1,0,0,-1,1024,1052.3622)"
       id="path3157-2-7-7-2-8-2-3-1-80"
       style="fill:#000000;fill-opacity:1;stroke:none;display:inline" />
  </g>
</svg>
