<?xml version="1.0" encoding="UTF-8" standalone="no"?>
<!-- Created with Inkscape (http://www.inkscape.org/) -->

<svg
   xmlns:dc="http://purl.org/dc/elements/1.1/"
   xmlns:cc="http://creativecommons.org/ns#"
   xmlns:rdf="http://www.w3.org/1999/02/22-rdf-syntax-ns#"
   xmlns:svg="http://www.w3.org/2000/svg"
   xmlns="http://www.w3.org/2000/svg"
   version="1.1"
   width="1024"
   height="2048"
   id="svg3355">
  <defs
     id="defs3357" />
  <metadata
     id="metadata3360">
    <rdf:RDF>
      <cc:Work
         rdf:about="">
        <dc:format>image/svg+xml</dc:format>
        <dc:type
           rdf:resource="http://purl.org/dc/dcmitype/StillImage" />
        <dc:title></dc:title>
      </cc:Work>
    </rdf:RDF>
  </metadata>
  <path
     d="m 9,248 c -44.997163,0 -73,16 -73,16 l 0,149 73,0 c 73.99612,0 119,63.9963 119,256 l 0,419 c 0,267.995 146.99899,357 384,357 133.00083,0 215,-16 215,-16 11.20957,277.3744 118.74275,371 288,371 42.9974,0 73,-16 73,-16 l 0,-149 -73,0 c -74.0032,0 -119,-64.0032 -119,-256 l 0,-867 -170,0 0,768 -214,0 c -131.99868,0 -214,-48.0015 -214,-192 l 0,-419 C 298,353.0046 187.99677,248 9,248 z"
     id="path3157-2-7-7-2-8-2-3-1-80"
     style="fill:#000000;fill-opacity:1;stroke:none;display:inline" />
</svg>
