<?xml version="1.0" encoding="UTF-8" standalone="no"?>
<!-- Created with Inkscape (http://www.inkscape.org/) -->

<svg
   xmlns:dc="http://purl.org/dc/elements/1.1/"
   xmlns:cc="http://creativecommons.org/ns#"
   xmlns:rdf="http://www.w3.org/1999/02/22-rdf-syntax-ns#"
   xmlns:svg="http://www.w3.org/2000/svg"
   xmlns="http://www.w3.org/2000/svg"
   version="1.1"
   width="1024"
   height="2048"
   id="svg3355">
  <defs
     id="defs3357" />
  <metadata
     id="metadata3360">
    <rdf:RDF>
      <cc:Work
         rdf:about="">
        <dc:format>image/svg+xml</dc:format>
        <dc:type
           rdf:resource="http://purl.org/dc/dcmitype/StillImage" />
        <dc:title></dc:title>
      </cc:Work>
    </rdf:RDF>
  </metadata>
  <path
     d="M 512,496 C 275.00098,496 128,600 128,600 l 0,936 170,0 0,-839 c 0,0 82.00268,-44 214,-44 131.9973,0 214,55.99836 214,225 l 0,501 c 0,316.004 109.998,421 289,421 42.9974,0 73,-16 73,-16 l 0,-149 -73,0 c -74.0032,0 -119,-64.0032 -119,-256 l 0,-501 C 896,591.0005 748.999,496 512,496 z"
     id="path3157-2-7-3-9-7-4-2"
     style="fill:#000000;fill-opacity:1;stroke:none;display:inline" />
</svg>
