<?xml version="1.0" encoding="UTF-8" standalone="no"?>
<!-- Created with Inkscape (http://www.inkscape.org/) -->

<svg
   xmlns:dc="http://purl.org/dc/elements/1.1/"
   xmlns:cc="http://creativecommons.org/ns#"
   xmlns:rdf="http://www.w3.org/1999/02/22-rdf-syntax-ns#"
   xmlns:svg="http://www.w3.org/2000/svg"
   xmlns="http://www.w3.org/2000/svg"
   version="1.1"
   width="1024"
   height="2048"
   id="svg3355">
  <defs
     id="defs3357" />
  <metadata
     id="metadata3360">
    <rdf:RDF>
      <cc:Work
         rdf:about="">
        <dc:format>image/svg+xml</dc:format>
        <dc:type
           rdf:resource="http://purl.org/dc/dcmitype/StillImage" />
        <dc:title></dc:title>
      </cc:Work>
    </rdf:RDF>
  </metadata>
  <g
     transform="matrix(-1,0,0,-1,1331.8693,1052.3622)"
     id="layer1-6" />
  <g
     transform="translate(307.86928,995.63782)"
     id="layer1-1" />
  <g
     transform="matrix(-1,0,0,1,2331.8693,995.63782)"
     id="layer1-5-2" />
  <g
     transform="translate(2025.2026,995.63782)"
     id="layer1-7" />
  <g
     transform="translate(130.35294,995.63782)"
     id="layer1-3" />
  <path
     d="m 408,504 c -236.99727,0 -384,130.00346 -384,520 0,389.9966 146.99695,520 384,520 104.00148,0 168,-8 168,-8 l 416.00002,0 0,-157 -310.00002,0 0,-276.5 278.00002,0 0,-157 -278.00002,0 0,-276.5 310.00002,0 0,-157 L 576,512 c 0,0 -63.9986,-8 -168,-8 z m 104,157 0,726 c -197.00303,0 -318,-91.0018 -318,-363 0,-271.99818 120.99894,-363 318,-363 z"
     id="path3157-2-7-3-7"
     style="fill:#000000;fill-opacity:1;stroke:none;display:inline" />
</svg>
