<?xml version="1.0" encoding="UTF-8" standalone="no"?>
<!-- Created with Inkscape (http://www.inkscape.org/) -->

<svg
   xmlns:dc="http://purl.org/dc/elements/1.1/"
   xmlns:cc="http://creativecommons.org/ns#"
   xmlns:rdf="http://www.w3.org/1999/02/22-rdf-syntax-ns#"
   xmlns:svg="http://www.w3.org/2000/svg"
   xmlns="http://www.w3.org/2000/svg"
   version="1.1"
   width="1024"
   height="2048"
   id="svg3355">
  <defs
     id="defs3357" />
  <metadata
     id="metadata3360">
    <rdf:RDF>
      <cc:Work
         rdf:about="">
        <dc:format>image/svg+xml</dc:format>
        <dc:type
           rdf:resource="http://purl.org/dc/dcmitype/StillImage" />
        <dc:title></dc:title>
      </cc:Work>
    </rdf:RDF>
  </metadata>
  <g
     transform="matrix(-1,0,0,-1,1331.8693,1052.3622)"
     id="layer1-6" />
  <g
     transform="translate(307.86928,995.63782)"
     id="layer1-1" />
  <g
     transform="matrix(-1,0,0,1,2331.8693,995.63782)"
     id="layer1-5-2" />
  <g
     transform="translate(2025.2026,995.63782)"
     id="layer1-7" />
  <g
     transform="translate(130.35294,995.63782)"
     id="layer1-3" />
  <g
     transform="matrix(0,-1,1,0,995.63782,3337.098)"
     id="layer1-6-3" />
  <g
     transform="matrix(0,1,-1,0,1052.3622,2313.098)"
     id="layer1-1-5" />
  <g
     transform="matrix(0,-1,-1,0,1052.3622,4337.098)"
     id="layer1-5-2-5" />
  <g
     transform="matrix(0,1,-1,0,1052.3622,4030.4313)"
     id="layer1-7-3" />
  <g
     transform="matrix(0,1,-1,0,1052.3622,2135.5817)"
     id="layer1-3-4" />
  <path
     d="m 512,496 c -286.99619,0 -464,154.00268 -464,616 0,272.0047 72.99639,440 293,440 170.99898,0 171,-272 171,-272 0,0 -0.002,272 171,272 220.00247,0 293,-167.9981 293,-440 C 976,649.99726 798.99619,496 512,496 z m 0,157 c 179.99701,0 292,114.99584 292,459 0,175.0019 -45.99797,283 -121,283 -52.99659,0 -86,-127.9995 -86,-334 l 0,-37 -170,0 0,37 c 0,206.0023 -33.00024,334 -86,334 -74.99649,0 -121,-108.0007 -121,-283 0,-343.9968 112.00299,-459 292,-459 z"
     id="path3157-2-7-7-2-8-2-6-1-8"
     style="fill:#000000;fill-opacity:1;stroke:none;display:inline" />
</svg>
