<?xml version="1.0" encoding="UTF-8" standalone="no"?>
<!-- Created with Inkscape (http://www.inkscape.org/) -->

<svg
   xmlns:dc="http://purl.org/dc/elements/1.1/"
   xmlns:cc="http://creativecommons.org/ns#"
   xmlns:rdf="http://www.w3.org/1999/02/22-rdf-syntax-ns#"
   xmlns:svg="http://www.w3.org/2000/svg"
   xmlns="http://www.w3.org/2000/svg"
   version="1.1"
   width="1024"
   height="2048"
   id="svg3355">
  <defs
     id="defs3357" />
  <metadata
     id="metadata3360">
    <rdf:RDF>
      <cc:Work
         rdf:about="">
        <dc:format>image/svg+xml</dc:format>
        <dc:type
           rdf:resource="http://purl.org/dc/dcmitype/StillImage" />
        <dc:title></dc:title>
      </cc:Work>
    </rdf:RDF>
  </metadata>
  <path
     d="m 926,248 c -190.03269,0 -311.22971,92.01927 -326,363 l -259,0 0,-355 -170,0 0,355 -171,0 0,157 171,0 0,454 c 0,236.0016 138.0035,314 362,314 l 44,0 c -25.47438,72.29 -73.05019,99 -137,99 l -98,0 0,149 c 0,0 37.00415,16 98,16 202.99603,0 328,-105.0038 328,-421 l 0,-710 c 0,-192.00497 59.99737,-256 158,-256 l 98,0 0,-149 c 0,0 -37.00415,-16 -98,-16 z m -585,520 257,0 0,611 -65,0 c -119.0013,0 -192,-39.004 -192,-157 z"
     id="path3157-3-3-0"
     style="fill:#000000;fill-opacity:1;stroke:none;display:inline" />
</svg>
