<?xml version="1.0" encoding="UTF-8" standalone="no"?>
<!-- Created with Inkscape (http://www.inkscape.org/) -->

<svg
   xmlns:dc="http://purl.org/dc/elements/1.1/"
   xmlns:cc="http://creativecommons.org/ns#"
   xmlns:rdf="http://www.w3.org/1999/02/22-rdf-syntax-ns#"
   xmlns:svg="http://www.w3.org/2000/svg"
   xmlns="http://www.w3.org/2000/svg"
   version="1.1"
   width="1024"
   height="2048"
   id="svg3355">
  <defs
     id="defs3357" />
  <metadata
     id="metadata3360">
    <rdf:RDF>
      <cc:Work
         rdf:about="">
        <dc:format>image/svg+xml</dc:format>
        <dc:type
           rdf:resource="http://purl.org/dc/dcmitype/StillImage" />
        <dc:title></dc:title>
      </cc:Work>
    </rdf:RDF>
  </metadata>
  <path
     d="m 594,504 c -51.0033,0 -82,16 -82,16 l 0,149 82,0 c 81.99786,0 132,63.9963 132,256 l 0,133 c 0,252.997 -29.00298,337 -214,337 -184.99702,0 -214,-83.9954 -214,-337 l 0,-546 -170,0 0,546 c 0,370.9977 72.00247,494 384,494 311.99753,0 384,-122.9967 384,-494 l 0,-133 C 896,609.0046 780.99676,504 594,504 z"
     id="path3157-2-7-7-2-3-1"
     style="fill:#000000;fill-opacity:1;stroke:none;display:inline" />
</svg>
