<?xml version="1.0" encoding="UTF-8" standalone="no"?>
<svg
   xmlns:dc="http://purl.org/dc/elements/1.1/"
   xmlns:cc="http://creativecommons.org/ns#"
   xmlns:rdf="http://www.w3.org/1999/02/22-rdf-syntax-ns#"
   xmlns:svg="http://www.w3.org/2000/svg"
   xmlns="http://www.w3.org/2000/svg"
   id="svg3355"
   height="2048"
   width="1024"
   version="1.1">
  <defs
     id="defs3357" />
  <metadata
     id="metadata3360">
    <rdf:RDF>
      <cc:Work
         rdf:about="">
        <dc:format>image/svg+xml</dc:format>
        <dc:type
           rdf:resource="http://purl.org/dc/dcmitype/StillImage" />
        <dc:title></dc:title>
      </cc:Work>
    </rdf:RDF>
  </metadata>
  <g
     id="layer1"
     transform="translate(0,995.63782)" />
  <path
     style="display:inline;fill:#000000;fill-opacity:1;stroke:none"
     id="path3157-2-7-7-2-8-2-3-1-1-3-3-6-9"
     d="m 406,376 c -137.0039,0 -222,16 -222,16 v 149 h 222 c 352.0032,0 351.9999,326.00001 351.9999,326.00001 H 266 C 137.99673,867.00001 95.999766,905.99913 95.9999,1024 l 1e-4,88 c 3.09e-4,272.0036 158.99794,440 416,440 262.00476,0 424,-243.0039 424,-587.99999 C 936,619.00394 734.0022,376 406,376 Z M 265.99995,1024 H 758 c 0,0 3.9e-4,371 -246,371 -151.99695,0 -245.99975,-108.0016 -245.99995,-283 z" />
</svg>
