<?xml version="1.0" encoding="UTF-8" standalone="no"?>
<svg
   xmlns:dc="http://purl.org/dc/elements/1.1/"
   xmlns:cc="http://creativecommons.org/ns#"
   xmlns:rdf="http://www.w3.org/1999/02/22-rdf-syntax-ns#"
   xmlns:svg="http://www.w3.org/2000/svg"
   xmlns="http://www.w3.org/2000/svg"
   id="svg3355"
   height="2048"
   width="1024"
   version="1.1">
  <defs
     id="defs3357" />
  <metadata
     id="metadata3360">
    <rdf:RDF>
      <cc:Work
         rdf:about="">
        <dc:format>image/svg+xml</dc:format>
        <dc:type
           rdf:resource="http://purl.org/dc/dcmitype/StillImage" />
        <dc:title></dc:title>
      </cc:Work>
    </rdf:RDF>
  </metadata>
  <g
     id="layer1"
     transform="translate(0,995.63782)" />
  <path
     d="M 512,368 C 205.00095,368 16,515.99831 16,960 c 0,444.0017 189.00229,592 496,592 306.99771,0 496,-148.0023 496,-592 0,-443.99769 -189.00095,-592 -496,-592 z m 0,157 c 180.5227,0 299.58077,87.92088 322,342 H 190 C 212.41967,612.92549 331.47776,525 512,525 Z m -324,499 h 648 c -15.75268,276.4007 -136.78364,371 -324,371 -187.21609,0 -308.24703,-94.604 -324,-371 z"
     style="display:inline;fill:#000000;fill-opacity:1;stroke:none"
     id="path3157-2-7-7-2-8-2-3-1-8-2" />
</svg>
