<?xml version="1.0" encoding="UTF-8" standalone="no"?>
<svg
   xmlns:dc="http://purl.org/dc/elements/1.1/"
   xmlns:cc="http://creativecommons.org/ns#"
   xmlns:rdf="http://www.w3.org/1999/02/22-rdf-syntax-ns#"
   xmlns:svg="http://www.w3.org/2000/svg"
   xmlns="http://www.w3.org/2000/svg"
   id="svg3355"
   height="2048"
   width="1024"
   version="1.1">
  <defs
     id="defs3357" />
  <metadata
     id="metadata3360">
    <rdf:RDF>
      <cc:Work
         rdf:about="">
        <dc:format>image/svg+xml</dc:format>
        <dc:type
           rdf:resource="http://purl.org/dc/dcmitype/StillImage" />
        <dc:title></dc:title>
      </cc:Work>
    </rdf:RDF>
  </metadata>
  <g
     id="layer1"
     transform="translate(0,995.63782)" />
  <path
     style="display:inline;fill:#000000;fill-opacity:1;stroke:none"
     id="path3157-2-7-3-2"
     d="m 128,384 v 1152 h 256 c 345.9985,0 559.99996,-83.9974 559.99996,-335 C 943.99996,981.9959 678,927 678,927 678,927 847.99996,882.00258 847.99996,704 847.99996,463.99611 670.9966,384 384,384 Z m 170,157 h 86 c 182.0009,0 294,62.00052 294,163 0,100.99948 -111.9962,163 -294,163 h -86 z m 0,483 h 86 c 240.9962,0 389.99996,35.0018 389.99996,177 0,141.9982 -149.00196,178 -389.99996,178 h -86 z" />
</svg>
