<?xml version="1.0" encoding="UTF-8" standalone="no"?>
<svg
   xmlns:dc="http://purl.org/dc/elements/1.1/"
   xmlns:cc="http://creativecommons.org/ns#"
   xmlns:rdf="http://www.w3.org/1999/02/22-rdf-syntax-ns#"
   xmlns:svg="http://www.w3.org/2000/svg"
   xmlns="http://www.w3.org/2000/svg"
   id="svg3355"
   height="2048"
   width="1024"
   version="1.1">
  <defs
     id="defs3357" />
  <metadata
     id="metadata3360">
    <rdf:RDF>
      <cc:Work
         rdf:about="">
        <dc:format>image/svg+xml</dc:format>
        <dc:type
           rdf:resource="http://purl.org/dc/dcmitype/StillImage" />
        <dc:title></dc:title>
      </cc:Work>
    </rdf:RDF>
  </metadata>
  <g
     id="layer1"
     transform="translate(0,995.63782)" />
  <g
     transform="translate(0,995.63787)"
     id="layer1-6" />
  <path
     d="M 640,376 C 273.99739,376 80,598.99605 80,960 c 0,438.0038 186.00183,584 487,584 223.00019,0 361,-66.0041 361,-264 l -10e-6,-413 H 512 v 157 h 245.99997 l 3e-5,256 c 10e-6,80.001 -72.99787,107 -191,107 C 375.99814,1387 258,1280.0035 258,960 258,701.00314 383.99702,541 640,541 H 895.99999 V 392 c 0,0 -104.99787,-16 -255.99999,-16 z"
     id="path3157-2-7-7-2-8-2-3-1-8-2-6-4-3"
     style="display:inline;fill:#000000;fill-opacity:1;stroke:none" />
</svg>
