<?xml version="1.0" encoding="UTF-8" standalone="no"?>
<!-- Created with Inkscape (http://www.inkscape.org/) -->

<svg
   xmlns:dc="http://purl.org/dc/elements/1.1/"
   xmlns:cc="http://creativecommons.org/ns#"
   xmlns:rdf="http://www.w3.org/1999/02/22-rdf-syntax-ns#"
   xmlns:svg="http://www.w3.org/2000/svg"
   xmlns="http://www.w3.org/2000/svg"
   version="1.1"
   width="1024"
   height="2048"
   id="svg3355">
  <defs
     id="defs3357" />
  <metadata
     id="metadata3360">
    <rdf:RDF>
      <cc:Work
         rdf:about="">
        <dc:format>image/svg+xml</dc:format>
        <dc:type
           rdf:resource="http://purl.org/dc/dcmitype/StillImage" />
        <dc:title></dc:title>
      </cc:Work>
    </rdf:RDF>
  </metadata>
  <path
     d="M 320,256 C 178.61791,256 64,370.61791 64,512 l 0,256 128,0 0,-256 c 0,-70.68539 57.30861,-128 128,-128 l 113,0 0,-128 z m 271,0 0,128 113,0 c 70.6915,0 128,57.31461 128,128 l 0,256 128,0 0,-256 C 960,370.61791 845.3821,256 704,256 z m -527,768 0,256 c 0,141.3821 114.61791,256 256,256 l 113,0 0,-128 -113,0 c -70.68529,0 -128,-57.3085 -128,-128 l 0,-256 z m 768,0 0,256 c 0,70.6915 -57.3146,128 -128,128 l -113,0 0,128 113,0 c 141.3821,0 256,-114.6179 256,-256 l 0,-256 z"
     id="path3157-22-2-5-5-1"
     style="fill:#000000;fill-opacity:1;stroke:none;display:inline" />
</svg>
