<?xml version="1.0" encoding="UTF-8" standalone="no"?>
<svg
   xmlns:dc="http://purl.org/dc/elements/1.1/"
   xmlns:cc="http://creativecommons.org/ns#"
   xmlns:rdf="http://www.w3.org/1999/02/22-rdf-syntax-ns#"
   xmlns:svg="http://www.w3.org/2000/svg"
   xmlns="http://www.w3.org/2000/svg"
   id="svg3355"
   height="2048"
   width="1024"
   version="1.1">
  <defs
     id="defs3357" />
  <metadata
     id="metadata3360">
    <rdf:RDF>
      <cc:Work
         rdf:about="">
        <dc:format>image/svg+xml</dc:format>
        <dc:type
           rdf:resource="http://purl.org/dc/dcmitype/StillImage" />
        <dc:title></dc:title>
      </cc:Work>
    </rdf:RDF>
  </metadata>
  <g
     id="layer1"
     transform="translate(0,995.63782)" />
  <path
     style="display:inline;fill:#000000;fill-opacity:1;stroke:none"
     id="path3157-2-7-7-2-8-2-3-1-1-3-3-6-9"
     d="m 406,376 c -137.0039,0 -222,16 -222,16 v 149 h 222 c 352.0032,0 351.9999,326.00001 351.9999,326.00001 h -662 C 95.9999,867.00001 80,897.0047 80,1105 c 0,276.0028 157.0039,447 424,447 266.996,0 432,-243.0039 432,-587.99999 C 936,619.00394 734.0022,376 406,376 Z M 249.9999,1024 H 758 c 0,0 0,371 -254,371 -157.0011,0 -254,-110.9952 -254,-290 z" />
</svg>
