<?xml version="1.0" encoding="UTF-8" standalone="no"?>
<svg
   xmlns:dc="http://purl.org/dc/elements/1.1/"
   xmlns:cc="http://creativecommons.org/ns#"
   xmlns:rdf="http://www.w3.org/1999/02/22-rdf-syntax-ns#"
   xmlns:svg="http://www.w3.org/2000/svg"
   xmlns="http://www.w3.org/2000/svg"
   id="svg3355"
   height="2048"
   width="1024"
   version="1.1">
  <defs
     id="defs3357" />
  <metadata
     id="metadata3360">
    <rdf:RDF>
      <cc:Work
         rdf:about="">
        <dc:format>image/svg+xml</dc:format>
        <dc:type
           rdf:resource="http://purl.org/dc/dcmitype/StillImage" />
        <dc:title></dc:title>
      </cc:Work>
    </rdf:RDF>
  </metadata>
  <g
     id="layer1"
     transform="translate(0,995.63782)" />
  <g
     transform="translate(0,995.63787)"
     id="layer1-6" />
  <path
     d="M 682,376 C 309.99525,376 80,598.99605 80,960 c 0,438.0038 176.99664,584 464,584 237.00172,0 384,-66.0041 384,-264 l -10e-6,-435 H 512 v 186 h 159.99999 l 3e-5,249 c 1e-5,57.9792 -48.99578,78 -128.00002,78 C 415.00313,1358 336,1257.9972 336,960 336,701.00314 467.99753,570 682,570 H 895.99999 V 392 c 0,0 -82.00131,-16 -213.99999,-16 z"
     id="path3157-2-7-7-2-8-2-3-1-8-2-6-4-3-2"
     style="display:inline;fill:#000000;fill-opacity:1;stroke:none" />
</svg>
