<?xml version="1.0" encoding="UTF-8" standalone="no"?>
<svg
   xmlns:dc="http://purl.org/dc/elements/1.1/"
   xmlns:cc="http://creativecommons.org/ns#"
   xmlns:rdf="http://www.w3.org/1999/02/22-rdf-syntax-ns#"
   xmlns:svg="http://www.w3.org/2000/svg"
   xmlns="http://www.w3.org/2000/svg"
   version="1.1"
   width="1024"
   height="2048"
   id="svg3355">
  <defs
     id="defs3357" />
  <metadata
     id="metadata3360">
    <rdf:RDF>
      <cc:Work
         rdf:about="">
        <dc:format>image/svg+xml</dc:format>
        <dc:type
           rdf:resource="http://purl.org/dc/dcmitype/StillImage" />
        <dc:title></dc:title>
      </cc:Work>
    </rdf:RDF>
  </metadata>
  <g
     transform="translate(0,995.63782)"
     id="layer1">
    <path
       d="m 337,-747.63779 c -108.99951,0 -177,16 -177,16 v 177.99997 l 177,-10e-6 c 177.00397,-10e-6 287,36.99628 287,148.00001 0,110.00002 -86.99652,178 -227,178 H 256 v 186 h 153 c 152.99708,0 247,75.995493 247,198 0,149.00263 -124.9966,198 -326,198 H 128 v 178 c 0,0 76.99941,16 202,16 360.00463,0 582,-98.0025 582,-392 0,-249.999444 -190,-313 -190,-313 0,0 158,-49.99508 158,-249 0,-257.00191 -206.99888,-341.99997 -543,-341.99997 z"
       id="path3157-2-7-2-4"
       style="display:inline;fill:#000000;fill-opacity:1;stroke:none" />
  </g>
</svg>
