<?xml version="1.0" encoding="UTF-8" standalone="no"?>
<svg
   xmlns:dc="http://purl.org/dc/elements/1.1/"
   xmlns:cc="http://creativecommons.org/ns#"
   xmlns:rdf="http://www.w3.org/1999/02/22-rdf-syntax-ns#"
   xmlns:svg="http://www.w3.org/2000/svg"
   xmlns="http://www.w3.org/2000/svg"
   version="1.1"
   width="1024"
   height="2048"
   id="svg3355">
  <defs
     id="defs3357" />
  <metadata
     id="metadata3360">
    <rdf:RDF>
      <cc:Work
         rdf:about="">
        <dc:format>image/svg+xml</dc:format>
        <dc:type
           rdf:resource="http://purl.org/dc/dcmitype/StillImage" />
        <dc:title></dc:title>
      </cc:Work>
    </rdf:RDF>
  </metadata>
  <g
     transform="translate(0,995.63782)"
     id="layer1"
     style="fill:#ff0000">
    <path
       id="path3157-2-7-2-1-8-1"
       style="display:inline;fill:#000000;fill-opacity:1;stroke:none"
       d="M 512,256 160,893 c -33.72351,61.59351 -48,145.9918 -48,259 0,247.0013 153.00054,400 400,400 246.99942,0 400,-153.0012 400,-400 C 912,911.0994 766.33678,759.33339 530,752 L 805,256 Z m 0,682 c 107.00062,0 173,82.001 173,214 0,131.999 -66.0035,214 -173,214 -106.9965,0 -173,-82.0012 -173,-214 0,-160.99773 43.00297,-214 173,-214 z"
       transform="translate(0,-995.63782)" />
  </g>
</svg>
