<?xml version="1.0" encoding="UTF-8" standalone="no"?>
<svg
   xmlns:dc="http://purl.org/dc/elements/1.1/"
   xmlns:cc="http://creativecommons.org/ns#"
   xmlns:rdf="http://www.w3.org/1999/02/22-rdf-syntax-ns#"
   xmlns:svg="http://www.w3.org/2000/svg"
   xmlns="http://www.w3.org/2000/svg"
   version="1.1"
   width="1024"
   height="2048"
   id="svg3355">
  <defs
     id="defs3357" />
  <metadata
     id="metadata3360">
    <rdf:RDF>
      <cc:Work
         rdf:about="">
        <dc:format>image/svg+xml</dc:format>
        <dc:type
           rdf:resource="http://purl.org/dc/dcmitype/StillImage" />
        <dc:title></dc:title>
      </cc:Work>
    </rdf:RDF>
  </metadata>
  <path
     d="m 563,239.99996 c -318.00176,0 -515,163.99741 -515,656 C 48,1381.998 271.00207,1544 631,1544 c 164.00428,0 265,-16 265,-16 V 1350 H 631 C 397.00022,1350 252,1237.0009 252,895.99996 252,543.99816 370.99587,426 563,426 c 118.99871,0 193,60.0032 193,156 H 659 C 479.00303,582 367,690.00104 367,865.99996 367,1079.0041 479.00003,1210 659,1210 h 97 c 153.00375,0 204,-45.9985 204,-186 V 582 C 960,370.99559 807.99606,239.99996 563,239.99996 Z m 96,528 h 97 V 1024 h -97 c -54.00209,0 -88,-60.0038 -88,-158.00004 0,-60.99905 33.99625,-98 88,-98 z"
     id="path3157-2-7-7-2-8-2-3-1-1-3-3-8"
     style="display:inline;fill:#000000;fill-opacity:1;stroke:none" />
</svg>
