<?xml version="1.0" encoding="UTF-8" standalone="no"?>
<svg
   xmlns:dc="http://purl.org/dc/elements/1.1/"
   xmlns:cc="http://creativecommons.org/ns#"
   xmlns:rdf="http://www.w3.org/1999/02/22-rdf-syntax-ns#"
   xmlns:svg="http://www.w3.org/2000/svg"
   xmlns="http://www.w3.org/2000/svg"
   version="1.1"
   width="1024"
   height="2048"
   id="svg3355">
  <defs
     id="defs3357" />
  <metadata
     id="metadata3360">
    <rdf:RDF>
      <cc:Work
         rdf:about="">
        <dc:format>image/svg+xml</dc:format>
        <dc:type
           rdf:resource="http://purl.org/dc/dcmitype/StillImage" />
        <dc:title></dc:title>
      </cc:Work>
    </rdf:RDF>
  </metadata>
  <g
     transform="translate(0,995.63782)"
     id="layer1" />
  <path
     d="M 96,256.00004 V 1536 h 256 c 365.99914,0 591.99998,-95.9979 591.99998,-384 0,-250.00074 -265.99996,-313 -265.99996,-313 0,0 202,-47.00068 202,-234 C 880.00002,343.00094 677.99909,256.00004 352,256.00004 Z M 352,442 c 168.00184,0 272.00002,41.00223 272.00002,163 0,121.99777 -104.0022,163.00001 -272.00002,163.00001 z m 0,512 c 202.99927,0 328.00002,39.99721 328.00002,198 0,158.0028 -124.99743,198 -328.00002,198 z"
     id="path3157-2-7-3-2"
     style="display:inline;fill:#000000;fill-opacity:1;stroke:none" />
</svg>
