<?xml version="1.0" encoding="UTF-8" standalone="no"?>
<svg
   xmlns:dc="http://purl.org/dc/elements/1.1/"
   xmlns:cc="http://creativecommons.org/ns#"
   xmlns:rdf="http://www.w3.org/1999/02/22-rdf-syntax-ns#"
   xmlns:svg="http://www.w3.org/2000/svg"
   xmlns="http://www.w3.org/2000/svg"
   version="1.1"
   width="1024"
   height="2048"
   id="svg3355">
  <defs
     id="defs3357" />
  <metadata
     id="metadata3360">
    <rdf:RDF>
      <cc:Work
         rdf:about="">
        <dc:format>image/svg+xml</dc:format>
        <dc:type
           rdf:resource="http://purl.org/dc/dcmitype/StillImage" />
        <dc:title></dc:title>
      </cc:Work>
    </rdf:RDF>
  </metadata>
  <path
     id="path3127-7"
     style="display:inline;fill:#000000;fill-opacity:1;stroke:none"
     d="M 512,240 C 164.00528,240 48,392.99774 48,853 c 0,379.1427 86.93435,539.7511 336,576 v 264 H 640 V 1429 C 889.06565,1392.7501 976,1232.138 976,853 976,393.00396 859.99472,240 512,240 Z m 0,186 c 155.99776,0 208,107.00319 208,427 0,252.7975 -32.45605,372.8037 -123,412 V 853 H 427 v 412 C 336.45605,1225.805 304,1105.802 304,853 304,532.99747 356.00224,426 512,426 Z" />
</svg>
