<?xml version="1.0" encoding="UTF-8" standalone="no"?>
<svg
   xmlns:dc="http://purl.org/dc/elements/1.1/"
   xmlns:cc="http://creativecommons.org/ns#"
   xmlns:rdf="http://www.w3.org/1999/02/22-rdf-syntax-ns#"
   xmlns:svg="http://www.w3.org/2000/svg"
   xmlns="http://www.w3.org/2000/svg"
   version="1.1"
   width="1024"
   height="2048"
   id="svg3355">
  <defs
     id="defs3357" />
  <metadata
     id="metadata3360">
    <rdf:RDF>
      <cc:Work
         rdf:about="">
        <dc:format>image/svg+xml</dc:format>
        <dc:type
           rdf:resource="http://purl.org/dc/dcmitype/StillImage" />
        <dc:title></dc:title>
      </cc:Work>
    </rdf:RDF>
  </metadata>
  <g
     transform="translate(0,995.63782)"
     id="layer1" />
  <path
     d="m 394,504.00004 c -105.00336,0 -170,16 -170,16 V 698 h 170 c 205.99771,0 275,36.00314 275,144 v 89 H 465 c -217.9978,0 -353,105.0036 -353,275 0,203.9989 135.00465,330 353,330 h 175 c 191.99533,0 256,-63.9951 256,-256 V 842 C 896,587.9967 770.99776,504.00004 394,504.00004 Z M 465,1117 h 204 v 163 c 0,42.9975 -26.99628,70 -70,70 H 465 c -78.002,0 -126,-54.9982 -126,-144 0,-54.9994 48.00366,-89 126,-89 z"
     id="path3157-2-7-7-2-8-2-3-1-1-3-3"
     style="display:inline;fill:#000000;fill-opacity:1;stroke:none" />
</svg>
