<?xml version="1.0" encoding="UTF-8" standalone="no"?>
<svg
   xmlns:dc="http://purl.org/dc/elements/1.1/"
   xmlns:cc="http://creativecommons.org/ns#"
   xmlns:rdf="http://www.w3.org/1999/02/22-rdf-syntax-ns#"
   xmlns:svg="http://www.w3.org/2000/svg"
   xmlns="http://www.w3.org/2000/svg"
   version="1.1"
   width="1024"
   height="2048"
   id="svg3355">
  <defs
     id="defs3357" />
  <metadata
     id="metadata3360">
    <rdf:RDF>
      <cc:Work
         rdf:about="">
        <dc:format>image/svg+xml</dc:format>
        <dc:type
           rdf:resource="http://purl.org/dc/dcmitype/StillImage" />
        <dc:title></dc:title>
      </cc:Work>
    </rdf:RDF>
  </metadata>
  <g
     transform="translate(0,995.63782)"
     id="layer1" />
  <path
     d="m 375,504.00004 c -113.00107,0 -183,16 -183,16 V 698 h 183 c 184.00173,0 297,36.00314 297,144 v 89 H 464 c -236.99655,0 -384,111.0036 -384,281 0,203.9989 146.99841,324 384,324 h 208 c 157.99987,0 256,-63.9951 256,-256 V 842 C 928,587.9967 717.00058,504.00004 375,504.00004 Z M 464,1117 h 208 v 163 c 0,53.0042 -29.99947,70 -79,70 H 464 c -79.00194,0 -128,-48.9982 -128,-138 0,-54.9994 49.00185,-95 128,-95 z"
     id="path3157-2-7-7-2-8-2-3-1-1-3-3"
     style="display:inline;fill:#000000;fill-opacity:1;stroke:none" />
</svg>
