<?xml version="1.0" encoding="UTF-8" standalone="no"?>
<svg
   xmlns:dc="http://purl.org/dc/elements/1.1/"
   xmlns:cc="http://creativecommons.org/ns#"
   xmlns:rdf="http://www.w3.org/1999/02/22-rdf-syntax-ns#"
   xmlns:svg="http://www.w3.org/2000/svg"
   xmlns="http://www.w3.org/2000/svg"
   version="1.1"
   width="1024"
   height="2048"
   id="svg3355">
  <defs
     id="defs3357" />
  <metadata
     id="metadata3360">
    <rdf:RDF>
      <cc:Work
         rdf:about="">
        <dc:format>image/svg+xml</dc:format>
        <dc:type
           rdf:resource="http://purl.org/dc/dcmitype/StillImage" />
        <dc:title></dc:title>
      </cc:Work>
    </rdf:RDF>
  </metadata>
  <g
     transform="translate(0,995.63782)"
     id="layer1" />
  <path
     d="m 383,504.00004 c -97.999,0 -159,16 -159,16 V 698 h 159 c 192.99797,0 257,36.00314 257,144 v 89 H 472 c -221.99587,0 -360,111.0036 -360,281 0,203.9989 137.99943,324 360,324 h 168 c 191.99533,0 256,-63.9951 256,-256 V 842 C 896,587.9967 767.99667,504.00004 383,504.00004 Z M 472,1117 h 168 v 163 c 0,42.9975 -26.99628,70 -70,70 h -98 c -63.99908,0 -104,-48.9982 -104,-138 0,-54.9994 40.00099,-95 104,-95 z"
     id="path3157-2-7-7-2-8-2-3-1-1-3-3"
     style="display:inline;fill:#000000;fill-opacity:1;stroke:none" />
</svg>
