<?xml version="1.0" encoding="UTF-8" standalone="no"?>
<svg
   xmlns:dc="http://purl.org/dc/elements/1.1/"
   xmlns:cc="http://creativecommons.org/ns#"
   xmlns:rdf="http://www.w3.org/1999/02/22-rdf-syntax-ns#"
   xmlns:svg="http://www.w3.org/2000/svg"
   xmlns="http://www.w3.org/2000/svg"
   version="1.1"
   width="1024"
   height="2048"
   id="svg3355">
  <defs
     id="defs3357" />
  <metadata
     id="metadata3360">
    <rdf:RDF>
      <cc:Work
         rdf:about="">
        <dc:format>image/svg+xml</dc:format>
        <dc:type
           rdf:resource="http://purl.org/dc/dcmitype/StillImage" />
        <dc:title></dc:title>
      </cc:Work>
    </rdf:RDF>
  </metadata>
  <g
     transform="translate(0,995.63782)"
     id="layer1">
    <path
       id="path3157-2-7-7-2-8-2-3-1-1-3-33"
       style="display:inline;fill:#000000;fill-opacity:1;stroke:none"
       d="m 128,256 v 1024 c 0,192.0012 63.99948,256 256,256 h 104 c 274.00229,0 424,-204.9977 424,-536 0,-302.00283 -152.99589,-488 -400,-488 -46.23262,0 -89.03991,7.07765 -128,18.47266 V 256 Z m 384,442 c 89.00031,0 144,96.99181 144,302 0,234.0028 -43.26901,350 -168,350 -63.99989,0 -104,-27.0033 -104,-70 V 720.54492 C 422.95968,706.63889 465.76709,698 512,698 Z"
       transform="translate(0,-995.63782)" />
  </g>
</svg>
