<?xml version="1.0" encoding="UTF-8" standalone="no"?>
<svg
   xmlns:dc="http://purl.org/dc/elements/1.1/"
   xmlns:cc="http://creativecommons.org/ns#"
   xmlns:rdf="http://www.w3.org/1999/02/22-rdf-syntax-ns#"
   xmlns:svg="http://www.w3.org/2000/svg"
   xmlns="http://www.w3.org/2000/svg"
   version="1.1"
   width="1024"
   height="2048"
   id="svg3355">
  <defs
     id="defs3357" />
  <metadata
     id="metadata3360">
    <rdf:RDF>
      <cc:Work
         rdf:about="">
        <dc:format>image/svg+xml</dc:format>
        <dc:type
           rdf:resource="http://purl.org/dc/dcmitype/StillImage" />
        <dc:title></dc:title>
      </cc:Work>
    </rdf:RDF>
  </metadata>
  <g
     transform="translate(-869.28563,995.63782)"
     id="layer1" />
  <path
     id="path3157-2-7-7-2-8-2-3-1-1-3-33-2"
     style="display:inline;fill:#000000;fill-opacity:1;stroke:none"
     d="m 96,256 v 1024 c 0,192.0012 98.00428,256 256,256 h 128 c 274.0023,0 464,-204.9977 464,-536 0,-302.00283 -184.9959,-488 -432,-488 -58.69348,0 -112.25621,5.74375 -160,15 V 256 Z m 416,442 c 109.00343,0 176,96.99181 176,302 0,234.0028 -79.00231,350 -208,350 -78.99921,0 -128,-17.0037 -128,-70 V 719 c 47.74382,-12.55628 101.30625,-21 160,-21 z" />
</svg>
