<?xml version="1.0" encoding="UTF-8" standalone="no"?>
<svg
   xmlns:dc="http://purl.org/dc/elements/1.1/"
   xmlns:cc="http://creativecommons.org/ns#"
   xmlns:rdf="http://www.w3.org/1999/02/22-rdf-syntax-ns#"
   xmlns:svg="http://www.w3.org/2000/svg"
   xmlns="http://www.w3.org/2000/svg"
   version="1.1"
   width="1024"
   height="2048"
   id="svg3355">
  <defs
     id="defs3357" />
  <metadata
     id="metadata3360">
    <rdf:RDF>
      <cc:Work
         rdf:about="">
        <dc:format>image/svg+xml</dc:format>
        <dc:type
           rdf:resource="http://purl.org/dc/dcmitype/StillImage" />
        <dc:title></dc:title>
      </cc:Work>
    </rdf:RDF>
  </metadata>
  <g
     transform="translate(0,995.63782)"
     id="layer1" />
  <path
     id="path3157-2-7-7-2-8-2-3-1-1-3-33-2-1"
     style="display:inline;fill:#000000;fill-opacity:1;stroke:none"
     d="m 928.0001,256 v 1024 c 0,192.0012 -98.0043,256 -256,256 h -128 C 269.9977,1536 80,1349.9969 80,1048 80,717.00277 264.9959,512 512.0001,512 c 58.6934,0 112.2562,5.74375 160,15 V 256 Z m -416,442 C 402.9966,698 336,832.00247 336,1048 c 0,187.0027 79.0024,302 208.0001,302 78.9992,0 128,-17.0037 128,-70 V 719 c -47.7439,-12.55628 -101.3063,-21 -160,-21 z" />
</svg>
