<?xml version="1.0" encoding="UTF-8" standalone="no"?>
<svg
   xmlns:dc="http://purl.org/dc/elements/1.1/"
   xmlns:cc="http://creativecommons.org/ns#"
   xmlns:rdf="http://www.w3.org/1999/02/22-rdf-syntax-ns#"
   xmlns:svg="http://www.w3.org/2000/svg"
   xmlns="http://www.w3.org/2000/svg"
   version="1.1"
   width="1024"
   height="2048"
   id="svg3355">
  <defs
     id="defs3357" />
  <metadata
     id="metadata3360">
    <rdf:RDF>
      <cc:Work
         rdf:about="">
        <dc:format>image/svg+xml</dc:format>
        <dc:type
           rdf:resource="http://purl.org/dc/dcmitype/StillImage" />
        <dc:title></dc:title>
      </cc:Work>
    </rdf:RDF>
  </metadata>
  <g
     transform="translate(0,995.63782)"
     id="layer1" />
  <g
     transform="translate(0,995.63782)"
     id="layer1-15"
     style="display:inline">
    <path
       id="path3157-2-7-7-2-8-2-3-1-1-3-3-6"
       style="display:inline;fill:#000000;fill-opacity:1;stroke:none"
       d="m 512,496 c -245.00481,0 -432,202.00482 -432,528 0,320.9979 199.00121,520 520,520 153.00255,0 264,-16 264,-16 V 1350 H 600 c -140.42396,0 -234.54317,-92.7812 -258,-247 h 432 c 128.00077,0 170,-39.0016 170,-158 V 876 C 944,640.99624 757.00481,496 512,496 Z m 0,186 c 108.99847,0 176,69.99677 176,194 v 69 H 339 C 353.93551,780.80972 417.34281,682 512,682 Z"
       transform="translate(0,-995.63782)" />
  </g>
</svg>
