<?xml version="1.0" encoding="UTF-8" standalone="no"?>
<svg
   xmlns:dc="http://purl.org/dc/elements/1.1/"
   xmlns:cc="http://creativecommons.org/ns#"
   xmlns:rdf="http://www.w3.org/1999/02/22-rdf-syntax-ns#"
   xmlns:svg="http://www.w3.org/2000/svg"
   xmlns="http://www.w3.org/2000/svg"
   version="1.1"
   width="1024"
   height="2048"
   id="svg3355">
  <defs
     id="defs3357" />
  <metadata
     id="metadata3360">
    <rdf:RDF>
      <cc:Work
         rdf:about="">
        <dc:format>image/svg+xml</dc:format>
        <dc:type
           rdf:resource="http://purl.org/dc/dcmitype/StillImage" />
        <dc:title></dc:title>
      </cc:Work>
    </rdf:RDF>
  </metadata>
  <path
     d="M 544,512.00003 C 257.00482,512.00003 80,660.99942 80,902 c 0,234.0003 164.99877,378 432,378 h 160 v 136 c 0,143.0007 -121.00496,190 -316,190 H 160 v 178 c 0,0 75.00016,16 196,16 354.00499,0 572,-101.9967 572,-384 V 768.00003 c 0,-191.99695 -97.99777,-256 -256,-256 z M 544,698 c 79.00172,0 128,17.00079 128,70.00003 V 1094 H 512 c -109.0026,0 -176,-72.9988 -176,-192 0,-125.99703 78.9969,-204 208,-204 z"
     id="path3157-2-7-7-2-8-2-3-1-1"
     style="display:inline;fill:#000000;fill-opacity:1;stroke:none" />
</svg>
