<?xml version="1.0" encoding="UTF-8" standalone="no"?>
<svg
   xmlns:dc="http://purl.org/dc/elements/1.1/"
   xmlns:cc="http://creativecommons.org/ns#"
   xmlns:rdf="http://www.w3.org/1999/02/22-rdf-syntax-ns#"
   xmlns:svg="http://www.w3.org/2000/svg"
   xmlns="http://www.w3.org/2000/svg"
   version="1.1"
   width="1024"
   height="2048"
   id="svg3355">
  <defs
     id="defs3357" />
  <metadata
     id="metadata3360">
    <rdf:RDF>
      <cc:Work
         rdf:about="">
        <dc:format>image/svg+xml</dc:format>
        <dc:type
           rdf:resource="http://purl.org/dc/dcmitype/StillImage" />
        <dc:title></dc:title>
      </cc:Work>
    </rdf:RDF>
  </metadata>
  <path
     d="m 536,512.00003 c -262.00199,0 -424,148.99939 -424,389.99997 0,234.0003 152.99847,378 400,378 h 128 v 136 c 0,143.0007 -97.99871,190 -257,190 H 224 v 178 c 0,0 60.99732,16 159,16 316.99942,0 513,-101.9967 513,-384 V 768.00003 c 0,-191.99695 -63.99797,-256 -256,-256 z M 536,698 c 78.00112,0 104,17.00079 104,70.00003 V 1094 H 512 c -88.99925,0 -144,-72.9988 -144,-192 0,-125.99703 63.99738,-204 168,-204 z"
     id="path3157-2-7-7-2-8-2-3-1-1"
     style="display:inline;fill:#000000;fill-opacity:1;stroke:none" />
</svg>
