<?xml version="1.0" encoding="UTF-8" standalone="no"?>
<svg
   xmlns:dc="http://purl.org/dc/elements/1.1/"
   xmlns:cc="http://creativecommons.org/ns#"
   xmlns:rdf="http://www.w3.org/1999/02/22-rdf-syntax-ns#"
   xmlns:svg="http://www.w3.org/2000/svg"
   xmlns="http://www.w3.org/2000/svg"
   version="1.1"
   width="1024"
   height="2048"
   id="svg3355">
  <defs
     id="defs3357" />
  <metadata
     id="metadata3360">
    <rdf:RDF>
      <cc:Work
         rdf:about="">
        <dc:format>image/svg+xml</dc:format>
        <dc:type
           rdf:resource="http://purl.org/dc/dcmitype/StillImage" />
        <dc:title></dc:title>
      </cc:Work>
    </rdf:RDF>
  </metadata>
  <g
     transform="translate(0,995.63782)"
     id="layer1" />
  <path
     d="M 327,504 C 164.0027,504 64,599.99995 64,599.99995 V 1536 H 268 V 716 c 0,0 21.99518,-26 71,-26 49.00482,0 71,29.99922 71,77.99995 V 1536 H 614 V 716 c 0,0 26.99839,-26 71,-26 44.00161,0 71,30.00329 71,77.99995 V 1536 H 960 V 767.99995 C 960,599.99782 859.9978,504 697,504 c -108.9962,0 -177,52 -177,52 0,0 -47.9976,-52 -193,-52 z"
     id="path3157-2-7-7-2-8-2-4"
     style="display:inline;fill:#000000;fill-opacity:1;stroke:none" />
</svg>
