<?xml version="1.0" encoding="UTF-8" standalone="no"?>
<svg
   xmlns:dc="http://purl.org/dc/elements/1.1/"
   xmlns:cc="http://creativecommons.org/ns#"
   xmlns:rdf="http://www.w3.org/1999/02/22-rdf-syntax-ns#"
   xmlns:svg="http://www.w3.org/2000/svg"
   xmlns="http://www.w3.org/2000/svg"
   version="1.1"
   width="1024"
   height="2048"
   id="svg3355">
  <defs
     id="defs3357" />
  <metadata
     id="metadata3360">
    <rdf:RDF>
      <cc:Work
         rdf:about="">
        <dc:format>image/svg+xml</dc:format>
        <dc:type
           rdf:resource="http://purl.org/dc/dcmitype/StillImage" />
        <dc:title></dc:title>
      </cc:Work>
    </rdf:RDF>
  </metadata>
  <path
     id="path5114-5-34"
     style="display:inline;fill:#000000;fill-opacity:1;stroke:none"
     d="M 696 99 C 417.00211 99 268.07622 252.99987 317 502 L 384 843 L 64 843 L 64 1048 L 384 1048 L 317 1389 C 268.07622 1638.0001 417.00211 1792 696 1792 L 822 1792 L 822 1606 L 696 1606 C 569.99729 1606 570 1522.9958 570 1389 L 570 1048 L 384 1016 L 384 875 L 570 843 L 570 502 C 570 368.0042 569.99729 285 696 285 L 822 285 L 822 99 L 696 99 z " />
</svg>
