<?xml version="1.0" encoding="UTF-8" standalone="no"?>
<!-- Created with Inkscape (http://www.inkscape.org/) -->

<svg
   xmlns:dc="http://purl.org/dc/elements/1.1/"
   xmlns:cc="http://creativecommons.org/ns#"
   xmlns:rdf="http://www.w3.org/1999/02/22-rdf-syntax-ns#"
   xmlns:svg="http://www.w3.org/2000/svg"
   xmlns="http://www.w3.org/2000/svg"
   version="1.1"
   width="1024"
   height="2048"
   id="svg3355">
  <defs
     id="defs3357" />
  <metadata
     id="metadata3360">
    <rdf:RDF>
      <cc:Work
         rdf:about="">
        <dc:format>image/svg+xml</dc:format>
        <dc:type
           rdf:resource="http://purl.org/dc/dcmitype/StillImage" />
        <dc:title></dc:title>
      </cc:Work>
    </rdf:RDF>
  </metadata>
  <g
     transform="translate(0,995.63782)"
     id="layer1" />
  <path
     d="m 629,247.99996 c -277.99966,0 -373,86.9977 -373,227 0,127.005 118,206 118,206 0,0 -262,99.9959 -262,400.00004 0,291.0027 152.99638,471 400,471 247.00362,0 400,-180.0021 400,-471 0,-374.99774 -486,-440.99524 -486,-606.00004 0,-38.0018 50.99709,-62 203,-62 l 203,0 0,-149 c 0,0 -78.00263,-16 -203,-16 z m -117,520 c 117.01268,70.2588 230,148.8861 230,313.00004 0,194.0028 -88.00374,314 -230,314 -141.99626,0 -230,-120.0015 -230,-314 0,-244.58104 230,-313.00004 230,-313.00004 z"
     id="path3157-2-7-7-2-8-2-3-1-1-3-33-4-0-6-8-9"
     style="fill:#000000;fill-opacity:1;stroke:none;display:inline" />
</svg>
