<?xml version="1.0" encoding="UTF-8" standalone="no"?>
<!-- Created with Inkscape (http://www.inkscape.org/) -->

<svg
   xmlns:dc="http://purl.org/dc/elements/1.1/"
   xmlns:cc="http://creativecommons.org/ns#"
   xmlns:rdf="http://www.w3.org/1999/02/22-rdf-syntax-ns#"
   xmlns:svg="http://www.w3.org/2000/svg"
   xmlns="http://www.w3.org/2000/svg"
   version="1.1"
   width="1024"
   height="2048"
   id="svg3355">
  <defs
     id="defs3357" />
  <metadata
     id="metadata3360">
    <rdf:RDF>
      <cc:Work
         rdf:about="">
        <dc:format>image/svg+xml</dc:format>
        <dc:type
           rdf:resource="http://purl.org/dc/dcmitype/StillImage" />
        <dc:title></dc:title>
      </cc:Work>
    </rdf:RDF>
  </metadata>
  <g
     transform="translate(0,995.63782)"
     id="layer1" />
  <path
     d="m 107,512 c 0,0 -59,196.00186 -59,512 0,326.0043 72.99639,528 293,528 170.99898,0 171,-272 171,-272 0,0 -0.002,272 171,272 220.00247,0 293,-201.9957 293,-528 0,-315.99809 -59,-512 -59,-512 l -170,0 c 0,0 57,195.99964 57,512 0,229.0034 -45.99797,371 -121,371 -52.99659,0 -86,-127.9995 -86,-334 l 0,-293 -170,0 0,293 c 0,206.0023 -33.00024,334 -86,334 -74.99649,0 -121,-141.9966 -121,-371 0,-316.00041 57,-512 57,-512 z"
     id="path3157-2-7-7-2-8-2-6-1-8"
     style="fill:#000000;fill-opacity:1;stroke:none;display:inline" />
</svg>
