<?xml version="1.0" encoding="UTF-8" standalone="no"?>
<!-- Created with Inkscape (http://www.inkscape.org/) -->

<svg
   xmlns:dc="http://purl.org/dc/elements/1.1/"
   xmlns:cc="http://creativecommons.org/ns#"
   xmlns:rdf="http://www.w3.org/1999/02/22-rdf-syntax-ns#"
   xmlns:svg="http://www.w3.org/2000/svg"
   xmlns="http://www.w3.org/2000/svg"
   version="1.1"
   width="1024"
   height="2048"
   id="svg3355">
  <defs
     id="defs3357" />
  <metadata
     id="metadata3360">
    <rdf:RDF>
      <cc:Work
         rdf:about="">
        <dc:format>image/svg+xml</dc:format>
        <dc:type
           rdf:resource="http://purl.org/dc/dcmitype/StillImage" />
        <dc:title></dc:title>
      </cc:Work>
    </rdf:RDF>
  </metadata>
  <path
     d="m 512,240 c -246.99694,0 -400,251.0022 -400,656 0,404.9978 152.99644,656 400,656 247.00356,0 400,-250.9962 400,-656 C 912,490.99618 758.99694,240 512,240 z m 0,157 c 223.99826,0 224,371 224,371 l -448,0 c 0,0 0.002,-371 224,-371 z m -230,528 460,0 c 0,0 0.004,470 -230,470 -230.00373,0 -230,-470 -230,-470 z"
     id="path3127-7-7-59"
     style="fill:#000000;fill-opacity:1;stroke:none;display:inline" />
</svg>
