<?xml version="1.0" encoding="UTF-8" standalone="no"?>
<!-- Created with Inkscape (http://www.inkscape.org/) -->

<svg
   xmlns:dc="http://purl.org/dc/elements/1.1/"
   xmlns:cc="http://creativecommons.org/ns#"
   xmlns:rdf="http://www.w3.org/1999/02/22-rdf-syntax-ns#"
   xmlns:svg="http://www.w3.org/2000/svg"
   xmlns="http://www.w3.org/2000/svg"
   version="1.1"
   width="1024"
   height="2048"
   id="svg3355">
  <defs
     id="defs3357" />
  <metadata
     id="metadata3360">
    <rdf:RDF>
      <cc:Work
         rdf:about="">
        <dc:format>image/svg+xml</dc:format>
        <dc:type
           rdf:resource="http://purl.org/dc/dcmitype/StillImage" />
        <dc:title></dc:title>
      </cc:Work>
    </rdf:RDF>
  </metadata>
  <g
     transform="translate(0,995.63782)"
     id="layer1" />
  <path
     d="m 346,828 c 0,0 -234,55.0049 -234,274 0,207.0003 153.0008,335 400.00002,335 383.9985,0 212,355 212,355 l 172,0 c 0,0 196.41588,-512 -384,-512 C 369.9961,1280 282,1211.9983 282,1102 282,960.00207 404.9957,925 605.00001,925 l 195,0 0,-157 -195,0 C 444.9966,768 346,731.99573 346,590 346,480.99573 444.9951,413.00003 605.00001,413.00003 l 259,0 0,-149 c 0,0 -99.00316,-16 -259,-16 C 340.0022,248.00003 176,378.99983 176,590 c 0,189.9983 170,238 170,238 z"
     id="path3157-2-7-7-2-8-2-3-1-8-9-93-1"
     style="fill:#000000;fill-opacity:1;stroke:none;display:inline" />
</svg>
